<?xml version="1.0" encoding="utf-8"?>
<svg xmlns="http://www.w3.org/2000/svg" xmlns:xlink="http://www.w3.org/1999/xlink" width="600" height="400" viewBox="0 0 2400 1600">
<defs>
  <clipPath id="clip470">
    <rect x="0" y="0" width="2400" height="1600"/>
  </clipPath>
</defs>
<path clip-path="url(#clip470)" d="M0 1600 L2400 1600 L2400 8.88178e-14 L0 8.88178e-14  Z" fill="#ffffff" fill-rule="evenodd" fill-opacity="1"/>
<defs>
  <clipPath id="clip471">
    <rect x="480" y="0" width="1681" height="1600"/>
  </clipPath>
</defs>
<path clip-path="url(#clip470)" d="M336.463 1486.45 L2352.76 1486.45 L2352.76 47.2441 L336.463 47.2441  Z" fill="#ffffff" fill-rule="evenodd" fill-opacity="1"/>
<defs>
  <clipPath id="clip472">
    <rect x="336" y="47" width="2017" height="1440"/>
  </clipPath>
</defs>
<polyline clip-path="url(#clip472)" style="stroke:#000000; stroke-linecap:round; stroke-linejoin:round; stroke-width:2; stroke-opacity:0.1; fill:none" points="393.528,1486.45 393.528,47.2441 "/>
<polyline clip-path="url(#clip472)" style="stroke:#000000; stroke-linecap:round; stroke-linejoin:round; stroke-width:2; stroke-opacity:0.1; fill:none" points="869.068,1486.45 869.068,47.2441 "/>
<polyline clip-path="url(#clip472)" style="stroke:#000000; stroke-linecap:round; stroke-linejoin:round; stroke-width:2; stroke-opacity:0.1; fill:none" points="1344.61,1486.45 1344.61,47.2441 "/>
<polyline clip-path="url(#clip472)" style="stroke:#000000; stroke-linecap:round; stroke-linejoin:round; stroke-width:2; stroke-opacity:0.1; fill:none" points="1820.15,1486.45 1820.15,47.2441 "/>
<polyline clip-path="url(#clip472)" style="stroke:#000000; stroke-linecap:round; stroke-linejoin:round; stroke-width:2; stroke-opacity:0.1; fill:none" points="2295.69,1486.45 2295.69,47.2441 "/>
<polyline clip-path="url(#clip472)" style="stroke:#000000; stroke-linecap:round; stroke-linejoin:round; stroke-width:2; stroke-opacity:0.1; fill:none" points="336.463,1314.14 2352.76,1314.14 "/>
<polyline clip-path="url(#clip472)" style="stroke:#000000; stroke-linecap:round; stroke-linejoin:round; stroke-width:2; stroke-opacity:0.1; fill:none" points="336.463,1096.82 2352.76,1096.82 "/>
<polyline clip-path="url(#clip472)" style="stroke:#000000; stroke-linecap:round; stroke-linejoin:round; stroke-width:2; stroke-opacity:0.1; fill:none" points="336.463,879.487 2352.76,879.487 "/>
<polyline clip-path="url(#clip472)" style="stroke:#000000; stroke-linecap:round; stroke-linejoin:round; stroke-width:2; stroke-opacity:0.1; fill:none" points="336.463,662.159 2352.76,662.159 "/>
<polyline clip-path="url(#clip472)" style="stroke:#000000; stroke-linecap:round; stroke-linejoin:round; stroke-width:2; stroke-opacity:0.1; fill:none" points="336.463,444.83 2352.76,444.83 "/>
<polyline clip-path="url(#clip472)" style="stroke:#000000; stroke-linecap:round; stroke-linejoin:round; stroke-width:2; stroke-opacity:0.1; fill:none" points="336.463,227.501 2352.76,227.501 "/>
<polyline clip-path="url(#clip470)" style="stroke:#000000; stroke-linecap:round; stroke-linejoin:round; stroke-width:4; stroke-opacity:1; fill:none" points="336.463,1486.45 2352.76,1486.45 "/>
<polyline clip-path="url(#clip470)" style="stroke:#000000; stroke-linecap:round; stroke-linejoin:round; stroke-width:4; stroke-opacity:1; fill:none" points="393.528,1486.45 393.528,1467.55 "/>
<polyline clip-path="url(#clip470)" style="stroke:#000000; stroke-linecap:round; stroke-linejoin:round; stroke-width:4; stroke-opacity:1; fill:none" points="869.068,1486.45 869.068,1467.55 "/>
<polyline clip-path="url(#clip470)" style="stroke:#000000; stroke-linecap:round; stroke-linejoin:round; stroke-width:4; stroke-opacity:1; fill:none" points="1344.61,1486.45 1344.61,1467.55 "/>
<polyline clip-path="url(#clip470)" style="stroke:#000000; stroke-linecap:round; stroke-linejoin:round; stroke-width:4; stroke-opacity:1; fill:none" points="1820.15,1486.45 1820.15,1467.55 "/>
<polyline clip-path="url(#clip470)" style="stroke:#000000; stroke-linecap:round; stroke-linejoin:round; stroke-width:4; stroke-opacity:1; fill:none" points="2295.69,1486.45 2295.69,1467.55 "/>
<path clip-path="url(#clip470)" d="M370.912 1517.37 Q367.301 1517.37 365.472 1520.93 Q363.667 1524.47 363.667 1531.6 Q363.667 1538.71 365.472 1542.27 Q367.301 1545.82 370.912 1545.82 Q374.546 1545.82 376.352 1542.27 Q378.18 1538.71 378.18 1531.6 Q378.18 1524.47 376.352 1520.93 Q374.546 1517.37 370.912 1517.37 M370.912 1513.66 Q376.722 1513.66 379.778 1518.27 Q382.856 1522.85 382.856 1531.6 Q382.856 1540.33 379.778 1544.94 Q376.722 1549.52 370.912 1549.52 Q365.102 1549.52 362.023 1544.94 Q358.968 1540.33 358.968 1531.6 Q358.968 1522.85 362.023 1518.27 Q365.102 1513.66 370.912 1513.66 Z" fill="#000000" fill-rule="nonzero" fill-opacity="1" /><path clip-path="url(#clip470)" d="M391.074 1542.97 L395.958 1542.97 L395.958 1548.85 L391.074 1548.85 L391.074 1542.97 Z" fill="#000000" fill-rule="nonzero" fill-opacity="1" /><path clip-path="url(#clip470)" d="M416.143 1517.37 Q412.532 1517.37 410.703 1520.93 Q408.898 1524.47 408.898 1531.6 Q408.898 1538.71 410.703 1542.27 Q412.532 1545.82 416.143 1545.82 Q419.777 1545.82 421.583 1542.27 Q423.412 1538.71 423.412 1531.6 Q423.412 1524.47 421.583 1520.93 Q419.777 1517.37 416.143 1517.37 M416.143 1513.66 Q421.953 1513.66 425.009 1518.27 Q428.088 1522.85 428.088 1531.6 Q428.088 1540.33 425.009 1544.94 Q421.953 1549.52 416.143 1549.52 Q410.333 1549.52 407.254 1544.94 Q404.199 1540.33 404.199 1531.6 Q404.199 1522.85 407.254 1518.27 Q410.333 1513.66 416.143 1513.66 Z" fill="#000000" fill-rule="nonzero" fill-opacity="1" /><path clip-path="url(#clip470)" d="M846.951 1517.37 Q843.339 1517.37 841.511 1520.93 Q839.705 1524.47 839.705 1531.6 Q839.705 1538.71 841.511 1542.27 Q843.339 1545.82 846.951 1545.82 Q850.585 1545.82 852.39 1542.27 Q854.219 1538.71 854.219 1531.6 Q854.219 1524.47 852.39 1520.93 Q850.585 1517.37 846.951 1517.37 M846.951 1513.66 Q852.761 1513.66 855.816 1518.27 Q858.895 1522.85 858.895 1531.6 Q858.895 1540.33 855.816 1544.94 Q852.761 1549.52 846.951 1549.52 Q841.14 1549.52 838.062 1544.94 Q835.006 1540.33 835.006 1531.6 Q835.006 1522.85 838.062 1518.27 Q841.14 1513.66 846.951 1513.66 Z" fill="#000000" fill-rule="nonzero" fill-opacity="1" /><path clip-path="url(#clip470)" d="M867.112 1542.97 L871.997 1542.97 L871.997 1548.85 L867.112 1548.85 L867.112 1542.97 Z" fill="#000000" fill-rule="nonzero" fill-opacity="1" /><path clip-path="url(#clip470)" d="M882.228 1514.29 L900.585 1514.29 L900.585 1518.22 L886.511 1518.22 L886.511 1526.7 Q887.529 1526.35 888.548 1526.19 Q889.566 1526 890.585 1526 Q896.372 1526 899.751 1529.17 Q903.131 1532.34 903.131 1537.76 Q903.131 1543.34 899.659 1546.44 Q896.186 1549.52 889.867 1549.52 Q887.691 1549.52 885.423 1549.15 Q883.177 1548.78 880.77 1548.04 L880.77 1543.34 Q882.853 1544.47 885.075 1545.03 Q887.298 1545.58 889.774 1545.58 Q893.779 1545.58 896.117 1543.48 Q898.455 1541.37 898.455 1537.76 Q898.455 1534.15 896.117 1532.04 Q893.779 1529.94 889.774 1529.94 Q887.899 1529.94 886.024 1530.35 Q884.173 1530.77 882.228 1531.65 L882.228 1514.29 Z" fill="#000000" fill-rule="nonzero" fill-opacity="1" /><path clip-path="url(#clip470)" d="M1311.76 1544.91 L1319.4 1544.91 L1319.4 1518.55 L1311.09 1520.21 L1311.09 1515.95 L1319.35 1514.29 L1324.03 1514.29 L1324.03 1544.91 L1331.67 1544.91 L1331.67 1548.85 L1311.76 1548.85 L1311.76 1544.91 Z" fill="#000000" fill-rule="nonzero" fill-opacity="1" /><path clip-path="url(#clip470)" d="M1341.11 1542.97 L1346 1542.97 L1346 1548.85 L1341.11 1548.85 L1341.11 1542.97 Z" fill="#000000" fill-rule="nonzero" fill-opacity="1" /><path clip-path="url(#clip470)" d="M1366.18 1517.37 Q1362.57 1517.37 1360.74 1520.93 Q1358.94 1524.47 1358.94 1531.6 Q1358.94 1538.71 1360.74 1542.27 Q1362.57 1545.82 1366.18 1545.82 Q1369.82 1545.82 1371.62 1542.27 Q1373.45 1538.71 1373.45 1531.6 Q1373.45 1524.47 1371.62 1520.93 Q1369.82 1517.37 1366.18 1517.37 M1366.18 1513.66 Q1371.99 1513.66 1375.05 1518.27 Q1378.13 1522.85 1378.13 1531.6 Q1378.13 1540.33 1375.05 1544.94 Q1371.99 1549.52 1366.18 1549.52 Q1360.37 1549.52 1357.29 1544.94 Q1354.24 1540.33 1354.24 1531.6 Q1354.24 1522.85 1357.29 1518.27 Q1360.37 1513.66 1366.18 1513.66 Z" fill="#000000" fill-rule="nonzero" fill-opacity="1" /><path clip-path="url(#clip470)" d="M1787.8 1544.91 L1795.44 1544.91 L1795.44 1518.55 L1787.13 1520.21 L1787.13 1515.95 L1795.39 1514.29 L1800.07 1514.29 L1800.07 1544.91 L1807.71 1544.91 L1807.71 1548.85 L1787.8 1548.85 L1787.8 1544.91 Z" fill="#000000" fill-rule="nonzero" fill-opacity="1" /><path clip-path="url(#clip470)" d="M1817.15 1542.97 L1822.04 1542.97 L1822.04 1548.85 L1817.15 1548.85 L1817.15 1542.97 Z" fill="#000000" fill-rule="nonzero" fill-opacity="1" /><path clip-path="url(#clip470)" d="M1832.27 1514.29 L1850.62 1514.29 L1850.62 1518.22 L1836.55 1518.22 L1836.55 1526.7 Q1837.57 1526.35 1838.59 1526.19 Q1839.61 1526 1840.62 1526 Q1846.41 1526 1849.79 1529.17 Q1853.17 1532.34 1853.17 1537.76 Q1853.17 1543.34 1849.7 1546.44 Q1846.23 1549.52 1839.91 1549.52 Q1837.73 1549.52 1835.46 1549.15 Q1833.22 1548.78 1830.81 1548.04 L1830.81 1543.34 Q1832.89 1544.47 1835.12 1545.03 Q1837.34 1545.58 1839.81 1545.58 Q1843.82 1545.58 1846.16 1543.48 Q1848.49 1541.37 1848.49 1537.76 Q1848.49 1534.15 1846.16 1532.04 Q1843.82 1529.94 1839.81 1529.94 Q1837.94 1529.94 1836.06 1530.35 Q1834.21 1530.77 1832.27 1531.65 L1832.27 1514.29 Z" fill="#000000" fill-rule="nonzero" fill-opacity="1" /><path clip-path="url(#clip470)" d="M2266.93 1544.91 L2283.25 1544.91 L2283.25 1548.85 L2261.3 1548.85 L2261.3 1544.91 Q2263.97 1542.16 2268.55 1537.53 Q2273.16 1532.88 2274.34 1531.53 Q2276.58 1529.01 2277.46 1527.27 Q2278.36 1525.51 2278.36 1523.82 Q2278.36 1521.07 2276.42 1519.33 Q2274.5 1517.6 2271.4 1517.6 Q2269.2 1517.6 2266.74 1518.36 Q2264.31 1519.13 2261.54 1520.68 L2261.54 1515.95 Q2264.36 1514.82 2266.81 1514.24 Q2269.27 1513.66 2271.3 1513.66 Q2276.67 1513.66 2279.87 1516.35 Q2283.06 1519.03 2283.06 1523.52 Q2283.06 1525.65 2282.25 1527.57 Q2281.47 1529.47 2279.36 1532.07 Q2278.78 1532.74 2275.68 1535.95 Q2272.58 1539.15 2266.93 1544.91 Z" fill="#000000" fill-rule="nonzero" fill-opacity="1" /><path clip-path="url(#clip470)" d="M2293.06 1542.97 L2297.95 1542.97 L2297.95 1548.85 L2293.06 1548.85 L2293.06 1542.97 Z" fill="#000000" fill-rule="nonzero" fill-opacity="1" /><path clip-path="url(#clip470)" d="M2318.13 1517.37 Q2314.52 1517.37 2312.69 1520.93 Q2310.89 1524.47 2310.89 1531.6 Q2310.89 1538.71 2312.69 1542.27 Q2314.52 1545.82 2318.13 1545.82 Q2321.77 1545.82 2323.57 1542.27 Q2325.4 1538.71 2325.4 1531.6 Q2325.4 1524.47 2323.57 1520.93 Q2321.77 1517.37 2318.13 1517.37 M2318.13 1513.66 Q2323.94 1513.66 2327 1518.27 Q2330.08 1522.85 2330.08 1531.6 Q2330.08 1540.33 2327 1544.94 Q2323.94 1549.52 2318.13 1549.52 Q2312.32 1549.52 2309.24 1544.94 Q2306.19 1540.33 2306.19 1531.6 Q2306.19 1522.85 2309.24 1518.27 Q2312.32 1513.66 2318.13 1513.66 Z" fill="#000000" fill-rule="nonzero" fill-opacity="1" /><polyline clip-path="url(#clip470)" style="stroke:#000000; stroke-linecap:round; stroke-linejoin:round; stroke-width:4; stroke-opacity:1; fill:none" points="336.463,1486.45 336.463,47.2441 "/>
<polyline clip-path="url(#clip470)" style="stroke:#000000; stroke-linecap:round; stroke-linejoin:round; stroke-width:4; stroke-opacity:1; fill:none" points="336.463,1314.14 355.36,1314.14 "/>
<polyline clip-path="url(#clip470)" style="stroke:#000000; stroke-linecap:round; stroke-linejoin:round; stroke-width:4; stroke-opacity:1; fill:none" points="336.463,1096.82 355.36,1096.82 "/>
<polyline clip-path="url(#clip470)" style="stroke:#000000; stroke-linecap:round; stroke-linejoin:round; stroke-width:4; stroke-opacity:1; fill:none" points="336.463,879.487 355.36,879.487 "/>
<polyline clip-path="url(#clip470)" style="stroke:#000000; stroke-linecap:round; stroke-linejoin:round; stroke-width:4; stroke-opacity:1; fill:none" points="336.463,662.159 355.36,662.159 "/>
<polyline clip-path="url(#clip470)" style="stroke:#000000; stroke-linecap:round; stroke-linejoin:round; stroke-width:4; stroke-opacity:1; fill:none" points="336.463,444.83 355.36,444.83 "/>
<polyline clip-path="url(#clip470)" style="stroke:#000000; stroke-linecap:round; stroke-linejoin:round; stroke-width:4; stroke-opacity:1; fill:none" points="336.463,227.501 355.36,227.501 "/>
<path clip-path="url(#clip470)" d="M54.5569 1333.94 L62.1958 1333.94 L62.1958 1307.57 L53.8856 1309.24 L53.8856 1304.98 L62.1495 1303.31 L66.8254 1303.31 L66.8254 1333.94 L74.4642 1333.94 L74.4642 1337.87 L54.5569 1337.87 L54.5569 1333.94 Z" fill="#000000" fill-rule="nonzero" fill-opacity="1" /><path clip-path="url(#clip470)" d="M83.9086 1331.99 L88.7928 1331.99 L88.7928 1337.87 L83.9086 1337.87 L83.9086 1331.99 Z" fill="#000000" fill-rule="nonzero" fill-opacity="1" /><path clip-path="url(#clip470)" d="M99.0243 1303.31 L117.381 1303.31 L117.381 1307.25 L103.307 1307.25 L103.307 1315.72 Q104.325 1315.37 105.344 1315.21 Q106.362 1315.03 107.381 1315.03 Q113.168 1315.03 116.547 1318.2 Q119.927 1321.37 119.927 1326.78 Q119.927 1332.36 116.455 1335.47 Q112.983 1338.54 106.663 1338.54 Q104.487 1338.54 102.219 1338.17 Q99.9733 1337.8 97.566 1337.06 L97.566 1332.36 Q99.6493 1333.5 101.871 1334.05 Q104.094 1334.61 106.571 1334.61 Q110.575 1334.61 112.913 1332.5 Q115.251 1330.4 115.251 1326.78 Q115.251 1323.17 112.913 1321.07 Q110.575 1318.96 106.571 1318.96 Q104.696 1318.96 102.821 1319.38 Q100.969 1319.79 99.0243 1320.67 L99.0243 1303.31 Z" fill="#000000" fill-rule="nonzero" fill-opacity="1" /><path clip-path="url(#clip470)" d="M139.14 1306.39 Q135.529 1306.39 133.7 1309.96 Q131.894 1313.5 131.894 1320.63 Q131.894 1327.73 133.7 1331.3 Q135.529 1334.84 139.14 1334.84 Q142.774 1334.84 144.58 1331.3 Q146.408 1327.73 146.408 1320.63 Q146.408 1313.5 144.58 1309.96 Q142.774 1306.39 139.14 1306.39 M139.14 1302.69 Q144.95 1302.69 148.005 1307.29 Q151.084 1311.88 151.084 1320.63 Q151.084 1329.35 148.005 1333.96 Q144.95 1338.54 139.14 1338.54 Q133.33 1338.54 130.251 1333.96 Q127.195 1329.35 127.195 1320.63 Q127.195 1311.88 130.251 1307.29 Q133.33 1302.69 139.14 1302.69 Z" fill="#000000" fill-rule="nonzero" fill-opacity="1" /><path clip-path="url(#clip470)" d="M187.473 1312.41 L176.894 1323.03 L187.473 1333.61 L184.718 1336.41 L174.093 1325.79 L163.468 1336.41 L160.737 1333.61 L171.292 1323.03 L160.737 1312.41 L163.468 1309.61 L174.093 1320.23 L184.718 1309.61 L187.473 1312.41 Z" fill="#000000" fill-rule="nonzero" fill-opacity="1" /><path clip-path="url(#clip470)" d="M199.834 1333.94 L207.473 1333.94 L207.473 1307.57 L199.163 1309.24 L199.163 1304.98 L207.426 1303.31 L212.102 1303.31 L212.102 1333.94 L219.741 1333.94 L219.741 1337.87 L199.834 1337.87 L199.834 1333.94 Z" fill="#000000" fill-rule="nonzero" fill-opacity="1" /><path clip-path="url(#clip470)" d="M239.186 1306.39 Q235.574 1306.39 233.746 1309.96 Q231.94 1313.5 231.94 1320.63 Q231.94 1327.73 233.746 1331.3 Q235.574 1334.84 239.186 1334.84 Q242.82 1334.84 244.625 1331.3 Q246.454 1327.73 246.454 1320.63 Q246.454 1313.5 244.625 1309.96 Q242.82 1306.39 239.186 1306.39 M239.186 1302.69 Q244.996 1302.69 248.051 1307.29 Q251.13 1311.88 251.13 1320.63 Q251.13 1329.35 248.051 1333.96 Q244.996 1338.54 239.186 1338.54 Q233.375 1338.54 230.297 1333.96 Q227.241 1329.35 227.241 1320.63 Q227.241 1311.88 230.297 1307.29 Q233.375 1302.69 239.186 1302.69 Z" fill="#000000" fill-rule="nonzero" fill-opacity="1" /><path clip-path="url(#clip470)" d="M251.13 1296.79 L275.242 1296.79 L275.242 1299.99 L251.13 1299.99 L251.13 1296.79 Z" fill="#000000" fill-rule="nonzero" fill-opacity="1" /><path clip-path="url(#clip470)" d="M283.479 1282.38 L298.394 1282.38 L298.394 1285.58 L286.959 1285.58 L286.959 1292.46 Q287.786 1292.18 288.614 1292.05 Q289.441 1291.9 290.269 1291.9 Q294.971 1291.9 297.717 1294.48 Q300.463 1297.05 300.463 1301.45 Q300.463 1305.99 297.642 1308.51 Q294.82 1311.01 289.686 1311.01 Q287.918 1311.01 286.075 1310.71 Q284.25 1310.41 282.294 1309.8 L282.294 1305.99 Q283.987 1306.91 285.793 1307.36 Q287.598 1307.81 289.611 1307.81 Q292.864 1307.81 294.764 1306.1 Q296.664 1304.39 296.664 1301.45 Q296.664 1298.52 294.764 1296.81 Q292.864 1295.1 289.611 1295.1 Q288.087 1295.1 286.564 1295.43 Q285.059 1295.77 283.479 1296.49 L283.479 1282.38 Z" fill="#000000" fill-rule="nonzero" fill-opacity="1" /><path clip-path="url(#clip470)" d="M57.7745 1116.61 L74.0939 1116.61 L74.0939 1120.54 L52.1495 1120.54 L52.1495 1116.61 Q54.8115 1113.85 59.3949 1109.22 Q64.0013 1104.57 65.1819 1103.23 Q67.4272 1100.71 68.3068 1098.97 Q69.2096 1097.21 69.2096 1095.52 Q69.2096 1092.77 67.2652 1091.03 Q65.3439 1089.29 62.2421 1089.29 Q60.043 1089.29 57.5893 1090.06 Q55.1588 1090.82 52.381 1092.37 L52.381 1087.65 Q55.2051 1086.52 57.6588 1085.94 Q60.1124 1085.36 62.1495 1085.36 Q67.5198 1085.36 70.7142 1088.04 Q73.9087 1090.73 73.9087 1095.22 Q73.9087 1097.35 73.0985 1099.27 Q72.3115 1101.17 70.205 1103.76 Q69.6263 1104.43 66.5245 1107.65 Q63.4226 1110.84 57.7745 1116.61 Z" fill="#000000" fill-rule="nonzero" fill-opacity="1" /><path clip-path="url(#clip470)" d="M83.9086 1114.66 L88.7928 1114.66 L88.7928 1120.54 L83.9086 1120.54 L83.9086 1114.66 Z" fill="#000000" fill-rule="nonzero" fill-opacity="1" /><path clip-path="url(#clip470)" d="M108.978 1089.06 Q105.367 1089.06 103.538 1092.63 Q101.733 1096.17 101.733 1103.3 Q101.733 1110.4 103.538 1113.97 Q105.367 1117.51 108.978 1117.51 Q112.612 1117.51 114.418 1113.97 Q116.246 1110.4 116.246 1103.3 Q116.246 1096.17 114.418 1092.63 Q112.612 1089.06 108.978 1089.06 M108.978 1085.36 Q114.788 1085.36 117.844 1089.97 Q120.922 1094.55 120.922 1103.3 Q120.922 1112.03 117.844 1116.63 Q114.788 1121.22 108.978 1121.22 Q103.168 1121.22 100.089 1116.63 Q97.0335 1112.03 97.0335 1103.3 Q97.0335 1094.55 100.089 1089.97 Q103.168 1085.36 108.978 1085.36 Z" fill="#000000" fill-rule="nonzero" fill-opacity="1" /><path clip-path="url(#clip470)" d="M139.14 1089.06 Q135.529 1089.06 133.7 1092.63 Q131.894 1096.17 131.894 1103.3 Q131.894 1110.4 133.7 1113.97 Q135.529 1117.51 139.14 1117.51 Q142.774 1117.51 144.58 1113.97 Q146.408 1110.4 146.408 1103.3 Q146.408 1096.17 144.58 1092.63 Q142.774 1089.06 139.14 1089.06 M139.14 1085.36 Q144.95 1085.36 148.005 1089.97 Q151.084 1094.55 151.084 1103.3 Q151.084 1112.03 148.005 1116.63 Q144.95 1121.22 139.14 1121.22 Q133.33 1121.22 130.251 1116.63 Q127.195 1112.03 127.195 1103.3 Q127.195 1094.55 130.251 1089.97 Q133.33 1085.36 139.14 1085.36 Z" fill="#000000" fill-rule="nonzero" fill-opacity="1" /><path clip-path="url(#clip470)" d="M187.473 1095.08 L176.894 1105.71 L187.473 1116.28 L184.718 1119.09 L174.093 1108.46 L163.468 1119.09 L160.737 1116.28 L171.292 1105.71 L160.737 1095.08 L163.468 1092.28 L174.093 1102.9 L184.718 1092.28 L187.473 1095.08 Z" fill="#000000" fill-rule="nonzero" fill-opacity="1" /><path clip-path="url(#clip470)" d="M199.834 1116.61 L207.473 1116.61 L207.473 1090.24 L199.163 1091.91 L199.163 1087.65 L207.426 1085.98 L212.102 1085.98 L212.102 1116.61 L219.741 1116.61 L219.741 1120.54 L199.834 1120.54 L199.834 1116.61 Z" fill="#000000" fill-rule="nonzero" fill-opacity="1" /><path clip-path="url(#clip470)" d="M239.186 1089.06 Q235.574 1089.06 233.746 1092.63 Q231.94 1096.17 231.94 1103.3 Q231.94 1110.4 233.746 1113.97 Q235.574 1117.51 239.186 1117.51 Q242.82 1117.51 244.625 1113.97 Q246.454 1110.4 246.454 1103.3 Q246.454 1096.17 244.625 1092.63 Q242.82 1089.06 239.186 1089.06 M239.186 1085.36 Q244.996 1085.36 248.051 1089.97 Q251.13 1094.55 251.13 1103.3 Q251.13 1112.03 248.051 1116.63 Q244.996 1121.22 239.186 1121.22 Q233.375 1121.22 230.297 1116.63 Q227.241 1112.03 227.241 1103.3 Q227.241 1094.55 230.297 1089.97 Q233.375 1085.36 239.186 1085.36 Z" fill="#000000" fill-rule="nonzero" fill-opacity="1" /><path clip-path="url(#clip470)" d="M251.13 1079.46 L275.242 1079.46 L275.242 1082.66 L251.13 1082.66 L251.13 1079.46 Z" fill="#000000" fill-rule="nonzero" fill-opacity="1" /><path clip-path="url(#clip470)" d="M283.479 1065.05 L298.394 1065.05 L298.394 1068.25 L286.959 1068.25 L286.959 1075.13 Q287.786 1074.85 288.614 1074.72 Q289.441 1074.57 290.269 1074.57 Q294.971 1074.57 297.717 1077.15 Q300.463 1079.72 300.463 1084.12 Q300.463 1088.66 297.642 1091.18 Q294.82 1093.68 289.686 1093.68 Q287.918 1093.68 286.075 1093.38 Q284.25 1093.08 282.294 1092.48 L282.294 1088.66 Q283.987 1089.58 285.793 1090.03 Q287.598 1090.48 289.611 1090.48 Q292.864 1090.48 294.764 1088.77 Q296.664 1087.06 296.664 1084.12 Q296.664 1081.19 294.764 1079.48 Q292.864 1077.77 289.611 1077.77 Q288.087 1077.77 286.564 1078.11 Q285.059 1078.44 283.479 1079.16 L283.479 1065.05 Z" fill="#000000" fill-rule="nonzero" fill-opacity="1" /><path clip-path="url(#clip470)" d="M57.7745 899.28 L74.0939 899.28 L74.0939 903.215 L52.1495 903.215 L52.1495 899.28 Q54.8115 896.525 59.3949 891.896 Q64.0013 887.243 65.1819 885.9 Q67.4272 883.377 68.3068 881.641 Q69.2096 879.882 69.2096 878.192 Q69.2096 875.437 67.2652 873.701 Q65.3439 871.965 62.2421 871.965 Q60.043 871.965 57.5893 872.729 Q55.1588 873.493 52.381 875.044 L52.381 870.322 Q55.2051 869.187 57.6588 868.609 Q60.1124 868.03 62.1495 868.03 Q67.5198 868.03 70.7142 870.715 Q73.9087 873.4 73.9087 877.891 Q73.9087 880.021 73.0985 881.942 Q72.3115 883.84 70.205 886.433 Q69.6263 887.104 66.5245 890.322 Q63.4226 893.516 57.7745 899.28 Z" fill="#000000" fill-rule="nonzero" fill-opacity="1" /><path clip-path="url(#clip470)" d="M83.9086 897.335 L88.7928 897.335 L88.7928 903.215 L83.9086 903.215 L83.9086 897.335 Z" fill="#000000" fill-rule="nonzero" fill-opacity="1" /><path clip-path="url(#clip470)" d="M99.0243 868.655 L117.381 868.655 L117.381 872.59 L103.307 872.59 L103.307 881.062 Q104.325 880.715 105.344 880.553 Q106.362 880.368 107.381 880.368 Q113.168 880.368 116.547 883.539 Q119.927 886.711 119.927 892.127 Q119.927 897.706 116.455 900.808 Q112.983 903.886 106.663 903.886 Q104.487 903.886 102.219 903.516 Q99.9733 903.146 97.566 902.405 L97.566 897.706 Q99.6493 898.84 101.871 899.396 Q104.094 899.951 106.571 899.951 Q110.575 899.951 112.913 897.845 Q115.251 895.738 115.251 892.127 Q115.251 888.516 112.913 886.41 Q110.575 884.303 106.571 884.303 Q104.696 884.303 102.821 884.72 Q100.969 885.136 99.0243 886.016 L99.0243 868.655 Z" fill="#000000" fill-rule="nonzero" fill-opacity="1" /><path clip-path="url(#clip470)" d="M139.14 871.734 Q135.529 871.734 133.7 875.299 Q131.894 878.84 131.894 885.97 Q131.894 893.076 133.7 896.641 Q135.529 900.183 139.14 900.183 Q142.774 900.183 144.58 896.641 Q146.408 893.076 146.408 885.97 Q146.408 878.84 144.58 875.299 Q142.774 871.734 139.14 871.734 M139.14 868.03 Q144.95 868.03 148.005 872.637 Q151.084 877.22 151.084 885.97 Q151.084 894.697 148.005 899.303 Q144.95 903.886 139.14 903.886 Q133.33 903.886 130.251 899.303 Q127.195 894.697 127.195 885.97 Q127.195 877.22 130.251 872.637 Q133.33 868.03 139.14 868.03 Z" fill="#000000" fill-rule="nonzero" fill-opacity="1" /><path clip-path="url(#clip470)" d="M187.473 877.752 L176.894 888.377 L187.473 898.956 L184.718 901.757 L174.093 891.132 L163.468 901.757 L160.737 898.956 L171.292 888.377 L160.737 877.752 L163.468 874.951 L174.093 885.576 L184.718 874.951 L187.473 877.752 Z" fill="#000000" fill-rule="nonzero" fill-opacity="1" /><path clip-path="url(#clip470)" d="M199.834 899.28 L207.473 899.28 L207.473 872.914 L199.163 874.581 L199.163 870.322 L207.426 868.655 L212.102 868.655 L212.102 899.28 L219.741 899.28 L219.741 903.215 L199.834 903.215 L199.834 899.28 Z" fill="#000000" fill-rule="nonzero" fill-opacity="1" /><path clip-path="url(#clip470)" d="M239.186 871.734 Q235.574 871.734 233.746 875.299 Q231.94 878.84 231.94 885.97 Q231.94 893.076 233.746 896.641 Q235.574 900.183 239.186 900.183 Q242.82 900.183 244.625 896.641 Q246.454 893.076 246.454 885.97 Q246.454 878.84 244.625 875.299 Q242.82 871.734 239.186 871.734 M239.186 868.03 Q244.996 868.03 248.051 872.637 Q251.13 877.22 251.13 885.97 Q251.13 894.697 248.051 899.303 Q244.996 903.886 239.186 903.886 Q233.375 903.886 230.297 899.303 Q227.241 894.697 227.241 885.97 Q227.241 877.22 230.297 872.637 Q233.375 868.03 239.186 868.03 Z" fill="#000000" fill-rule="nonzero" fill-opacity="1" /><path clip-path="url(#clip470)" d="M251.13 862.131 L275.242 862.131 L275.242 865.329 L251.13 865.329 L251.13 862.131 Z" fill="#000000" fill-rule="nonzero" fill-opacity="1" /><path clip-path="url(#clip470)" d="M283.479 847.725 L298.394 847.725 L298.394 850.922 L286.959 850.922 L286.959 857.806 Q287.786 857.524 288.614 857.392 Q289.441 857.241 290.269 857.241 Q294.971 857.241 297.717 859.818 Q300.463 862.395 300.463 866.796 Q300.463 871.328 297.642 873.849 Q294.82 876.35 289.686 876.35 Q287.918 876.35 286.075 876.049 Q284.25 875.748 282.294 875.146 L282.294 871.328 Q283.987 872.25 285.793 872.701 Q287.598 873.153 289.611 873.153 Q292.864 873.153 294.764 871.441 Q296.664 869.73 296.664 866.796 Q296.664 863.862 294.764 862.15 Q292.864 860.439 289.611 860.439 Q288.087 860.439 286.564 860.777 Q285.059 861.116 283.479 861.83 L283.479 847.725 Z" fill="#000000" fill-rule="nonzero" fill-opacity="1" /><path clip-path="url(#clip470)" d="M67.9133 667.252 Q71.2698 667.97 73.1448 670.238 Q75.0429 672.507 75.0429 675.84 Q75.0429 680.956 71.5244 683.757 Q68.0059 686.558 61.5245 686.558 Q59.3486 686.558 57.0338 686.118 Q54.7421 685.701 52.2884 684.845 L52.2884 680.331 Q54.2328 681.465 56.5477 682.044 Q58.8625 682.622 61.3856 682.622 Q65.7837 682.622 68.0754 680.886 Q70.3902 679.15 70.3902 675.84 Q70.3902 672.785 68.2374 671.072 Q66.1078 669.336 62.2884 669.336 L58.2606 669.336 L58.2606 665.493 L62.4735 665.493 Q65.9226 665.493 67.7513 664.127 Q69.58 662.738 69.58 660.146 Q69.58 657.484 67.6819 656.072 Q65.8069 654.637 62.2884 654.637 Q60.3671 654.637 58.168 655.053 Q55.969 655.47 53.3301 656.349 L53.3301 652.183 Q55.9921 651.442 58.3069 651.072 Q60.6449 650.701 62.705 650.701 Q68.0291 650.701 71.1309 653.132 Q74.2327 655.539 74.2327 659.66 Q74.2327 662.53 72.5892 664.521 Q70.9457 666.488 67.9133 667.252 Z" fill="#000000" fill-rule="nonzero" fill-opacity="1" /><path clip-path="url(#clip470)" d="M83.9086 680.007 L88.7928 680.007 L88.7928 685.886 L83.9086 685.886 L83.9086 680.007 Z" fill="#000000" fill-rule="nonzero" fill-opacity="1" /><path clip-path="url(#clip470)" d="M108.978 654.405 Q105.367 654.405 103.538 657.97 Q101.733 661.511 101.733 668.641 Q101.733 675.748 103.538 679.312 Q105.367 682.854 108.978 682.854 Q112.612 682.854 114.418 679.312 Q116.246 675.748 116.246 668.641 Q116.246 661.511 114.418 657.97 Q112.612 654.405 108.978 654.405 M108.978 650.701 Q114.788 650.701 117.844 655.308 Q120.922 659.891 120.922 668.641 Q120.922 677.368 117.844 681.974 Q114.788 686.558 108.978 686.558 Q103.168 686.558 100.089 681.974 Q97.0335 677.368 97.0335 668.641 Q97.0335 659.891 100.089 655.308 Q103.168 650.701 108.978 650.701 Z" fill="#000000" fill-rule="nonzero" fill-opacity="1" /><path clip-path="url(#clip470)" d="M139.14 654.405 Q135.529 654.405 133.7 657.97 Q131.894 661.511 131.894 668.641 Q131.894 675.748 133.7 679.312 Q135.529 682.854 139.14 682.854 Q142.774 682.854 144.58 679.312 Q146.408 675.748 146.408 668.641 Q146.408 661.511 144.58 657.97 Q142.774 654.405 139.14 654.405 M139.14 650.701 Q144.95 650.701 148.005 655.308 Q151.084 659.891 151.084 668.641 Q151.084 677.368 148.005 681.974 Q144.95 686.558 139.14 686.558 Q133.33 686.558 130.251 681.974 Q127.195 677.368 127.195 668.641 Q127.195 659.891 130.251 655.308 Q133.33 650.701 139.14 650.701 Z" fill="#000000" fill-rule="nonzero" fill-opacity="1" /><path clip-path="url(#clip470)" d="M187.473 660.424 L176.894 671.048 L187.473 681.627 L184.718 684.428 L174.093 673.803 L163.468 684.428 L160.737 681.627 L171.292 671.048 L160.737 660.424 L163.468 657.623 L174.093 668.248 L184.718 657.623 L187.473 660.424 Z" fill="#000000" fill-rule="nonzero" fill-opacity="1" /><path clip-path="url(#clip470)" d="M199.834 681.951 L207.473 681.951 L207.473 655.586 L199.163 657.252 L199.163 652.993 L207.426 651.326 L212.102 651.326 L212.102 681.951 L219.741 681.951 L219.741 685.886 L199.834 685.886 L199.834 681.951 Z" fill="#000000" fill-rule="nonzero" fill-opacity="1" /><path clip-path="url(#clip470)" d="M239.186 654.405 Q235.574 654.405 233.746 657.97 Q231.94 661.511 231.94 668.641 Q231.94 675.748 233.746 679.312 Q235.574 682.854 239.186 682.854 Q242.82 682.854 244.625 679.312 Q246.454 675.748 246.454 668.641 Q246.454 661.511 244.625 657.97 Q242.82 654.405 239.186 654.405 M239.186 650.701 Q244.996 650.701 248.051 655.308 Q251.13 659.891 251.13 668.641 Q251.13 677.368 248.051 681.974 Q244.996 686.558 239.186 686.558 Q233.375 686.558 230.297 681.974 Q227.241 677.368 227.241 668.641 Q227.241 659.891 230.297 655.308 Q233.375 650.701 239.186 650.701 Z" fill="#000000" fill-rule="nonzero" fill-opacity="1" /><path clip-path="url(#clip470)" d="M251.13 644.803 L275.242 644.803 L275.242 648 L251.13 648 L251.13 644.803 Z" fill="#000000" fill-rule="nonzero" fill-opacity="1" /><path clip-path="url(#clip470)" d="M283.479 630.396 L298.394 630.396 L298.394 633.593 L286.959 633.593 L286.959 640.477 Q287.786 640.195 288.614 640.063 Q289.441 639.913 290.269 639.913 Q294.971 639.913 297.717 642.489 Q300.463 645.066 300.463 649.467 Q300.463 654 297.642 656.52 Q294.82 659.021 289.686 659.021 Q287.918 659.021 286.075 658.72 Q284.25 658.42 282.294 657.818 L282.294 654 Q283.987 654.921 285.793 655.373 Q287.598 655.824 289.611 655.824 Q292.864 655.824 294.764 654.113 Q296.664 652.401 296.664 649.467 Q296.664 646.533 294.764 644.822 Q292.864 643.11 289.611 643.11 Q288.087 643.11 286.564 643.449 Q285.059 643.787 283.479 644.502 L283.479 630.396 Z" fill="#000000" fill-rule="nonzero" fill-opacity="1" /><path clip-path="url(#clip470)" d="M67.9133 449.923 Q71.2698 450.641 73.1448 452.91 Q75.0429 455.178 75.0429 458.511 Q75.0429 463.627 71.5244 466.428 Q68.0059 469.229 61.5245 469.229 Q59.3486 469.229 57.0338 468.789 Q54.7421 468.372 52.2884 467.516 L52.2884 463.002 Q54.2328 464.136 56.5477 464.715 Q58.8625 465.294 61.3856 465.294 Q65.7837 465.294 68.0754 463.558 Q70.3902 461.822 70.3902 458.511 Q70.3902 455.456 68.2374 453.743 Q66.1078 452.007 62.2884 452.007 L58.2606 452.007 L58.2606 448.164 L62.4735 448.164 Q65.9226 448.164 67.7513 446.798 Q69.58 445.41 69.58 442.817 Q69.58 440.155 67.6819 438.743 Q65.8069 437.308 62.2884 437.308 Q60.3671 437.308 58.168 437.724 Q55.969 438.141 53.3301 439.021 L53.3301 434.854 Q55.9921 434.113 58.3069 433.743 Q60.6449 433.373 62.705 433.373 Q68.0291 433.373 71.1309 435.803 Q74.2327 438.211 74.2327 442.331 Q74.2327 445.201 72.5892 447.192 Q70.9457 449.16 67.9133 449.923 Z" fill="#000000" fill-rule="nonzero" fill-opacity="1" /><path clip-path="url(#clip470)" d="M83.9086 462.678 L88.7928 462.678 L88.7928 468.558 L83.9086 468.558 L83.9086 462.678 Z" fill="#000000" fill-rule="nonzero" fill-opacity="1" /><path clip-path="url(#clip470)" d="M99.0243 433.998 L117.381 433.998 L117.381 437.933 L103.307 437.933 L103.307 446.405 Q104.325 446.058 105.344 445.896 Q106.362 445.711 107.381 445.711 Q113.168 445.711 116.547 448.882 Q119.927 452.053 119.927 457.47 Q119.927 463.048 116.455 466.15 Q112.983 469.229 106.663 469.229 Q104.487 469.229 102.219 468.859 Q99.9733 468.488 97.566 467.747 L97.566 463.048 Q99.6493 464.183 101.871 464.738 Q104.094 465.294 106.571 465.294 Q110.575 465.294 112.913 463.187 Q115.251 461.081 115.251 457.47 Q115.251 453.859 112.913 451.752 Q110.575 449.646 106.571 449.646 Q104.696 449.646 102.821 450.062 Q100.969 450.479 99.0243 451.359 L99.0243 433.998 Z" fill="#000000" fill-rule="nonzero" fill-opacity="1" /><path clip-path="url(#clip470)" d="M139.14 437.076 Q135.529 437.076 133.7 440.641 Q131.894 444.183 131.894 451.312 Q131.894 458.419 133.7 461.984 Q135.529 465.525 139.14 465.525 Q142.774 465.525 144.58 461.984 Q146.408 458.419 146.408 451.312 Q146.408 444.183 144.58 440.641 Q142.774 437.076 139.14 437.076 M139.14 433.373 Q144.95 433.373 148.005 437.979 Q151.084 442.562 151.084 451.312 Q151.084 460.039 148.005 464.646 Q144.95 469.229 139.14 469.229 Q133.33 469.229 130.251 464.646 Q127.195 460.039 127.195 451.312 Q127.195 442.562 130.251 437.979 Q133.33 433.373 139.14 433.373 Z" fill="#000000" fill-rule="nonzero" fill-opacity="1" /><path clip-path="url(#clip470)" d="M187.473 443.095 L176.894 453.72 L187.473 464.298 L184.718 467.099 L174.093 456.474 L163.468 467.099 L160.737 464.298 L171.292 453.72 L160.737 443.095 L163.468 440.294 L174.093 450.919 L184.718 440.294 L187.473 443.095 Z" fill="#000000" fill-rule="nonzero" fill-opacity="1" /><path clip-path="url(#clip470)" d="M199.834 464.622 L207.473 464.622 L207.473 438.257 L199.163 439.924 L199.163 435.664 L207.426 433.998 L212.102 433.998 L212.102 464.622 L219.741 464.622 L219.741 468.558 L199.834 468.558 L199.834 464.622 Z" fill="#000000" fill-rule="nonzero" fill-opacity="1" /><path clip-path="url(#clip470)" d="M239.186 437.076 Q235.574 437.076 233.746 440.641 Q231.94 444.183 231.94 451.312 Q231.94 458.419 233.746 461.984 Q235.574 465.525 239.186 465.525 Q242.82 465.525 244.625 461.984 Q246.454 458.419 246.454 451.312 Q246.454 444.183 244.625 440.641 Q242.82 437.076 239.186 437.076 M239.186 433.373 Q244.996 433.373 248.051 437.979 Q251.13 442.562 251.13 451.312 Q251.13 460.039 248.051 464.646 Q244.996 469.229 239.186 469.229 Q233.375 469.229 230.297 464.646 Q227.241 460.039 227.241 451.312 Q227.241 442.562 230.297 437.979 Q233.375 433.373 239.186 433.373 Z" fill="#000000" fill-rule="nonzero" fill-opacity="1" /><path clip-path="url(#clip470)" d="M251.13 427.474 L275.242 427.474 L275.242 430.671 L251.13 430.671 L251.13 427.474 Z" fill="#000000" fill-rule="nonzero" fill-opacity="1" /><path clip-path="url(#clip470)" d="M283.479 413.067 L298.394 413.067 L298.394 416.265 L286.959 416.265 L286.959 423.148 Q287.786 422.866 288.614 422.734 Q289.441 422.584 290.269 422.584 Q294.971 422.584 297.717 425.161 Q300.463 427.737 300.463 432.138 Q300.463 436.671 297.642 439.191 Q294.82 441.693 289.686 441.693 Q287.918 441.693 286.075 441.392 Q284.25 441.091 282.294 440.489 L282.294 436.671 Q283.987 437.593 285.793 438.044 Q287.598 438.495 289.611 438.495 Q292.864 438.495 294.764 436.784 Q296.664 435.072 296.664 432.138 Q296.664 429.204 294.764 427.493 Q292.864 425.781 289.611 425.781 Q288.087 425.781 286.564 426.12 Q285.059 426.458 283.479 427.173 L283.479 413.067 Z" fill="#000000" fill-rule="nonzero" fill-opacity="1" /><path clip-path="url(#clip470)" d="M66.5939 220.743 L54.7884 239.192 L66.5939 239.192 L66.5939 220.743 M65.367 216.669 L71.2466 216.669 L71.2466 239.192 L76.1772 239.192 L76.1772 243.081 L71.2466 243.081 L71.2466 251.229 L66.5939 251.229 L66.5939 243.081 L50.9921 243.081 L50.9921 238.567 L65.367 216.669 Z" fill="#000000" fill-rule="nonzero" fill-opacity="1" /><path clip-path="url(#clip470)" d="M83.9086 245.349 L88.7928 245.349 L88.7928 251.229 L83.9086 251.229 L83.9086 245.349 Z" fill="#000000" fill-rule="nonzero" fill-opacity="1" /><path clip-path="url(#clip470)" d="M108.978 219.748 Q105.367 219.748 103.538 223.312 Q101.733 226.854 101.733 233.984 Q101.733 241.09 103.538 244.655 Q105.367 248.197 108.978 248.197 Q112.612 248.197 114.418 244.655 Q116.246 241.09 116.246 233.984 Q116.246 226.854 114.418 223.312 Q112.612 219.748 108.978 219.748 M108.978 216.044 Q114.788 216.044 117.844 220.65 Q120.922 225.234 120.922 233.984 Q120.922 242.71 117.844 247.317 Q114.788 251.9 108.978 251.9 Q103.168 251.9 100.089 247.317 Q97.0335 242.71 97.0335 233.984 Q97.0335 225.234 100.089 220.65 Q103.168 216.044 108.978 216.044 Z" fill="#000000" fill-rule="nonzero" fill-opacity="1" /><path clip-path="url(#clip470)" d="M139.14 219.748 Q135.529 219.748 133.7 223.312 Q131.894 226.854 131.894 233.984 Q131.894 241.09 133.7 244.655 Q135.529 248.197 139.14 248.197 Q142.774 248.197 144.58 244.655 Q146.408 241.09 146.408 233.984 Q146.408 226.854 144.58 223.312 Q142.774 219.748 139.14 219.748 M139.14 216.044 Q144.95 216.044 148.005 220.65 Q151.084 225.234 151.084 233.984 Q151.084 242.71 148.005 247.317 Q144.95 251.9 139.14 251.9 Q133.33 251.9 130.251 247.317 Q127.195 242.71 127.195 233.984 Q127.195 225.234 130.251 220.65 Q133.33 216.044 139.14 216.044 Z" fill="#000000" fill-rule="nonzero" fill-opacity="1" /><path clip-path="url(#clip470)" d="M187.473 225.766 L176.894 236.391 L187.473 246.97 L184.718 249.771 L174.093 239.146 L163.468 249.771 L160.737 246.97 L171.292 236.391 L160.737 225.766 L163.468 222.965 L174.093 233.59 L184.718 222.965 L187.473 225.766 Z" fill="#000000" fill-rule="nonzero" fill-opacity="1" /><path clip-path="url(#clip470)" d="M199.834 247.294 L207.473 247.294 L207.473 220.928 L199.163 222.595 L199.163 218.336 L207.426 216.669 L212.102 216.669 L212.102 247.294 L219.741 247.294 L219.741 251.229 L199.834 251.229 L199.834 247.294 Z" fill="#000000" fill-rule="nonzero" fill-opacity="1" /><path clip-path="url(#clip470)" d="M239.186 219.748 Q235.574 219.748 233.746 223.312 Q231.94 226.854 231.94 233.984 Q231.94 241.09 233.746 244.655 Q235.574 248.197 239.186 248.197 Q242.82 248.197 244.625 244.655 Q246.454 241.09 246.454 233.984 Q246.454 226.854 244.625 223.312 Q242.82 219.748 239.186 219.748 M239.186 216.044 Q244.996 216.044 248.051 220.65 Q251.13 225.234 251.13 233.984 Q251.13 242.71 248.051 247.317 Q244.996 251.9 239.186 251.9 Q233.375 251.9 230.297 247.317 Q227.241 242.71 227.241 233.984 Q227.241 225.234 230.297 220.65 Q233.375 216.044 239.186 216.044 Z" fill="#000000" fill-rule="nonzero" fill-opacity="1" /><path clip-path="url(#clip470)" d="M251.13 210.145 L275.242 210.145 L275.242 213.343 L251.13 213.343 L251.13 210.145 Z" fill="#000000" fill-rule="nonzero" fill-opacity="1" /><path clip-path="url(#clip470)" d="M283.479 195.739 L298.394 195.739 L298.394 198.936 L286.959 198.936 L286.959 205.819 Q287.786 205.537 288.614 205.406 Q289.441 205.255 290.269 205.255 Q294.971 205.255 297.717 207.832 Q300.463 210.409 300.463 214.81 Q300.463 219.342 297.642 221.863 Q294.82 224.364 289.686 224.364 Q287.918 224.364 286.075 224.063 Q284.25 223.762 282.294 223.16 L282.294 219.342 Q283.987 220.264 285.793 220.715 Q287.598 221.167 289.611 221.167 Q292.864 221.167 294.764 219.455 Q296.664 217.744 296.664 214.81 Q296.664 211.876 294.764 210.164 Q292.864 208.453 289.611 208.453 Q288.087 208.453 286.564 208.791 Q285.059 209.13 283.479 209.844 L283.479 195.739 Z" fill="#000000" fill-rule="nonzero" fill-opacity="1" /><polyline clip-path="url(#clip472)" style="stroke:#009af9; stroke-linecap:round; stroke-linejoin:round; stroke-width:4; stroke-opacity:1; fill:none" points="393.528,1445.72 1344.61,915.216 2295.69,87.9763 "/>
<path clip-path="url(#clip470)" d="M403.672 198.898 L657.732 198.898 L657.732 95.2176 L403.672 95.2176  Z" fill="#ffffff" fill-rule="evenodd" fill-opacity="1"/>
<polyline clip-path="url(#clip470)" style="stroke:#000000; stroke-linecap:round; stroke-linejoin:round; stroke-width:4; stroke-opacity:1; fill:none" points="403.672,198.898 657.732,198.898 657.732,95.2176 403.672,95.2176 403.672,198.898 "/>
<polyline clip-path="url(#clip470)" style="stroke:#009af9; stroke-linecap:round; stroke-linejoin:round; stroke-width:4; stroke-opacity:1; fill:none" points="426.076,147.058 560.495,147.058 "/>
<path clip-path="url(#clip470)" d="M596.741 166.745 Q594.936 171.375 593.223 172.787 Q591.51 174.199 588.639 174.199 L585.237 174.199 L585.237 170.634 L587.736 170.634 Q589.496 170.634 590.468 169.8 Q591.44 168.967 592.621 165.865 L593.385 163.921 L582.899 138.412 L587.412 138.412 L595.514 158.689 L603.616 138.412 L608.13 138.412 L596.741 166.745 Z" fill="#000000" fill-rule="nonzero" fill-opacity="1" /><path clip-path="url(#clip470)" d="M615.422 160.402 L623.06 160.402 L623.06 134.037 L614.75 135.703 L614.75 131.444 L623.014 129.778 L627.69 129.778 L627.69 160.402 L635.329 160.402 L635.329 164.338 L615.422 164.338 L615.422 160.402 Z" fill="#000000" fill-rule="nonzero" fill-opacity="1" /></svg>
