<?xml version="1.0" encoding="utf-8"?>
<svg xmlns="http://www.w3.org/2000/svg" xmlns:xlink="http://www.w3.org/1999/xlink" width="600" height="400" viewBox="0 0 2400 1600">
<defs>
  <clipPath id="clip990">
    <rect x="0" y="0" width="2400" height="1600"/>
  </clipPath>
</defs>
<path clip-path="url(#clip990)" d="M0 1600 L2400 1600 L2400 0 L0 0  Z" fill="#ffffff" fill-rule="evenodd" fill-opacity="1"/>
<defs>
  <clipPath id="clip991">
    <rect x="480" y="0" width="1681" height="1600"/>
  </clipPath>
</defs>
<path clip-path="url(#clip990)" d="M205.121 1423.18 L2352.76 1423.18 L2352.76 123.472 L205.121 123.472  Z" fill="#ffffff" fill-rule="evenodd" fill-opacity="1"/>
<defs>
  <clipPath id="clip992">
    <rect x="205" y="123" width="2149" height="1301"/>
  </clipPath>
</defs>
<polyline clip-path="url(#clip992)" style="stroke:#000000; stroke-linecap:round; stroke-linejoin:round; stroke-width:2; stroke-opacity:0.05; fill:none" points="392.533,1423.18 392.533,123.472 "/>
<polyline clip-path="url(#clip992)" style="stroke:#000000; stroke-linecap:round; stroke-linejoin:round; stroke-width:2; stroke-opacity:0.05; fill:none" points="519.162,1423.18 519.162,123.472 "/>
<polyline clip-path="url(#clip992)" style="stroke:#000000; stroke-linecap:round; stroke-linejoin:round; stroke-width:2; stroke-opacity:0.05; fill:none" points="645.791,1423.18 645.791,123.472 "/>
<polyline clip-path="url(#clip992)" style="stroke:#000000; stroke-linecap:round; stroke-linejoin:round; stroke-width:2; stroke-opacity:0.05; fill:none" points="772.421,1423.18 772.421,123.472 "/>
<polyline clip-path="url(#clip992)" style="stroke:#000000; stroke-linecap:round; stroke-linejoin:round; stroke-width:2; stroke-opacity:0.05; fill:none" points="1025.68,1423.18 1025.68,123.472 "/>
<polyline clip-path="url(#clip992)" style="stroke:#000000; stroke-linecap:round; stroke-linejoin:round; stroke-width:2; stroke-opacity:0.05; fill:none" points="1152.31,1423.18 1152.31,123.472 "/>
<polyline clip-path="url(#clip992)" style="stroke:#000000; stroke-linecap:round; stroke-linejoin:round; stroke-width:2; stroke-opacity:0.05; fill:none" points="1278.94,1423.18 1278.94,123.472 "/>
<polyline clip-path="url(#clip992)" style="stroke:#000000; stroke-linecap:round; stroke-linejoin:round; stroke-width:2; stroke-opacity:0.05; fill:none" points="1405.57,1423.18 1405.57,123.472 "/>
<polyline clip-path="url(#clip992)" style="stroke:#000000; stroke-linecap:round; stroke-linejoin:round; stroke-width:2; stroke-opacity:0.05; fill:none" points="1658.83,1423.18 1658.83,123.472 "/>
<polyline clip-path="url(#clip992)" style="stroke:#000000; stroke-linecap:round; stroke-linejoin:round; stroke-width:2; stroke-opacity:0.05; fill:none" points="1785.46,1423.18 1785.46,123.472 "/>
<polyline clip-path="url(#clip992)" style="stroke:#000000; stroke-linecap:round; stroke-linejoin:round; stroke-width:2; stroke-opacity:0.05; fill:none" points="1912.09,1423.18 1912.09,123.472 "/>
<polyline clip-path="url(#clip992)" style="stroke:#000000; stroke-linecap:round; stroke-linejoin:round; stroke-width:2; stroke-opacity:0.05; fill:none" points="2038.71,1423.18 2038.71,123.472 "/>
<polyline clip-path="url(#clip992)" style="stroke:#000000; stroke-linecap:round; stroke-linejoin:round; stroke-width:2; stroke-opacity:0.05; fill:none" points="2291.97,1423.18 2291.97,123.472 "/>
<polyline clip-path="url(#clip992)" style="stroke:#000000; stroke-linecap:round; stroke-linejoin:round; stroke-width:2; stroke-opacity:0.05; fill:none" points="205.121,1372.93 2352.76,1372.93 "/>
<polyline clip-path="url(#clip992)" style="stroke:#000000; stroke-linecap:round; stroke-linejoin:round; stroke-width:2; stroke-opacity:0.05; fill:none" points="205.121,1308.13 2352.76,1308.13 "/>
<polyline clip-path="url(#clip992)" style="stroke:#000000; stroke-linecap:round; stroke-linejoin:round; stroke-width:2; stroke-opacity:0.05; fill:none" points="205.121,1243.33 2352.76,1243.33 "/>
<polyline clip-path="url(#clip992)" style="stroke:#000000; stroke-linecap:round; stroke-linejoin:round; stroke-width:2; stroke-opacity:0.05; fill:none" points="205.121,1178.53 2352.76,1178.53 "/>
<polyline clip-path="url(#clip992)" style="stroke:#000000; stroke-linecap:round; stroke-linejoin:round; stroke-width:2; stroke-opacity:0.05; fill:none" points="205.121,1048.93 2352.76,1048.93 "/>
<polyline clip-path="url(#clip992)" style="stroke:#000000; stroke-linecap:round; stroke-linejoin:round; stroke-width:2; stroke-opacity:0.05; fill:none" points="205.121,984.125 2352.76,984.125 "/>
<polyline clip-path="url(#clip992)" style="stroke:#000000; stroke-linecap:round; stroke-linejoin:round; stroke-width:2; stroke-opacity:0.05; fill:none" points="205.121,919.323 2352.76,919.323 "/>
<polyline clip-path="url(#clip992)" style="stroke:#000000; stroke-linecap:round; stroke-linejoin:round; stroke-width:2; stroke-opacity:0.05; fill:none" points="205.121,854.522 2352.76,854.522 "/>
<polyline clip-path="url(#clip992)" style="stroke:#000000; stroke-linecap:round; stroke-linejoin:round; stroke-width:2; stroke-opacity:0.05; fill:none" points="205.121,724.919 2352.76,724.919 "/>
<polyline clip-path="url(#clip992)" style="stroke:#000000; stroke-linecap:round; stroke-linejoin:round; stroke-width:2; stroke-opacity:0.05; fill:none" points="205.121,660.118 2352.76,660.118 "/>
<polyline clip-path="url(#clip992)" style="stroke:#000000; stroke-linecap:round; stroke-linejoin:round; stroke-width:2; stroke-opacity:0.05; fill:none" points="205.121,595.317 2352.76,595.317 "/>
<polyline clip-path="url(#clip992)" style="stroke:#000000; stroke-linecap:round; stroke-linejoin:round; stroke-width:2; stroke-opacity:0.05; fill:none" points="205.121,530.515 2352.76,530.515 "/>
<polyline clip-path="url(#clip992)" style="stroke:#000000; stroke-linecap:round; stroke-linejoin:round; stroke-width:2; stroke-opacity:0.05; fill:none" points="205.121,400.912 2352.76,400.912 "/>
<polyline clip-path="url(#clip992)" style="stroke:#000000; stroke-linecap:round; stroke-linejoin:round; stroke-width:2; stroke-opacity:0.05; fill:none" points="205.121,336.111 2352.76,336.111 "/>
<polyline clip-path="url(#clip992)" style="stroke:#000000; stroke-linecap:round; stroke-linejoin:round; stroke-width:2; stroke-opacity:0.05; fill:none" points="205.121,271.31 2352.76,271.31 "/>
<polyline clip-path="url(#clip992)" style="stroke:#000000; stroke-linecap:round; stroke-linejoin:round; stroke-width:2; stroke-opacity:0.05; fill:none" points="205.121,206.508 2352.76,206.508 "/>
<polyline clip-path="url(#clip992)" style="stroke:#000000; stroke-linecap:round; stroke-linejoin:round; stroke-width:2; stroke-opacity:0.1; fill:none" points="265.903,1423.18 265.903,123.472 "/>
<polyline clip-path="url(#clip992)" style="stroke:#000000; stroke-linecap:round; stroke-linejoin:round; stroke-width:2; stroke-opacity:0.1; fill:none" points="899.05,1423.18 899.05,123.472 "/>
<polyline clip-path="url(#clip992)" style="stroke:#000000; stroke-linecap:round; stroke-linejoin:round; stroke-width:2; stroke-opacity:0.1; fill:none" points="1532.2,1423.18 1532.2,123.472 "/>
<polyline clip-path="url(#clip992)" style="stroke:#000000; stroke-linecap:round; stroke-linejoin:round; stroke-width:2; stroke-opacity:0.1; fill:none" points="2165.34,1423.18 2165.34,123.472 "/>
<polyline clip-path="url(#clip992)" style="stroke:#000000; stroke-linecap:round; stroke-linejoin:round; stroke-width:2; stroke-opacity:0.1; fill:none" points="205.121,1113.73 2352.76,1113.73 "/>
<polyline clip-path="url(#clip992)" style="stroke:#000000; stroke-linecap:round; stroke-linejoin:round; stroke-width:2; stroke-opacity:0.1; fill:none" points="205.121,789.721 2352.76,789.721 "/>
<polyline clip-path="url(#clip992)" style="stroke:#000000; stroke-linecap:round; stroke-linejoin:round; stroke-width:2; stroke-opacity:0.1; fill:none" points="205.121,465.714 2352.76,465.714 "/>
<polyline clip-path="url(#clip992)" style="stroke:#000000; stroke-linecap:round; stroke-linejoin:round; stroke-width:2; stroke-opacity:0.1; fill:none" points="205.121,141.707 2352.76,141.707 "/>
<polyline clip-path="url(#clip990)" style="stroke:#000000; stroke-linecap:round; stroke-linejoin:round; stroke-width:4; stroke-opacity:1; fill:none" points="205.121,1423.18 2352.76,1423.18 "/>
<polyline clip-path="url(#clip990)" style="stroke:#000000; stroke-linecap:round; stroke-linejoin:round; stroke-width:4; stroke-opacity:1; fill:none" points="265.903,1423.18 265.903,1404.28 "/>
<polyline clip-path="url(#clip990)" style="stroke:#000000; stroke-linecap:round; stroke-linejoin:round; stroke-width:4; stroke-opacity:1; fill:none" points="899.05,1423.18 899.05,1404.28 "/>
<polyline clip-path="url(#clip990)" style="stroke:#000000; stroke-linecap:round; stroke-linejoin:round; stroke-width:4; stroke-opacity:1; fill:none" points="1532.2,1423.18 1532.2,1404.28 "/>
<polyline clip-path="url(#clip990)" style="stroke:#000000; stroke-linecap:round; stroke-linejoin:round; stroke-width:4; stroke-opacity:1; fill:none" points="2165.34,1423.18 2165.34,1404.28 "/>
<polyline clip-path="url(#clip990)" style="stroke:#000000; stroke-linecap:round; stroke-linejoin:round; stroke-width:4; stroke-opacity:1; fill:none" points="392.533,1423.18 392.533,1413.73 "/>
<polyline clip-path="url(#clip990)" style="stroke:#000000; stroke-linecap:round; stroke-linejoin:round; stroke-width:4; stroke-opacity:1; fill:none" points="519.162,1423.18 519.162,1413.73 "/>
<polyline clip-path="url(#clip990)" style="stroke:#000000; stroke-linecap:round; stroke-linejoin:round; stroke-width:4; stroke-opacity:1; fill:none" points="645.791,1423.18 645.791,1413.73 "/>
<polyline clip-path="url(#clip990)" style="stroke:#000000; stroke-linecap:round; stroke-linejoin:round; stroke-width:4; stroke-opacity:1; fill:none" points="772.421,1423.18 772.421,1413.73 "/>
<polyline clip-path="url(#clip990)" style="stroke:#000000; stroke-linecap:round; stroke-linejoin:round; stroke-width:4; stroke-opacity:1; fill:none" points="1025.68,1423.18 1025.68,1413.73 "/>
<polyline clip-path="url(#clip990)" style="stroke:#000000; stroke-linecap:round; stroke-linejoin:round; stroke-width:4; stroke-opacity:1; fill:none" points="1152.31,1423.18 1152.31,1413.73 "/>
<polyline clip-path="url(#clip990)" style="stroke:#000000; stroke-linecap:round; stroke-linejoin:round; stroke-width:4; stroke-opacity:1; fill:none" points="1278.94,1423.18 1278.94,1413.73 "/>
<polyline clip-path="url(#clip990)" style="stroke:#000000; stroke-linecap:round; stroke-linejoin:round; stroke-width:4; stroke-opacity:1; fill:none" points="1405.57,1423.18 1405.57,1413.73 "/>
<polyline clip-path="url(#clip990)" style="stroke:#000000; stroke-linecap:round; stroke-linejoin:round; stroke-width:4; stroke-opacity:1; fill:none" points="1658.83,1423.18 1658.83,1413.73 "/>
<polyline clip-path="url(#clip990)" style="stroke:#000000; stroke-linecap:round; stroke-linejoin:round; stroke-width:4; stroke-opacity:1; fill:none" points="1785.46,1423.18 1785.46,1413.73 "/>
<polyline clip-path="url(#clip990)" style="stroke:#000000; stroke-linecap:round; stroke-linejoin:round; stroke-width:4; stroke-opacity:1; fill:none" points="1912.09,1423.18 1912.09,1413.73 "/>
<polyline clip-path="url(#clip990)" style="stroke:#000000; stroke-linecap:round; stroke-linejoin:round; stroke-width:4; stroke-opacity:1; fill:none" points="2038.71,1423.18 2038.71,1413.73 "/>
<polyline clip-path="url(#clip990)" style="stroke:#000000; stroke-linecap:round; stroke-linejoin:round; stroke-width:4; stroke-opacity:1; fill:none" points="2291.97,1423.18 2291.97,1413.73 "/>
<path clip-path="url(#clip990)" d="M265.903 1454.1 Q262.292 1454.1 260.463 1457.66 Q258.658 1461.2 258.658 1468.33 Q258.658 1475.44 260.463 1479.01 Q262.292 1482.55 265.903 1482.55 Q269.537 1482.55 271.343 1479.01 Q273.172 1475.44 273.172 1468.33 Q273.172 1461.2 271.343 1457.66 Q269.537 1454.1 265.903 1454.1 M265.903 1450.39 Q271.713 1450.39 274.769 1455 Q277.847 1459.58 277.847 1468.33 Q277.847 1477.06 274.769 1481.67 Q271.713 1486.25 265.903 1486.25 Q260.093 1486.25 257.014 1481.67 Q253.959 1477.06 253.959 1468.33 Q253.959 1459.58 257.014 1455 Q260.093 1450.39 265.903 1450.39 Z" fill="#000000" fill-rule="nonzero" fill-opacity="1" /><path clip-path="url(#clip990)" d="M873.738 1481.64 L881.377 1481.64 L881.377 1455.28 L873.067 1456.95 L873.067 1452.69 L881.33 1451.02 L886.006 1451.02 L886.006 1481.64 L893.645 1481.64 L893.645 1485.58 L873.738 1485.58 L873.738 1481.64 Z" fill="#000000" fill-rule="nonzero" fill-opacity="1" /><path clip-path="url(#clip990)" d="M913.089 1454.1 Q909.478 1454.1 907.65 1457.66 Q905.844 1461.2 905.844 1468.33 Q905.844 1475.44 907.65 1479.01 Q909.478 1482.55 913.089 1482.55 Q916.724 1482.55 918.529 1479.01 Q920.358 1475.44 920.358 1468.33 Q920.358 1461.2 918.529 1457.66 Q916.724 1454.1 913.089 1454.1 M913.089 1450.39 Q918.9 1450.39 921.955 1455 Q925.034 1459.58 925.034 1468.33 Q925.034 1477.06 921.955 1481.67 Q918.9 1486.25 913.089 1486.25 Q907.279 1486.25 904.201 1481.67 Q901.145 1477.06 901.145 1468.33 Q901.145 1459.58 904.201 1455 Q907.279 1450.39 913.089 1450.39 Z" fill="#000000" fill-rule="nonzero" fill-opacity="1" /><path clip-path="url(#clip990)" d="M1510.97 1481.64 L1527.29 1481.64 L1527.29 1485.58 L1505.35 1485.58 L1505.35 1481.64 Q1508.01 1478.89 1512.59 1474.26 Q1517.2 1469.61 1518.38 1468.27 Q1520.62 1465.74 1521.5 1464.01 Q1522.41 1462.25 1522.41 1460.56 Q1522.41 1457.8 1520.46 1456.07 Q1518.54 1454.33 1515.44 1454.33 Q1513.24 1454.33 1510.79 1455.09 Q1508.35 1455.86 1505.58 1457.41 L1505.58 1452.69 Q1508.4 1451.55 1510.85 1450.97 Q1513.31 1450.39 1515.35 1450.39 Q1520.72 1450.39 1523.91 1453.08 Q1527.1 1455.77 1527.1 1460.26 Q1527.1 1462.39 1526.29 1464.31 Q1525.51 1466.2 1523.4 1468.8 Q1522.82 1469.47 1519.72 1472.69 Q1516.62 1475.88 1510.97 1481.64 Z" fill="#000000" fill-rule="nonzero" fill-opacity="1" /><path clip-path="url(#clip990)" d="M1547.1 1454.1 Q1543.49 1454.1 1541.66 1457.66 Q1539.86 1461.2 1539.86 1468.33 Q1539.86 1475.44 1541.66 1479.01 Q1543.49 1482.55 1547.1 1482.55 Q1550.74 1482.55 1552.54 1479.01 Q1554.37 1475.44 1554.37 1468.33 Q1554.37 1461.2 1552.54 1457.66 Q1550.74 1454.1 1547.1 1454.1 M1547.1 1450.39 Q1552.91 1450.39 1555.97 1455 Q1559.05 1459.58 1559.05 1468.33 Q1559.05 1477.06 1555.97 1481.67 Q1552.91 1486.25 1547.1 1486.25 Q1541.29 1486.25 1538.22 1481.67 Q1535.16 1477.06 1535.16 1468.33 Q1535.16 1459.58 1538.22 1455 Q1541.29 1450.39 1547.1 1450.39 Z" fill="#000000" fill-rule="nonzero" fill-opacity="1" /><path clip-path="url(#clip990)" d="M2154.19 1466.95 Q2157.54 1467.66 2159.42 1469.93 Q2161.32 1472.2 2161.32 1475.53 Q2161.32 1480.65 2157.8 1483.45 Q2154.28 1486.25 2147.8 1486.25 Q2145.62 1486.25 2143.31 1485.81 Q2141.02 1485.39 2138.56 1484.54 L2138.56 1480.02 Q2140.51 1481.16 2142.82 1481.74 Q2145.14 1482.32 2147.66 1482.32 Q2152.06 1482.32 2154.35 1480.58 Q2156.66 1478.84 2156.66 1475.53 Q2156.66 1472.48 2154.51 1470.77 Q2152.38 1469.03 2148.56 1469.03 L2144.53 1469.03 L2144.53 1465.19 L2148.75 1465.19 Q2152.2 1465.19 2154.02 1463.82 Q2155.85 1462.43 2155.85 1459.84 Q2155.85 1457.18 2153.96 1455.77 Q2152.08 1454.33 2148.56 1454.33 Q2146.64 1454.33 2144.44 1454.75 Q2142.24 1455.16 2139.6 1456.04 L2139.6 1451.88 Q2142.27 1451.14 2144.58 1450.77 Q2146.92 1450.39 2148.98 1450.39 Q2154.3 1450.39 2157.4 1452.83 Q2160.51 1455.23 2160.51 1459.35 Q2160.51 1462.22 2158.86 1464.21 Q2157.22 1466.18 2154.19 1466.95 Z" fill="#000000" fill-rule="nonzero" fill-opacity="1" /><path clip-path="url(#clip990)" d="M2180.18 1454.1 Q2176.57 1454.1 2174.74 1457.66 Q2172.94 1461.2 2172.94 1468.33 Q2172.94 1475.44 2174.74 1479.01 Q2176.57 1482.55 2180.18 1482.55 Q2183.82 1482.55 2185.62 1479.01 Q2187.45 1475.44 2187.45 1468.33 Q2187.45 1461.2 2185.62 1457.66 Q2183.82 1454.1 2180.18 1454.1 M2180.18 1450.39 Q2185.99 1450.39 2189.05 1455 Q2192.13 1459.58 2192.13 1468.33 Q2192.13 1477.06 2189.05 1481.67 Q2185.99 1486.25 2180.18 1486.25 Q2174.37 1486.25 2171.29 1481.67 Q2168.24 1477.06 2168.24 1468.33 Q2168.24 1459.58 2171.29 1455 Q2174.37 1450.39 2180.18 1450.39 Z" fill="#000000" fill-rule="nonzero" fill-opacity="1" /><path clip-path="url(#clip990)" d="M763.444 1520.52 L769.873 1520.52 L769.873 1540 L793.235 1540 L793.235 1520.52 L799.664 1520.52 L799.664 1568.04 L793.235 1568.04 L793.235 1545.41 L769.873 1545.41 L769.873 1568.04 L763.444 1568.04 L763.444 1520.52 Z" fill="#000000" fill-rule="nonzero" fill-opacity="1" /><path clip-path="url(#clip990)" d="M828.406 1550.12 Q821.308 1550.12 818.571 1551.75 Q815.833 1553.37 815.833 1557.29 Q815.833 1560.4 817.87 1562.25 Q819.939 1564.07 823.472 1564.07 Q828.342 1564.07 831.27 1560.63 Q834.23 1557.16 834.23 1551.43 L834.23 1550.12 L828.406 1550.12 M840.087 1547.71 L840.087 1568.04 L834.23 1568.04 L834.23 1562.63 Q832.225 1565.88 829.233 1567.44 Q826.241 1568.97 821.913 1568.97 Q816.438 1568.97 813.192 1565.91 Q809.977 1562.82 809.977 1557.67 Q809.977 1551.65 813.987 1548.6 Q818.029 1545.54 826.018 1545.54 L834.23 1545.54 L834.23 1544.97 Q834.23 1540.93 831.557 1538.73 Q828.915 1536.5 824.109 1536.5 Q821.053 1536.5 818.157 1537.23 Q815.26 1537.97 812.587 1539.43 L812.587 1534.02 Q815.801 1532.78 818.825 1532.17 Q821.849 1531.54 824.713 1531.54 Q832.448 1531.54 836.267 1535.55 Q840.087 1539.56 840.087 1547.71 Z" fill="#000000" fill-rule="nonzero" fill-opacity="1" /><path clip-path="url(#clip990)" d="M874.875 1533.45 L874.875 1538.98 Q872.393 1537.71 869.719 1537.07 Q867.045 1536.44 864.181 1536.44 Q859.82 1536.44 857.624 1537.77 Q855.46 1539.11 855.46 1541.79 Q855.46 1543.82 857.019 1545 Q858.579 1546.15 863.29 1547.2 L865.295 1547.64 Q871.533 1548.98 874.143 1551.43 Q876.785 1553.85 876.785 1558.21 Q876.785 1563.17 872.838 1566.07 Q868.923 1568.97 862.048 1568.97 Q859.184 1568.97 856.065 1568.39 Q852.977 1567.85 849.54 1566.74 L849.54 1560.69 Q852.786 1562.38 855.937 1563.24 Q859.088 1564.07 862.176 1564.07 Q866.313 1564.07 868.541 1562.66 Q870.769 1561.23 870.769 1558.65 Q870.769 1556.27 869.146 1554.99 Q867.555 1553.72 862.112 1552.54 L860.075 1552.07 Q854.632 1550.92 852.213 1548.56 Q849.794 1546.18 849.794 1542.04 Q849.794 1537.01 853.359 1534.27 Q856.924 1531.54 863.481 1531.54 Q866.727 1531.54 869.592 1532.01 Q872.456 1532.49 874.875 1533.45 Z" fill="#000000" fill-rule="nonzero" fill-opacity="1" /><path clip-path="url(#clip990)" d="M915.743 1546.53 L915.743 1568.04 L909.887 1568.04 L909.887 1546.72 Q909.887 1541.66 907.913 1539.14 Q905.94 1536.63 901.993 1536.63 Q897.251 1536.63 894.513 1539.65 Q891.776 1542.68 891.776 1547.9 L891.776 1568.04 L885.888 1568.04 L885.888 1518.52 L891.776 1518.52 L891.776 1537.93 Q893.877 1534.72 896.71 1533.13 Q899.574 1531.54 903.298 1531.54 Q909.441 1531.54 912.592 1535.36 Q915.743 1539.14 915.743 1546.53 Z" fill="#000000" fill-rule="nonzero" fill-opacity="1" /><path clip-path="url(#clip990)" d="M955.179 1539.24 Q957.375 1535.29 960.43 1533.41 Q963.486 1531.54 967.624 1531.54 Q973.194 1531.54 976.217 1535.45 Q979.241 1539.33 979.241 1546.53 L979.241 1568.04 L973.353 1568.04 L973.353 1546.72 Q973.353 1541.59 971.538 1539.11 Q969.724 1536.63 966 1536.63 Q961.449 1536.63 958.807 1539.65 Q956.165 1542.68 956.165 1547.9 L956.165 1568.04 L950.277 1568.04 L950.277 1546.72 Q950.277 1541.56 948.463 1539.11 Q946.649 1536.63 942.861 1536.63 Q938.373 1536.63 935.731 1539.68 Q933.09 1542.71 933.09 1547.9 L933.09 1568.04 L927.201 1568.04 L927.201 1532.4 L933.09 1532.4 L933.09 1537.93 Q935.095 1534.66 937.896 1533.1 Q940.697 1531.54 944.548 1531.54 Q948.431 1531.54 951.136 1533.51 Q953.874 1535.48 955.179 1539.24 Z" fill="#000000" fill-rule="nonzero" fill-opacity="1" /><path clip-path="url(#clip990)" d="M1007.12 1550.12 Q1000.03 1550.12 997.288 1551.75 Q994.55 1553.37 994.55 1557.29 Q994.55 1560.4 996.588 1562.25 Q998.656 1564.07 1002.19 1564.07 Q1007.06 1564.07 1009.99 1560.63 Q1012.95 1557.16 1012.95 1551.43 L1012.95 1550.12 L1007.12 1550.12 M1018.8 1547.71 L1018.8 1568.04 L1012.95 1568.04 L1012.95 1562.63 Q1010.94 1565.88 1007.95 1567.44 Q1004.96 1568.97 1000.63 1568.97 Q995.155 1568.97 991.909 1565.91 Q988.694 1562.82 988.694 1557.67 Q988.694 1551.65 992.704 1548.6 Q996.747 1545.54 1004.74 1545.54 L1012.95 1545.54 L1012.95 1544.97 Q1012.95 1540.93 1010.27 1538.73 Q1007.63 1536.5 1002.83 1536.5 Q999.77 1536.5 996.874 1537.23 Q993.978 1537.97 991.304 1539.43 L991.304 1534.02 Q994.519 1532.78 997.542 1532.17 Q1000.57 1531.54 1003.43 1531.54 Q1011.16 1531.54 1014.98 1535.55 Q1018.8 1539.56 1018.8 1547.71 Z" fill="#000000" fill-rule="nonzero" fill-opacity="1" /><path clip-path="url(#clip990)" d="M1036.53 1562.7 L1036.53 1581.6 L1030.64 1581.6 L1030.64 1532.4 L1036.53 1532.4 L1036.53 1537.81 Q1038.38 1534.62 1041.18 1533.1 Q1044.01 1531.54 1047.93 1531.54 Q1054.42 1531.54 1058.46 1536.69 Q1062.54 1541.85 1062.54 1550.25 Q1062.54 1558.65 1058.46 1563.81 Q1054.42 1568.97 1047.93 1568.97 Q1044.01 1568.97 1041.18 1567.44 Q1038.38 1565.88 1036.53 1562.7 M1056.46 1550.25 Q1056.46 1543.79 1053.78 1540.13 Q1051.14 1536.44 1046.49 1536.44 Q1041.85 1536.44 1039.17 1540.13 Q1036.53 1543.79 1036.53 1550.25 Q1036.53 1556.71 1039.17 1560.4 Q1041.85 1564.07 1046.49 1564.07 Q1051.14 1564.07 1053.78 1560.4 Q1056.46 1556.71 1056.46 1550.25 Z" fill="#000000" fill-rule="nonzero" fill-opacity="1" /><path clip-path="url(#clip990)" d="M1115.69 1533.45 L1115.69 1538.98 Q1113.21 1537.71 1110.53 1537.07 Q1107.86 1536.44 1105 1536.44 Q1100.63 1536.44 1098.44 1537.77 Q1096.27 1539.11 1096.27 1541.79 Q1096.27 1543.82 1097.83 1545 Q1099.39 1546.15 1104.1 1547.2 L1106.11 1547.64 Q1112.35 1548.98 1114.96 1551.43 Q1117.6 1553.85 1117.6 1558.21 Q1117.6 1563.17 1113.65 1566.07 Q1109.74 1568.97 1102.86 1568.97 Q1100 1568.97 1096.88 1568.39 Q1093.79 1567.85 1090.35 1566.74 L1090.35 1560.69 Q1093.6 1562.38 1096.75 1563.24 Q1099.9 1564.07 1102.99 1564.07 Q1107.13 1564.07 1109.36 1562.66 Q1111.58 1561.23 1111.58 1558.65 Q1111.58 1556.27 1109.96 1554.99 Q1108.37 1553.72 1102.93 1552.54 L1100.89 1552.07 Q1095.45 1550.92 1093.03 1548.56 Q1090.61 1546.18 1090.61 1542.04 Q1090.61 1537.01 1094.17 1534.27 Q1097.74 1531.54 1104.3 1531.54 Q1107.54 1531.54 1110.41 1532.01 Q1113.27 1532.49 1115.69 1533.45 Z" fill="#000000" fill-rule="nonzero" fill-opacity="1" /><path clip-path="url(#clip990)" d="M1126.93 1532.4 L1132.78 1532.4 L1132.78 1568.04 L1126.93 1568.04 L1126.93 1532.4 M1126.93 1518.52 L1132.78 1518.52 L1132.78 1525.93 L1126.93 1525.93 L1126.93 1518.52 Z" fill="#000000" fill-rule="nonzero" fill-opacity="1" /><path clip-path="url(#clip990)" d="M1142.49 1532.4 L1170.31 1532.4 L1170.31 1537.74 L1148.28 1563.37 L1170.31 1563.37 L1170.31 1568.04 L1141.69 1568.04 L1141.69 1562.7 L1163.72 1537.07 L1142.49 1537.07 L1142.49 1532.4 Z" fill="#000000" fill-rule="nonzero" fill-opacity="1" /><path clip-path="url(#clip990)" d="M1209.74 1548.76 L1209.74 1551.62 L1182.82 1551.62 Q1183.2 1557.67 1186.44 1560.85 Q1189.72 1564 1195.55 1564 Q1198.92 1564 1202.07 1563.17 Q1205.26 1562.35 1208.37 1560.69 L1208.37 1566.23 Q1205.22 1567.57 1201.91 1568.27 Q1198.6 1568.97 1195.2 1568.97 Q1186.67 1568.97 1181.67 1564 Q1176.71 1559.04 1176.71 1550.57 Q1176.71 1541.82 1181.42 1536.69 Q1186.16 1531.54 1194.18 1531.54 Q1201.37 1531.54 1205.54 1536.18 Q1209.74 1540.8 1209.74 1548.76 M1203.89 1547.04 Q1203.82 1542.23 1201.18 1539.37 Q1198.57 1536.5 1194.24 1536.5 Q1189.34 1536.5 1186.38 1539.27 Q1183.45 1542.04 1183.01 1547.07 L1203.89 1547.04 Z" fill="#000000" fill-rule="nonzero" fill-opacity="1" /><path clip-path="url(#clip990)" d="M1254.14 1518.58 Q1249.88 1525.9 1247.81 1533.06 Q1245.74 1540.23 1245.74 1547.58 Q1245.74 1554.93 1247.81 1562.16 Q1249.91 1569.35 1254.14 1576.64 L1249.05 1576.64 Q1244.28 1569.16 1241.89 1561.93 Q1239.53 1554.71 1239.53 1547.58 Q1239.53 1540.48 1241.89 1533.29 Q1244.25 1526.09 1249.05 1518.58 L1254.14 1518.58 Z" fill="#000000" fill-rule="nonzero" fill-opacity="1" /><path clip-path="url(#clip990)" d="M1265.76 1520.52 L1274.42 1520.52 L1295.49 1560.28 L1295.49 1520.52 L1301.73 1520.52 L1301.73 1568.04 L1293.07 1568.04 L1272 1528.29 L1272 1568.04 L1265.76 1568.04 L1265.76 1520.52 Z" fill="#000000" fill-rule="nonzero" fill-opacity="1" /><path clip-path="url(#clip990)" d="M1328.08 1536.5 Q1323.37 1536.5 1320.63 1540.19 Q1317.9 1543.85 1317.9 1550.25 Q1317.9 1556.65 1320.6 1560.34 Q1323.34 1564 1328.08 1564 Q1332.76 1564 1335.5 1560.31 Q1338.23 1556.62 1338.23 1550.25 Q1338.23 1543.92 1335.5 1540.23 Q1332.76 1536.5 1328.08 1536.5 M1328.08 1531.54 Q1335.72 1531.54 1340.08 1536.5 Q1344.44 1541.47 1344.44 1550.25 Q1344.44 1559 1340.08 1564 Q1335.72 1568.97 1328.08 1568.97 Q1320.41 1568.97 1316.05 1564 Q1311.72 1559 1311.72 1550.25 Q1311.72 1541.47 1316.05 1536.5 Q1320.41 1531.54 1328.08 1531.54 Z" fill="#000000" fill-rule="nonzero" fill-opacity="1" /><path clip-path="url(#clip990)" d="M1353.83 1559.96 L1360.55 1559.96 L1360.55 1568.04 L1353.83 1568.04 L1353.83 1559.96 Z" fill="#000000" fill-rule="nonzero" fill-opacity="1" /><path clip-path="url(#clip990)" d="M1408.26 1536.5 Q1403.55 1536.5 1400.81 1540.19 Q1398.07 1543.85 1398.07 1550.25 Q1398.07 1556.65 1400.78 1560.34 Q1403.52 1564 1408.26 1564 Q1412.94 1564 1415.67 1560.31 Q1418.41 1556.62 1418.41 1550.25 Q1418.41 1543.92 1415.67 1540.23 Q1412.94 1536.5 1408.26 1536.5 M1408.26 1531.54 Q1415.9 1531.54 1420.26 1536.5 Q1424.62 1541.47 1424.62 1550.25 Q1424.62 1559 1420.26 1564 Q1415.9 1568.97 1408.26 1568.97 Q1400.59 1568.97 1396.23 1564 Q1391.9 1559 1391.9 1550.25 Q1391.9 1541.47 1396.23 1536.5 Q1400.59 1531.54 1408.26 1531.54 Z" fill="#000000" fill-rule="nonzero" fill-opacity="1" /><path clip-path="url(#clip990)" d="M1452.37 1518.52 L1452.37 1523.39 L1446.77 1523.39 Q1443.62 1523.39 1442.38 1524.66 Q1441.17 1525.93 1441.17 1529.24 L1441.17 1532.4 L1450.81 1532.4 L1450.81 1536.95 L1441.17 1536.95 L1441.17 1568.04 L1435.28 1568.04 L1435.28 1536.95 L1429.68 1536.95 L1429.68 1532.4 L1435.28 1532.4 L1435.28 1529.91 Q1435.28 1523.96 1438.05 1521.26 Q1440.82 1518.52 1446.83 1518.52 L1452.37 1518.52 Z" fill="#000000" fill-rule="nonzero" fill-opacity="1" /><path clip-path="url(#clip990)" d="M1508.49 1548.76 L1508.49 1551.62 L1481.56 1551.62 Q1481.94 1557.67 1485.19 1560.85 Q1488.47 1564 1494.29 1564 Q1497.66 1564 1500.82 1563.17 Q1504 1562.35 1507.12 1560.69 L1507.12 1566.23 Q1503.97 1567.57 1500.66 1568.27 Q1497.35 1568.97 1493.94 1568.97 Q1485.41 1568.97 1480.41 1564 Q1475.45 1559.04 1475.45 1550.57 Q1475.45 1541.82 1480.16 1536.69 Q1484.9 1531.54 1492.92 1531.54 Q1500.11 1531.54 1504.28 1536.18 Q1508.49 1540.8 1508.49 1548.76 M1502.63 1547.04 Q1502.57 1542.23 1499.92 1539.37 Q1497.31 1536.5 1492.99 1536.5 Q1488.08 1536.5 1485.12 1539.27 Q1482.2 1542.04 1481.75 1547.07 L1502.63 1547.04 Z" fill="#000000" fill-rule="nonzero" fill-opacity="1" /><path clip-path="url(#clip990)" d="M1518.1 1518.52 L1523.95 1518.52 L1523.95 1568.04 L1518.1 1568.04 L1518.1 1518.52 Z" fill="#000000" fill-rule="nonzero" fill-opacity="1" /><path clip-path="url(#clip990)" d="M1566.7 1548.76 L1566.7 1551.62 L1539.77 1551.62 Q1540.16 1557.67 1543.4 1560.85 Q1546.68 1564 1552.5 1564 Q1555.88 1564 1559.03 1563.17 Q1562.21 1562.35 1565.33 1560.69 L1565.33 1566.23 Q1562.18 1567.57 1558.87 1568.27 Q1555.56 1568.97 1552.15 1568.97 Q1543.62 1568.97 1538.63 1564 Q1533.66 1559.04 1533.66 1550.57 Q1533.66 1541.82 1538.37 1536.69 Q1543.12 1531.54 1551.14 1531.54 Q1558.33 1531.54 1562.5 1536.18 Q1566.7 1540.8 1566.7 1548.76 M1560.84 1547.04 Q1560.78 1542.23 1558.14 1539.37 Q1555.53 1536.5 1551.2 1536.5 Q1546.3 1536.5 1543.34 1539.27 Q1540.41 1542.04 1539.96 1547.07 L1560.84 1547.04 Z" fill="#000000" fill-rule="nonzero" fill-opacity="1" /><path clip-path="url(#clip990)" d="M1604.07 1539.24 Q1606.26 1535.29 1609.32 1533.41 Q1612.37 1531.54 1616.51 1531.54 Q1622.08 1531.54 1625.11 1535.45 Q1628.13 1539.33 1628.13 1546.53 L1628.13 1568.04 L1622.24 1568.04 L1622.24 1546.72 Q1622.24 1541.59 1620.43 1539.11 Q1618.61 1536.63 1614.89 1536.63 Q1610.34 1536.63 1607.7 1539.65 Q1605.05 1542.68 1605.05 1547.9 L1605.05 1568.04 L1599.17 1568.04 L1599.17 1546.72 Q1599.17 1541.56 1597.35 1539.11 Q1595.54 1536.63 1591.75 1536.63 Q1587.26 1536.63 1584.62 1539.68 Q1581.98 1542.71 1581.98 1547.9 L1581.98 1568.04 L1576.09 1568.04 L1576.09 1532.4 L1581.98 1532.4 L1581.98 1537.93 Q1583.98 1534.66 1586.78 1533.1 Q1589.58 1531.54 1593.44 1531.54 Q1597.32 1531.54 1600.02 1533.51 Q1602.76 1535.48 1604.07 1539.24 Z" fill="#000000" fill-rule="nonzero" fill-opacity="1" /><path clip-path="url(#clip990)" d="M1670.3 1548.76 L1670.3 1551.62 L1643.38 1551.62 Q1643.76 1557.67 1647 1560.85 Q1650.28 1564 1656.11 1564 Q1659.48 1564 1662.63 1563.17 Q1665.81 1562.35 1668.93 1560.69 L1668.93 1566.23 Q1665.78 1567.57 1662.47 1568.27 Q1659.16 1568.97 1655.76 1568.97 Q1647.23 1568.97 1642.23 1564 Q1637.26 1559.04 1637.26 1550.57 Q1637.26 1541.82 1641.97 1536.69 Q1646.72 1531.54 1654.74 1531.54 Q1661.93 1531.54 1666.1 1536.18 Q1670.3 1540.8 1670.3 1548.76 M1664.45 1547.04 Q1664.38 1542.23 1661.74 1539.37 Q1659.13 1536.5 1654.8 1536.5 Q1649.9 1536.5 1646.94 1539.27 Q1644.01 1542.04 1643.57 1547.07 L1664.45 1547.04 Z" fill="#000000" fill-rule="nonzero" fill-opacity="1" /><path clip-path="url(#clip990)" d="M1709.55 1546.53 L1709.55 1568.04 L1703.69 1568.04 L1703.69 1546.72 Q1703.69 1541.66 1701.72 1539.14 Q1699.74 1536.63 1695.8 1536.63 Q1691.05 1536.63 1688.32 1539.65 Q1685.58 1542.68 1685.58 1547.9 L1685.58 1568.04 L1679.69 1568.04 L1679.69 1532.4 L1685.58 1532.4 L1685.58 1537.93 Q1687.68 1534.72 1690.51 1533.13 Q1693.38 1531.54 1697.1 1531.54 Q1703.24 1531.54 1706.4 1535.36 Q1709.55 1539.14 1709.55 1546.53 Z" fill="#000000" fill-rule="nonzero" fill-opacity="1" /><path clip-path="url(#clip990)" d="M1727.02 1522.27 L1727.02 1532.4 L1739.08 1532.4 L1739.08 1536.95 L1727.02 1536.95 L1727.02 1556.3 Q1727.02 1560.66 1728.2 1561.9 Q1729.41 1563.14 1733.07 1563.14 L1739.08 1563.14 L1739.08 1568.04 L1733.07 1568.04 Q1726.29 1568.04 1723.71 1565.53 Q1721.13 1562.98 1721.13 1556.3 L1721.13 1536.95 L1716.84 1536.95 L1716.84 1532.4 L1721.13 1532.4 L1721.13 1522.27 L1727.02 1522.27 Z" fill="#000000" fill-rule="nonzero" fill-opacity="1" /><path clip-path="url(#clip990)" d="M1769.51 1533.45 L1769.51 1538.98 Q1767.03 1537.71 1764.36 1537.07 Q1761.68 1536.44 1758.82 1536.44 Q1754.46 1536.44 1752.26 1537.77 Q1750.1 1539.11 1750.1 1541.79 Q1750.1 1543.82 1751.66 1545 Q1753.22 1546.15 1757.93 1547.2 L1759.93 1547.64 Q1766.17 1548.98 1768.78 1551.43 Q1771.42 1553.85 1771.42 1558.21 Q1771.42 1563.17 1767.47 1566.07 Q1763.56 1568.97 1756.68 1568.97 Q1753.82 1568.97 1750.7 1568.39 Q1747.61 1567.85 1744.18 1566.74 L1744.18 1560.69 Q1747.42 1562.38 1750.57 1563.24 Q1753.72 1564.07 1756.81 1564.07 Q1760.95 1564.07 1763.18 1562.66 Q1765.41 1561.23 1765.41 1558.65 Q1765.41 1556.27 1763.78 1554.99 Q1762.19 1553.72 1756.75 1552.54 L1754.71 1552.07 Q1749.27 1550.92 1746.85 1548.56 Q1744.43 1546.18 1744.43 1542.04 Q1744.43 1537.01 1748 1534.27 Q1751.56 1531.54 1758.12 1531.54 Q1761.36 1531.54 1764.23 1532.01 Q1767.09 1532.49 1769.51 1533.45 Z" fill="#000000" fill-rule="nonzero" fill-opacity="1" /><path clip-path="url(#clip990)" d="M1779.82 1518.58 L1784.92 1518.58 Q1789.69 1526.09 1792.05 1533.29 Q1794.43 1540.48 1794.43 1547.58 Q1794.43 1554.71 1792.05 1561.93 Q1789.69 1569.16 1784.92 1576.64 L1779.82 1576.64 Q1784.06 1569.35 1786.13 1562.16 Q1788.23 1554.93 1788.23 1547.58 Q1788.23 1540.23 1786.13 1533.06 Q1784.06 1525.9 1779.82 1518.58 Z" fill="#000000" fill-rule="nonzero" fill-opacity="1" /><polyline clip-path="url(#clip990)" style="stroke:#000000; stroke-linecap:round; stroke-linejoin:round; stroke-width:4; stroke-opacity:1; fill:none" points="205.121,1423.18 205.121,123.472 "/>
<polyline clip-path="url(#clip990)" style="stroke:#000000; stroke-linecap:round; stroke-linejoin:round; stroke-width:4; stroke-opacity:1; fill:none" points="205.121,1113.73 224.019,1113.73 "/>
<polyline clip-path="url(#clip990)" style="stroke:#000000; stroke-linecap:round; stroke-linejoin:round; stroke-width:4; stroke-opacity:1; fill:none" points="205.121,789.721 224.019,789.721 "/>
<polyline clip-path="url(#clip990)" style="stroke:#000000; stroke-linecap:round; stroke-linejoin:round; stroke-width:4; stroke-opacity:1; fill:none" points="205.121,465.714 224.019,465.714 "/>
<polyline clip-path="url(#clip990)" style="stroke:#000000; stroke-linecap:round; stroke-linejoin:round; stroke-width:4; stroke-opacity:1; fill:none" points="205.121,141.707 224.019,141.707 "/>
<polyline clip-path="url(#clip990)" style="stroke:#000000; stroke-linecap:round; stroke-linejoin:round; stroke-width:4; stroke-opacity:1; fill:none" points="205.121,1372.93 214.57,1372.93 "/>
<polyline clip-path="url(#clip990)" style="stroke:#000000; stroke-linecap:round; stroke-linejoin:round; stroke-width:4; stroke-opacity:1; fill:none" points="205.121,1308.13 214.57,1308.13 "/>
<polyline clip-path="url(#clip990)" style="stroke:#000000; stroke-linecap:round; stroke-linejoin:round; stroke-width:4; stroke-opacity:1; fill:none" points="205.121,1243.33 214.57,1243.33 "/>
<polyline clip-path="url(#clip990)" style="stroke:#000000; stroke-linecap:round; stroke-linejoin:round; stroke-width:4; stroke-opacity:1; fill:none" points="205.121,1178.53 214.57,1178.53 "/>
<polyline clip-path="url(#clip990)" style="stroke:#000000; stroke-linecap:round; stroke-linejoin:round; stroke-width:4; stroke-opacity:1; fill:none" points="205.121,1048.93 214.57,1048.93 "/>
<polyline clip-path="url(#clip990)" style="stroke:#000000; stroke-linecap:round; stroke-linejoin:round; stroke-width:4; stroke-opacity:1; fill:none" points="205.121,984.125 214.57,984.125 "/>
<polyline clip-path="url(#clip990)" style="stroke:#000000; stroke-linecap:round; stroke-linejoin:round; stroke-width:4; stroke-opacity:1; fill:none" points="205.121,919.323 214.57,919.323 "/>
<polyline clip-path="url(#clip990)" style="stroke:#000000; stroke-linecap:round; stroke-linejoin:round; stroke-width:4; stroke-opacity:1; fill:none" points="205.121,854.522 214.57,854.522 "/>
<polyline clip-path="url(#clip990)" style="stroke:#000000; stroke-linecap:round; stroke-linejoin:round; stroke-width:4; stroke-opacity:1; fill:none" points="205.121,724.919 214.57,724.919 "/>
<polyline clip-path="url(#clip990)" style="stroke:#000000; stroke-linecap:round; stroke-linejoin:round; stroke-width:4; stroke-opacity:1; fill:none" points="205.121,660.118 214.57,660.118 "/>
<polyline clip-path="url(#clip990)" style="stroke:#000000; stroke-linecap:round; stroke-linejoin:round; stroke-width:4; stroke-opacity:1; fill:none" points="205.121,595.317 214.57,595.317 "/>
<polyline clip-path="url(#clip990)" style="stroke:#000000; stroke-linecap:round; stroke-linejoin:round; stroke-width:4; stroke-opacity:1; fill:none" points="205.121,530.515 214.57,530.515 "/>
<polyline clip-path="url(#clip990)" style="stroke:#000000; stroke-linecap:round; stroke-linejoin:round; stroke-width:4; stroke-opacity:1; fill:none" points="205.121,400.912 214.57,400.912 "/>
<polyline clip-path="url(#clip990)" style="stroke:#000000; stroke-linecap:round; stroke-linejoin:round; stroke-width:4; stroke-opacity:1; fill:none" points="205.121,336.111 214.57,336.111 "/>
<polyline clip-path="url(#clip990)" style="stroke:#000000; stroke-linecap:round; stroke-linejoin:round; stroke-width:4; stroke-opacity:1; fill:none" points="205.121,271.31 214.57,271.31 "/>
<polyline clip-path="url(#clip990)" style="stroke:#000000; stroke-linecap:round; stroke-linejoin:round; stroke-width:4; stroke-opacity:1; fill:none" points="205.121,206.508 214.57,206.508 "/>
<path clip-path="url(#clip990)" d="M121.043 1127.07 L137.362 1127.07 L137.362 1131.01 L115.418 1131.01 L115.418 1127.07 Q118.08 1124.32 122.663 1119.69 Q127.269 1115.04 128.45 1113.69 Q130.695 1111.17 131.575 1109.43 Q132.478 1107.67 132.478 1105.98 Q132.478 1103.23 130.533 1101.49 Q128.612 1099.76 125.51 1099.76 Q123.311 1099.76 120.857 1100.52 Q118.427 1101.29 115.649 1102.84 L115.649 1098.11 Q118.473 1096.98 120.927 1096.4 Q123.38 1095.82 125.418 1095.82 Q130.788 1095.82 133.982 1098.51 Q137.177 1101.19 137.177 1105.68 Q137.177 1107.81 136.367 1109.73 Q135.579 1111.63 133.473 1114.23 Q132.894 1114.9 129.792 1118.11 Q126.691 1121.31 121.043 1127.07 Z" fill="#000000" fill-rule="nonzero" fill-opacity="1" /><path clip-path="url(#clip990)" d="M157.177 1099.53 Q153.566 1099.53 151.737 1103.09 Q149.931 1106.63 149.931 1113.76 Q149.931 1120.87 151.737 1124.43 Q153.566 1127.98 157.177 1127.98 Q160.811 1127.98 162.616 1124.43 Q164.445 1120.87 164.445 1113.76 Q164.445 1106.63 162.616 1103.09 Q160.811 1099.53 157.177 1099.53 M157.177 1095.82 Q162.987 1095.82 166.042 1100.43 Q169.121 1105.01 169.121 1113.76 Q169.121 1122.49 166.042 1127.1 Q162.987 1131.68 157.177 1131.68 Q151.366 1131.68 148.288 1127.1 Q145.232 1122.49 145.232 1113.76 Q145.232 1105.01 148.288 1100.43 Q151.366 1095.82 157.177 1095.82 Z" fill="#000000" fill-rule="nonzero" fill-opacity="1" /><path clip-path="url(#clip990)" d="M129.862 776.515 L118.056 794.964 L129.862 794.964 L129.862 776.515 M128.635 772.441 L134.515 772.441 L134.515 794.964 L139.445 794.964 L139.445 798.853 L134.515 798.853 L134.515 807.001 L129.862 807.001 L129.862 798.853 L114.26 798.853 L114.26 794.339 L128.635 772.441 Z" fill="#000000" fill-rule="nonzero" fill-opacity="1" /><path clip-path="url(#clip990)" d="M157.177 775.519 Q153.566 775.519 151.737 779.084 Q149.931 782.626 149.931 789.755 Q149.931 796.862 151.737 800.427 Q153.566 803.968 157.177 803.968 Q160.811 803.968 162.616 800.427 Q164.445 796.862 164.445 789.755 Q164.445 782.626 162.616 779.084 Q160.811 775.519 157.177 775.519 M157.177 771.816 Q162.987 771.816 166.042 776.422 Q169.121 781.006 169.121 789.755 Q169.121 798.482 166.042 803.089 Q162.987 807.672 157.177 807.672 Q151.366 807.672 148.288 803.089 Q145.232 798.482 145.232 789.755 Q145.232 781.006 148.288 776.422 Q151.366 771.816 157.177 771.816 Z" fill="#000000" fill-rule="nonzero" fill-opacity="1" /><path clip-path="url(#clip990)" d="M127.593 463.85 Q124.445 463.85 122.593 466.003 Q120.765 468.156 120.765 471.906 Q120.765 475.633 122.593 477.809 Q124.445 479.961 127.593 479.961 Q130.742 479.961 132.57 477.809 Q134.422 475.633 134.422 471.906 Q134.422 468.156 132.57 466.003 Q130.742 463.85 127.593 463.85 M136.876 449.198 L136.876 453.457 Q135.117 452.624 133.311 452.184 Q131.529 451.744 129.769 451.744 Q125.14 451.744 122.686 454.869 Q120.255 457.994 119.908 464.313 Q121.274 462.299 123.334 461.235 Q125.394 460.147 127.871 460.147 Q133.08 460.147 136.089 463.318 Q139.121 466.466 139.121 471.906 Q139.121 477.23 135.973 480.448 Q132.825 483.665 127.593 483.665 Q121.598 483.665 118.427 479.082 Q115.256 474.475 115.256 465.749 Q115.256 457.554 119.144 452.693 Q123.033 447.809 129.584 447.809 Q131.343 447.809 133.126 448.156 Q134.931 448.503 136.876 449.198 Z" fill="#000000" fill-rule="nonzero" fill-opacity="1" /><path clip-path="url(#clip990)" d="M157.177 451.513 Q153.566 451.513 151.737 455.077 Q149.931 458.619 149.931 465.749 Q149.931 472.855 151.737 476.42 Q153.566 479.961 157.177 479.961 Q160.811 479.961 162.616 476.42 Q164.445 472.855 164.445 465.749 Q164.445 458.619 162.616 455.077 Q160.811 451.513 157.177 451.513 M157.177 447.809 Q162.987 447.809 166.042 452.415 Q169.121 456.999 169.121 465.749 Q169.121 474.475 166.042 479.082 Q162.987 483.665 157.177 483.665 Q151.366 483.665 148.288 479.082 Q145.232 474.475 145.232 465.749 Q145.232 456.999 148.288 452.415 Q151.366 447.809 157.177 447.809 Z" fill="#000000" fill-rule="nonzero" fill-opacity="1" /><path clip-path="url(#clip990)" d="M127.015 142.575 Q123.681 142.575 121.76 144.357 Q119.862 146.14 119.862 149.265 Q119.862 152.39 121.76 154.172 Q123.681 155.955 127.015 155.955 Q130.348 155.955 132.269 154.172 Q134.191 152.367 134.191 149.265 Q134.191 146.14 132.269 144.357 Q130.371 142.575 127.015 142.575 M122.339 140.584 Q119.33 139.843 117.64 137.783 Q115.973 135.723 115.973 132.76 Q115.973 128.617 118.913 126.209 Q121.876 123.802 127.015 123.802 Q132.177 123.802 135.117 126.209 Q138.056 128.617 138.056 132.76 Q138.056 135.723 136.367 137.783 Q134.7 139.843 131.714 140.584 Q135.093 141.371 136.968 143.663 Q138.867 145.955 138.867 149.265 Q138.867 154.288 135.788 156.973 Q132.732 159.658 127.015 159.658 Q121.297 159.658 118.218 156.973 Q115.163 154.288 115.163 149.265 Q115.163 145.955 117.061 143.663 Q118.959 141.371 122.339 140.584 M120.626 133.2 Q120.626 135.885 122.293 137.39 Q123.982 138.894 127.015 138.894 Q130.024 138.894 131.714 137.39 Q133.427 135.885 133.427 133.2 Q133.427 130.515 131.714 129.01 Q130.024 127.506 127.015 127.506 Q123.982 127.506 122.293 129.01 Q120.626 130.515 120.626 133.2 Z" fill="#000000" fill-rule="nonzero" fill-opacity="1" /><path clip-path="url(#clip990)" d="M157.177 127.506 Q153.566 127.506 151.737 131.07 Q149.931 134.612 149.931 141.742 Q149.931 148.848 151.737 152.413 Q153.566 155.955 157.177 155.955 Q160.811 155.955 162.616 152.413 Q164.445 148.848 164.445 141.742 Q164.445 134.612 162.616 131.07 Q160.811 127.506 157.177 127.506 M157.177 123.802 Q162.987 123.802 166.042 128.408 Q169.121 132.992 169.121 141.742 Q169.121 150.468 166.042 155.075 Q162.987 159.658 157.177 159.658 Q151.366 159.658 148.288 155.075 Q145.232 150.468 145.232 141.742 Q145.232 132.992 148.288 128.408 Q151.366 123.802 157.177 123.802 Z" fill="#000000" fill-rule="nonzero" fill-opacity="1" /><path clip-path="url(#clip990)" d="M16.4842 1072.82 L16.4842 1063.24 L48.8219 1051.11 L16.4842 1038.92 L16.4842 1029.34 L64.0042 1029.34 L64.0042 1035.61 L22.277 1035.61 L54.8694 1047.86 L54.8694 1054.32 L22.277 1066.58 L64.0042 1066.58 L64.0042 1072.82 L16.4842 1072.82 Z" fill="#000000" fill-rule="nonzero" fill-opacity="1" /><path clip-path="url(#clip990)" d="M44.7161 986.338 L47.5806 986.338 L47.5806 1013.27 Q53.6281 1012.88 56.8109 1009.64 Q59.9619 1006.36 59.9619 1000.53 Q59.9619 997.16 59.1344 994.009 Q58.3069 990.826 56.6518 987.707 L62.1899 987.707 Q63.5267 990.858 64.227 994.168 Q64.9272 997.478 64.9272 1000.88 Q64.9272 1009.41 59.9619 1014.41 Q54.9967 1019.38 46.5303 1019.38 Q37.7774 1019.38 32.6531 1014.67 Q27.4968 1009.92 27.4968 1001.9 Q27.4968 994.709 32.1438 990.54 Q36.7589 986.338 44.7161 986.338 M42.9973 992.195 Q38.1912 992.259 35.3266 994.9 Q32.4621 997.51 32.4621 1001.84 Q32.4621 1006.74 35.2312 1009.7 Q38.0002 1012.63 43.0292 1013.07 L42.9973 992.195 Z" fill="#000000" fill-rule="nonzero" fill-opacity="1" /><path clip-path="url(#clip990)" d="M46.0847 960.526 Q46.0847 967.623 47.7079 970.361 Q49.3312 973.098 53.2461 973.098 Q56.3653 973.098 58.2114 971.061 Q60.0256 968.992 60.0256 965.459 Q60.0256 960.589 56.5881 957.661 Q53.1188 954.701 47.3897 954.701 L46.0847 954.701 L46.0847 960.526 M43.6657 948.844 L64.0042 948.844 L64.0042 954.701 L58.5933 954.701 Q61.8398 956.706 63.3994 959.698 Q64.9272 962.69 64.9272 967.019 Q64.9272 972.493 61.8716 975.74 Q58.7843 978.954 53.6281 978.954 Q47.6125 978.954 44.5569 974.944 Q41.5014 970.902 41.5014 962.913 L41.5014 954.701 L40.9285 954.701 Q36.8862 954.701 34.6901 957.374 Q32.4621 960.016 32.4621 964.822 Q32.4621 967.878 33.1941 970.774 Q33.9262 973.671 35.3903 976.344 L29.9795 976.344 Q28.7381 973.13 28.1334 970.106 Q27.4968 967.082 27.4968 964.218 Q27.4968 956.483 31.5072 952.664 Q35.5176 948.844 43.6657 948.844 Z" fill="#000000" fill-rule="nonzero" fill-opacity="1" /><path clip-path="url(#clip990)" d="M42.4881 907.149 L64.0042 907.149 L64.0042 913.006 L42.679 913.006 Q37.6183 913.006 35.1038 914.979 Q32.5894 916.952 32.5894 920.899 Q32.5894 925.641 35.6131 928.379 Q38.6368 931.116 43.8567 931.116 L64.0042 931.116 L64.0042 937.004 L28.3562 937.004 L28.3562 931.116 L33.8944 931.116 Q30.6797 929.015 29.0883 926.183 Q27.4968 923.318 27.4968 919.594 Q27.4968 913.451 31.3163 910.3 Q35.1038 907.149 42.4881 907.149 Z" fill="#000000" fill-rule="nonzero" fill-opacity="1" /><path clip-path="url(#clip990)" d="M29.7248 849.094 L35.1993 849.094 Q33.8307 851.576 33.1623 854.091 Q32.4621 856.574 32.4621 859.12 Q32.4621 864.817 36.0905 867.968 Q39.6872 871.119 46.212 871.119 Q52.7369 871.119 56.3653 867.968 Q59.9619 864.817 59.9619 859.12 Q59.9619 856.574 59.2935 854.091 Q58.5933 851.576 57.2247 849.094 L62.6355 849.094 Q63.7814 851.545 64.3543 854.186 Q64.9272 856.796 64.9272 859.756 Q64.9272 867.809 59.8664 872.551 Q54.8057 877.294 46.212 877.294 Q37.491 877.294 32.4939 872.52 Q27.4968 867.713 27.4968 859.374 Q27.4968 856.669 28.0697 854.091 Q28.6108 851.513 29.7248 849.094 Z" fill="#000000" fill-rule="nonzero" fill-opacity="1" /><path clip-path="url(#clip990)" d="M58.657 833.243 L77.5631 833.243 L77.5631 839.131 L28.3562 839.131 L28.3562 833.243 L33.7671 833.243 Q30.5842 831.397 29.0564 828.596 Q27.4968 825.763 27.4968 821.849 Q27.4968 815.356 32.6531 811.313 Q37.8093 807.239 46.212 807.239 Q54.6147 807.239 59.771 811.313 Q64.9272 815.356 64.9272 821.849 Q64.9272 825.763 63.3994 828.596 Q61.8398 831.397 58.657 833.243 M46.212 813.319 Q39.7508 813.319 36.0905 815.992 Q32.3984 818.634 32.3984 823.281 Q32.3984 827.928 36.0905 830.601 Q39.7508 833.243 46.212 833.243 Q52.6732 833.243 56.3653 830.601 Q60.0256 827.928 60.0256 823.281 Q60.0256 818.634 56.3653 815.992 Q52.6732 813.319 46.212 813.319 Z" fill="#000000" fill-rule="nonzero" fill-opacity="1" /><path clip-path="url(#clip990)" d="M49.9359 798.136 L28.3562 798.136 L28.3562 792.28 L49.7131 792.28 Q54.7739 792.28 57.3202 790.307 Q59.8346 788.333 59.8346 784.386 Q59.8346 779.644 56.8109 776.907 Q53.7872 774.138 48.5673 774.138 L28.3562 774.138 L28.3562 768.281 L64.0042 768.281 L64.0042 774.138 L58.5296 774.138 Q61.7762 776.27 63.3676 779.103 Q64.9272 781.904 64.9272 785.628 Q64.9272 791.771 61.1078 794.953 Q57.2883 798.136 49.9359 798.136 M27.4968 783.4 L27.4968 783.4 Z" fill="#000000" fill-rule="nonzero" fill-opacity="1" /><path clip-path="url(#clip990)" d="M18.2347 750.425 L28.3562 750.425 L28.3562 738.362 L32.9077 738.362 L32.9077 750.425 L52.2594 750.425 Q56.6199 750.425 57.8613 749.248 Q59.1026 748.038 59.1026 744.378 L59.1026 738.362 L64.0042 738.362 L64.0042 744.378 Q64.0042 751.157 61.4897 753.736 Q58.9434 756.314 52.2594 756.314 L32.9077 756.314 L32.9077 760.61 L28.3562 760.61 L28.3562 756.314 L18.2347 756.314 L18.2347 750.425 Z" fill="#000000" fill-rule="nonzero" fill-opacity="1" /><path clip-path="url(#clip990)" d="M28.3562 730.66 L28.3562 724.803 L64.0042 724.803 L64.0042 730.66 L28.3562 730.66 M14.479 730.66 L14.479 724.803 L21.895 724.803 L21.895 730.66 L14.479 730.66 Z" fill="#000000" fill-rule="nonzero" fill-opacity="1" /><path clip-path="url(#clip990)" d="M35.1993 684.795 Q31.2526 682.599 29.3747 679.543 Q27.4968 676.488 27.4968 672.35 Q27.4968 666.78 31.4117 663.756 Q35.2948 660.733 42.4881 660.733 L64.0042 660.733 L64.0042 666.621 L42.679 666.621 Q37.5546 666.621 35.072 668.435 Q32.5894 670.249 32.5894 673.973 Q32.5894 678.525 35.6131 681.166 Q38.6368 683.808 43.8567 683.808 L64.0042 683.808 L64.0042 689.697 L42.679 689.697 Q37.5228 689.697 35.072 691.511 Q32.5894 693.325 32.5894 697.113 Q32.5894 701.6 35.6449 704.242 Q38.6686 706.884 43.8567 706.884 L64.0042 706.884 L64.0042 712.772 L28.3562 712.772 L28.3562 706.884 L33.8944 706.884 Q30.616 704.879 29.0564 702.078 Q27.4968 699.277 27.4968 695.426 Q27.4968 691.543 29.4702 688.837 Q31.4436 686.1 35.1993 684.795 Z" fill="#000000" fill-rule="nonzero" fill-opacity="1" /><path clip-path="url(#clip990)" d="M44.7161 618.56 L47.5806 618.56 L47.5806 645.487 Q53.6281 645.105 56.8109 641.858 Q59.9619 638.58 59.9619 632.755 Q59.9619 629.381 59.1344 626.23 Q58.3069 623.048 56.6518 619.928 L62.1899 619.928 Q63.5267 623.079 64.227 626.39 Q64.9272 629.7 64.9272 633.105 Q64.9272 641.635 59.9619 646.633 Q54.9967 651.598 46.5303 651.598 Q37.7774 651.598 32.6531 646.887 Q27.4968 642.145 27.4968 634.124 Q27.4968 626.931 32.1438 622.761 Q36.7589 618.56 44.7161 618.56 M42.9973 624.416 Q38.1912 624.48 35.3266 627.122 Q32.4621 629.732 32.4621 634.06 Q32.4621 638.962 35.2312 641.922 Q38.0002 644.85 43.0292 645.296 L42.9973 624.416 Z" fill="#000000" fill-rule="nonzero" fill-opacity="1" /><path clip-path="url(#clip990)" d="M14.5426 574.159 Q21.8632 578.424 29.0246 580.493 Q36.186 582.562 43.5384 582.562 Q50.8908 582.562 58.1159 580.493 Q65.3091 578.392 72.5979 574.159 L72.5979 579.252 Q65.1182 584.026 57.8931 586.413 Q50.668 588.768 43.5384 588.768 Q36.4406 588.768 29.2474 586.413 Q22.0542 584.058 14.5426 579.252 L14.5426 574.159 Z" fill="#000000" fill-rule="nonzero" fill-opacity="1" /><path clip-path="url(#clip990)" d="M42.4881 533.164 L64.0042 533.164 L64.0042 539.02 L42.679 539.02 Q37.6183 539.02 35.1038 540.994 Q32.5894 542.967 32.5894 546.914 Q32.5894 551.656 35.6131 554.393 Q38.6368 557.131 43.8567 557.131 L64.0042 557.131 L64.0042 563.019 L28.3562 563.019 L28.3562 557.131 L33.8944 557.131 Q30.6797 555.03 29.0883 552.197 Q27.4968 549.333 27.4968 545.609 Q27.4968 539.466 31.3163 536.315 Q35.1038 533.164 42.4881 533.164 Z" fill="#000000" fill-rule="nonzero" fill-opacity="1" /><path clip-path="url(#clip990)" d="M29.4065 498.757 L34.9447 498.757 Q33.6716 501.24 33.035 503.913 Q32.3984 506.587 32.3984 509.452 Q32.3984 513.812 33.7352 516.008 Q35.072 518.173 37.7456 518.173 Q39.7826 518.173 40.9603 516.613 Q42.1061 515.053 43.1565 510.343 L43.6021 508.338 Q44.9389 502.099 47.3897 499.489 Q49.8086 496.847 54.1691 496.847 Q59.1344 496.847 62.0308 500.794 Q64.9272 504.709 64.9272 511.584 Q64.9272 514.449 64.3543 517.568 Q63.8132 520.655 62.6992 524.093 L56.6518 524.093 Q58.3387 520.846 59.198 517.695 Q60.0256 514.544 60.0256 511.457 Q60.0256 507.319 58.6251 505.091 Q57.1929 502.863 54.6147 502.863 Q52.2276 502.863 50.9545 504.486 Q49.6813 506.078 48.5037 511.52 L48.0262 513.557 Q46.8804 519 44.5251 521.419 Q42.138 523.838 38.0002 523.838 Q32.9713 523.838 30.2341 520.273 Q27.4968 516.708 27.4968 510.152 Q27.4968 506.905 27.9743 504.041 Q28.4517 501.176 29.4065 498.757 Z" fill="#000000" fill-rule="nonzero" fill-opacity="1" /><path clip-path="url(#clip990)" d="M14.5426 488.445 L14.5426 483.352 Q22.0542 478.578 29.2474 476.223 Q36.4406 473.835 43.5384 473.835 Q50.668 473.835 57.8931 476.223 Q65.1182 478.578 72.5979 483.352 L72.5979 488.445 Q65.3091 484.212 58.1159 482.143 Q50.8908 480.042 43.5384 480.042 Q36.186 480.042 29.0246 482.143 Q21.8632 484.212 14.5426 488.445 Z" fill="#000000" fill-rule="nonzero" fill-opacity="1" /><path clip-path="url(#clip990)" d="M907.977 12.096 L942.734 12.096 L942.734 18.9825 L916.16 18.9825 L916.16 36.8065 L940.141 36.8065 L940.141 43.6931 L916.16 43.6931 L916.16 72.576 L907.977 72.576 L907.977 12.096 Z" fill="#000000" fill-rule="nonzero" fill-opacity="1" /><path clip-path="url(#clip990)" d="M969.996 32.4315 Q964.001 32.4315 960.517 37.1306 Q957.033 41.7891 957.033 49.9314 Q957.033 58.0738 960.477 62.7728 Q963.96 67.4314 969.996 67.4314 Q975.951 67.4314 979.435 62.7323 Q982.919 58.0333 982.919 49.9314 Q982.919 41.8701 979.435 37.1711 Q975.951 32.4315 969.996 32.4315 M969.996 26.1121 Q979.718 26.1121 985.268 32.4315 Q990.818 38.7509 990.818 49.9314 Q990.818 61.0714 985.268 67.4314 Q979.718 73.7508 969.996 73.7508 Q960.234 73.7508 954.684 67.4314 Q949.175 61.0714 949.175 49.9314 Q949.175 38.7509 954.684 32.4315 Q960.234 26.1121 969.996 26.1121 Z" fill="#000000" fill-rule="nonzero" fill-opacity="1" /><path clip-path="url(#clip990)" d="M1003.17 9.54393 L1010.63 9.54393 L1010.63 72.576 L1003.17 72.576 L1003.17 9.54393 Z" fill="#000000" fill-rule="nonzero" fill-opacity="1" /><path clip-path="url(#clip990)" d="M1056.08 34.0924 L1056.08 9.54393 L1063.53 9.54393 L1063.53 72.576 L1056.08 72.576 L1056.08 65.7705 Q1053.73 69.8214 1050.12 71.8063 Q1046.56 73.7508 1041.54 73.7508 Q1033.31 73.7508 1028.13 67.1883 Q1022.98 60.6258 1022.98 49.9314 Q1022.98 39.2371 1028.13 32.6746 Q1033.31 26.1121 1041.54 26.1121 Q1046.56 26.1121 1050.12 28.0971 Q1053.73 30.0415 1056.08 34.0924 M1030.68 49.9314 Q1030.68 58.1548 1034.04 62.8538 Q1037.44 67.5124 1043.36 67.5124 Q1049.27 67.5124 1052.68 62.8538 Q1056.08 58.1548 1056.08 49.9314 Q1056.08 41.7081 1052.68 37.0496 Q1049.27 32.3505 1043.36 32.3505 Q1037.44 32.3505 1034.04 37.0496 Q1030.68 41.7081 1030.68 49.9314 Z" fill="#000000" fill-rule="nonzero" fill-opacity="1" /><path clip-path="url(#clip990)" d="M1105.17 34.1734 Q1103.92 33.4443 1102.42 33.1202 Q1100.96 32.7556 1099.18 32.7556 Q1092.86 32.7556 1089.46 36.8875 Q1086.1 40.9789 1086.1 48.6757 L1086.1 72.576 L1078.6 72.576 L1078.6 27.2059 L1086.1 27.2059 L1086.1 34.2544 Q1088.44 30.1225 1092.21 28.1376 Q1095.98 26.1121 1101.37 26.1121 Q1102.14 26.1121 1103.07 26.2337 Q1104 26.3147 1105.13 26.5172 L1105.17 34.1734 Z" fill="#000000" fill-rule="nonzero" fill-opacity="1" /><path clip-path="url(#clip990)" d="M1157.27 9.62495 Q1151.84 18.942 1149.21 28.0566 Q1146.58 37.1711 1146.58 46.5287 Q1146.58 55.8863 1149.21 65.0818 Q1151.88 74.2369 1157.27 83.5134 L1150.79 83.5134 Q1144.71 73.9938 1141.67 64.7983 Q1138.68 55.6027 1138.68 46.5287 Q1138.68 37.4952 1141.67 28.3401 Q1144.67 19.1851 1150.79 9.62495 L1157.27 9.62495 Z" fill="#000000" fill-rule="nonzero" fill-opacity="1" /><path clip-path="url(#clip990)" d="M1202.07 20.5624 L1202.07 43.1259 L1224.64 43.1259 L1224.64 50.0125 L1202.07 50.0125 L1202.07 72.576 L1195.27 72.576 L1195.27 50.0125 L1172.7 50.0125 L1172.7 43.1259 L1195.27 43.1259 L1195.27 20.5624 L1202.07 20.5624 Z" fill="#000000" fill-rule="nonzero" fill-opacity="1" /><path clip-path="url(#clip990)" d="M1240.07 9.62495 L1246.55 9.62495 Q1252.63 19.1851 1255.63 28.3401 Q1258.66 37.4952 1258.66 46.5287 Q1258.66 55.6027 1255.63 64.7983 Q1252.63 73.9938 1246.55 83.5134 L1240.07 83.5134 Q1245.46 74.2369 1248.09 65.0818 Q1250.76 55.8863 1250.76 46.5287 Q1250.76 37.1711 1248.09 28.0566 Q1245.46 18.942 1240.07 9.62495 Z" fill="#000000" fill-rule="nonzero" fill-opacity="1" /><path clip-path="url(#clip990)" d="M1318.54 17.4837 Q1312.22 17.4837 1309.02 23.7221 Q1305.86 29.92 1305.86 42.3968 Q1305.86 54.833 1309.02 61.0714 Q1312.22 67.2693 1318.54 67.2693 Q1324.9 67.2693 1328.06 61.0714 Q1331.26 54.833 1331.26 42.3968 Q1331.26 29.92 1328.06 23.7221 Q1324.9 17.4837 1318.54 17.4837 M1318.54 11.0023 Q1328.7 11.0023 1334.05 19.0636 Q1339.44 27.0843 1339.44 42.3968 Q1339.44 57.6687 1334.05 65.73 Q1328.7 73.7508 1318.54 73.7508 Q1308.37 73.7508 1302.98 65.73 Q1297.63 57.6687 1297.63 42.3968 Q1297.63 27.0843 1302.98 19.0636 Q1308.37 11.0023 1318.54 11.0023 Z" fill="#000000" fill-rule="nonzero" fill-opacity="1" /><path clip-path="url(#clip990)" d="M1397.04 9.62495 Q1391.61 18.942 1388.98 28.0566 Q1386.35 37.1711 1386.35 46.5287 Q1386.35 55.8863 1388.98 65.0818 Q1391.65 74.2369 1397.04 83.5134 L1390.56 83.5134 Q1384.48 73.9938 1381.45 64.7983 Q1378.45 55.6027 1378.45 46.5287 Q1378.45 37.4952 1381.45 28.3401 Q1384.44 19.1851 1390.56 9.62495 L1397.04 9.62495 Z" fill="#000000" fill-rule="nonzero" fill-opacity="1" /><path clip-path="url(#clip990)" d="M1440.43 28.5427 L1440.43 35.5912 Q1437.27 33.9709 1433.87 33.1607 Q1430.46 32.3505 1426.82 32.3505 Q1421.27 32.3505 1418.47 34.0519 Q1415.72 35.7533 1415.72 39.156 Q1415.72 41.7486 1417.7 43.2475 Q1419.69 44.7058 1425.68 46.0426 L1428.23 46.6097 Q1436.17 48.3111 1439.5 51.4303 Q1442.86 54.509 1442.86 60.0587 Q1442.86 66.3781 1437.84 70.0644 Q1432.85 73.7508 1424.1 73.7508 Q1420.46 73.7508 1416.49 73.0216 Q1412.56 72.3329 1408.18 70.9151 L1408.18 63.2184 Q1412.31 65.3654 1416.32 66.4591 Q1420.34 67.5124 1424.26 67.5124 Q1429.53 67.5124 1432.37 65.73 Q1435.2 63.9071 1435.2 60.6258 Q1435.2 57.5877 1433.14 55.9673 Q1431.11 54.3469 1424.18 52.8481 L1421.59 52.2405 Q1414.66 50.7821 1411.59 47.7845 Q1408.51 44.7463 1408.51 39.4801 Q1408.51 33.0797 1413.04 29.5959 Q1417.58 26.1121 1425.93 26.1121 Q1430.06 26.1121 1433.7 26.7198 Q1437.35 27.3274 1440.43 28.5427 Z" fill="#000000" fill-rule="nonzero" fill-opacity="1" /><path clip-path="url(#clip990)" d="M1490.05 35.9153 Q1492.85 30.8922 1496.74 28.5022 Q1500.62 26.1121 1505.89 26.1121 Q1512.98 26.1121 1516.83 31.0947 Q1520.68 36.0368 1520.68 45.1919 L1520.68 72.576 L1513.18 72.576 L1513.18 45.4349 Q1513.18 38.913 1510.87 35.7533 Q1508.56 32.5936 1503.82 32.5936 Q1498.03 32.5936 1494.67 36.4419 Q1491.31 40.2903 1491.31 46.9338 L1491.31 72.576 L1483.81 72.576 L1483.81 45.4349 Q1483.81 38.8725 1481.5 35.7533 Q1479.19 32.5936 1474.37 32.5936 Q1468.66 32.5936 1465.3 36.4824 Q1461.94 40.3308 1461.94 46.9338 L1461.94 72.576 L1454.44 72.576 L1454.44 27.2059 L1461.94 27.2059 L1461.94 34.2544 Q1464.49 30.082 1468.05 28.0971 Q1471.62 26.1121 1476.52 26.1121 Q1481.46 26.1121 1484.91 28.6237 Q1488.39 31.1352 1490.05 35.9153 Z" fill="#000000" fill-rule="nonzero" fill-opacity="1" /><path clip-path="url(#clip990)" d="M1556.16 49.7694 Q1547.13 49.7694 1543.64 51.8354 Q1540.16 53.9013 1540.16 58.8839 Q1540.16 62.8538 1542.75 65.2034 Q1545.39 67.5124 1549.88 67.5124 Q1556.08 67.5124 1559.81 63.1374 Q1563.58 58.7219 1563.58 51.4303 L1563.58 49.7694 L1556.16 49.7694 M1571.03 46.6907 L1571.03 72.576 L1563.58 72.576 L1563.58 65.6895 Q1561.02 69.8214 1557.22 71.8063 Q1553.41 73.7508 1547.9 73.7508 Q1540.93 73.7508 1536.8 69.8619 Q1532.71 65.9325 1532.71 59.3701 Q1532.71 51.7138 1537.81 47.825 Q1542.96 43.9361 1553.12 43.9361 L1563.58 43.9361 L1563.58 43.2069 Q1563.58 38.0623 1560.17 35.2672 Q1556.81 32.4315 1550.69 32.4315 Q1546.8 32.4315 1543.12 33.3632 Q1539.43 34.295 1536.03 36.1584 L1536.03 29.2718 Q1540.12 27.692 1543.97 26.9223 Q1547.82 26.1121 1551.46 26.1121 Q1561.31 26.1121 1566.17 31.2163 Q1571.03 36.3204 1571.03 46.6907 Z" fill="#000000" fill-rule="nonzero" fill-opacity="1" /><path clip-path="url(#clip990)" d="M1586.38 9.54393 L1593.84 9.54393 L1593.84 72.576 L1586.38 72.576 L1586.38 9.54393 Z" fill="#000000" fill-rule="nonzero" fill-opacity="1" /><path clip-path="url(#clip990)" d="M1609.43 9.54393 L1616.89 9.54393 L1616.89 72.576 L1609.43 72.576 L1609.43 9.54393 Z" fill="#000000" fill-rule="nonzero" fill-opacity="1" /><path clip-path="url(#clip990)" d="M1631.31 9.62495 L1637.79 9.62495 Q1643.86 19.1851 1646.86 28.3401 Q1649.9 37.4952 1649.9 46.5287 Q1649.9 55.6027 1646.86 64.7983 Q1643.86 73.9938 1637.79 83.5134 L1631.31 83.5134 Q1636.69 74.2369 1639.33 65.0818 Q1642 55.8863 1642 46.5287 Q1642 37.1711 1639.33 28.0566 Q1636.69 18.942 1631.31 9.62495 Z" fill="#000000" fill-rule="nonzero" fill-opacity="1" /><polyline clip-path="url(#clip992)" style="stroke:#871177; stroke-linecap:round; stroke-linejoin:round; stroke-width:4; stroke-opacity:1; fill:none" points="265.903,1369.14 329.218,1364.49 392.533,1258.12 455.847,1229.46 519.162,1192.62 582.477,1160.27 645.791,1121.62 709.106,1079.74 772.421,1046.4 835.735,1013.42 899.05,981.873 962.365,851.509 1025.68,770.653 1088.99,803.88 1152.31,776.874 1215.62,692.972 1278.94,608.649 1342.25,612.003 1405.57,567.792 1468.88,574.11 1532.2,494.243 1595.51,502.845 1658.83,478.058 1722.14,440.02 1785.46,425.132 1848.77,372.384 1912.09,355.551 1975.4,341.506 2038.71,300.162 2102.03,256.13 2165.34,212.729 2228.66,260.536 2291.97,177.834 "/>
<polyline clip-path="url(#clip992)" style="stroke:#aa3354; stroke-linecap:round; stroke-linejoin:round; stroke-width:4; stroke-opacity:1; fill:none" points="265.903,1371.93 329.218,1365.63 392.533,1262.48 455.847,1225.87 519.162,1184.96 582.477,1156.25 645.791,1109.34 709.106,1070.55 772.421,1045.73 835.735,1011.05 899.05,962.465 962.365,889.482 1025.68,800.462 1088.99,743.323 1152.31,679.494 1215.62,737.799 1278.94,628.025 1342.25,594.604 1405.57,543.346 1468.88,587.524 1532.2,524.391 1595.51,488.265 1658.83,481.509 1722.14,444.07 1785.46,423.949 1848.77,392.942 1912.09,358.678 1975.4,336.062 2038.71,286.57 2102.03,292.937 2165.34,231.214 2228.66,217.654 2291.97,160.256 "/>
<polyline clip-path="url(#clip992)" style="stroke:#cc6666; stroke-linecap:round; stroke-linejoin:round; stroke-width:4; stroke-opacity:1; fill:none" points="265.903,1386.4 329.218,1383.74 392.533,1253.57 455.847,1240.8 519.162,1218.25 582.477,1202.44 645.791,1179.79 709.106,1153.61 772.421,1147.38 835.735,1105.34 899.05,1057.2 962.365,1061.79 1025.68,1008.02 1088.99,1019.18 1152.31,981.905 1215.62,907.092 1278.94,844.656 1342.25,821.279 1405.57,808.724 1468.88,803.75 1532.2,752.978 1595.51,660.215 1658.83,731.432 1722.14,687.999 1785.46,766.943 1848.77,759.847 1912.09,740.553 1975.4,716.382 2038.71,682.296 2102.03,670.243 2165.34,647.222 2228.66,567.16 2291.97,585.839 "/>
<polyline clip-path="url(#clip992)" style="stroke:#ed9944; stroke-linecap:round; stroke-linejoin:round; stroke-width:4; stroke-opacity:1; fill:none" points="265.903,1385.36 329.218,1383.93 392.533,1298.64 455.847,1261.49 519.162,1246.83 582.477,1232.67 645.791,1211.19 709.106,1211.77 772.421,1184.62 835.735,1172 899.05,1164.61 962.365,1163.88 1025.68,1142.69 1088.99,1130.67 1152.31,1130.75 1215.62,1097.09 1278.94,1088.5 1342.25,1077.47 1405.57,1071.12 1468.88,1054.73 1532.2,1032.6 1595.51,1031.2 1658.83,1014.6 1722.14,995.919 1785.46,958.82 1848.77,964.377 1912.09,958.658 1975.4,909.328 2038.71,889.839 2102.03,860.63 2165.34,798.129 2228.66,769.665 2291.97,771.852 "/>
<polyline clip-path="url(#clip992)" style="stroke:#eddd00; stroke-linecap:round; stroke-linejoin:round; stroke-width:4; stroke-opacity:1; fill:none" points="265.903,1385.83 329.218,1383.17 392.533,1269.53 455.847,1252.81 519.162,1231.57 582.477,1227.73 645.791,1218.97 709.106,1190.47 772.421,1192.95 835.735,1156.35 899.05,1165.1 962.365,1157.03 1025.68,1127.29 1088.99,1140.44 1152.31,1124.29 1215.62,1094.48 1278.94,1085.13 1342.25,1069.71 1405.57,1069.4 1468.88,1073.6 1532.2,1045.05 1595.51,1026.34 1658.83,995.627 1722.14,1012.82 1785.46,989.066 1848.77,975.863 1912.09,960.521 1975.4,910.381 2038.71,893.921 2102.03,868.6 2165.34,830.643 2228.66,778.834 2291.97,748.799 "/>
<polyline clip-path="url(#clip992)" style="stroke:#99dd54; stroke-linecap:round; stroke-linejoin:round; stroke-width:4; stroke-opacity:1; fill:none" points="265.903,1385.63 329.218,1382.9 392.533,1236.66 455.847,1236.06 519.162,1213.89 582.477,1184.38 645.791,1180.54 709.106,1155.15 772.421,1135.24 835.735,1107.81 899.05,1084.44 962.365,1050.87 1025.68,1043.77 1088.99,1003.82 1152.31,994.023 1215.62,902.572 1278.94,855.348 1342.25,814.847 1405.57,792.572 1468.88,796.476 1532.2,731.821 1595.51,738.155 1658.83,711.894 1722.14,698.189 1785.46,781.896 1848.77,747.422 1912.09,726.345 1975.4,723.769 2038.71,692.502 2102.03,663.131 2165.34,653.2 2228.66,630.601 2291.97,579.959 "/>
<polyline clip-path="url(#clip992)" style="stroke:#44dd87; stroke-linecap:round; stroke-linejoin:round; stroke-width:4; stroke-opacity:1; fill:none" points="265.903,1384.29 329.218,1376.63 392.533,1295.98 455.847,1259.43 519.162,1250.88 582.477,1236.09 645.791,1219.47 709.106,1213.55 772.421,1198.05 835.735,1190.63 899.05,1165.5 962.365,1145.92 1025.68,1144.12 1088.99,1130.92 1152.31,1126.62 1215.62,1100.31 1278.94,1092.42 1342.25,1077.54 1405.57,1078.46 1468.88,1058.78 1532.2,1041.26 1595.51,1033.23 1658.83,1015.1 1722.14,977.758 1785.46,985.016 1848.77,960.845 1912.09,959.97 1975.4,920.863 2038.71,899.446 2102.03,866.883 2165.34,809.777 2228.66,773.828 2291.97,769.875 "/>
<polyline clip-path="url(#clip992)" style="stroke:#21ccba; stroke-linecap:round; stroke-linejoin:round; stroke-width:4; stroke-opacity:1; fill:none" points="265.903,1384.92 329.218,1377.97 392.533,1279.54 455.847,1255.59 519.162,1227.47 582.477,1232.51 645.791,1216.15 709.106,1199.18 772.421,1195.2 835.735,1178.92 899.05,1142 962.365,1148.79 1025.68,1147.02 1088.99,1136.44 1152.31,1103.67 1215.62,1092.08 1278.94,1089.25 1342.25,1066.07 1405.57,1079.89 1468.88,1044.57 1532.2,1000.44 1595.51,1004.28 1658.83,1014.6 1722.14,1002.16 1785.46,999.305 1848.77,971.132 1912.09,934.357 1975.4,927.521 2038.71,891.508 2102.03,832.49 2165.34,813.778 2228.66,753.756 2291.97,749.268 "/>
<path clip-path="url(#clip990)" d="M276.709 633.356 L831.17 633.356 L831.17 166.796 L276.709 166.796  Z" fill="#ffffff" fill-rule="evenodd" fill-opacity="1"/>
<polyline clip-path="url(#clip990)" style="stroke:#000000; stroke-linecap:round; stroke-linejoin:round; stroke-width:4; stroke-opacity:1; fill:none" points="276.709,633.356 831.17,633.356 831.17,166.796 276.709,166.796 276.709,633.356 "/>
<polyline clip-path="url(#clip990)" style="stroke:#871177; stroke-linecap:round; stroke-linejoin:round; stroke-width:4; stroke-opacity:1; fill:none" points="300.571,218.636 443.747,218.636 "/>
<path clip-path="url(#clip990)" d="M467.61 201.356 L472.286 201.356 L472.286 215.522 L489.276 215.522 L489.276 201.356 L493.952 201.356 L493.952 235.916 L489.276 235.916 L489.276 219.457 L472.286 219.457 L472.286 235.916 L467.61 235.916 L467.61 201.356 Z" fill="#000000" fill-rule="nonzero" fill-opacity="1" /><path clip-path="url(#clip990)" d="M514.855 222.883 Q509.693 222.883 507.702 224.064 Q505.711 225.244 505.711 228.092 Q505.711 230.36 507.193 231.703 Q508.697 233.022 511.267 233.022 Q514.809 233.022 516.938 230.522 Q519.091 227.999 519.091 223.832 L519.091 222.883 L514.855 222.883 M523.35 221.124 L523.35 235.916 L519.091 235.916 L519.091 231.981 Q517.633 234.342 515.457 235.476 Q513.281 236.587 510.133 236.587 Q506.151 236.587 503.79 234.365 Q501.452 232.119 501.452 228.369 Q501.452 223.994 504.369 221.772 Q507.309 219.55 513.119 219.55 L519.091 219.55 L519.091 219.133 Q519.091 216.194 517.146 214.596 Q515.225 212.976 511.73 212.976 Q509.508 212.976 507.401 213.508 Q505.295 214.041 503.35 215.106 L503.35 211.17 Q505.688 210.268 507.887 209.828 Q510.086 209.365 512.17 209.365 Q517.795 209.365 520.572 212.282 Q523.35 215.198 523.35 221.124 Z" fill="#000000" fill-rule="nonzero" fill-opacity="1" /><path clip-path="url(#clip990)" d="M548.651 210.754 L548.651 214.782 Q546.845 213.856 544.901 213.393 Q542.957 212.93 540.873 212.93 Q537.702 212.93 536.105 213.902 Q534.531 214.874 534.531 216.819 Q534.531 218.3 535.665 219.157 Q536.799 219.99 540.225 220.754 L541.683 221.078 Q546.22 222.05 548.119 223.832 Q550.04 225.592 550.04 228.763 Q550.04 232.374 547.169 234.481 Q544.322 236.587 539.322 236.587 Q537.239 236.587 534.97 236.17 Q532.725 235.777 530.225 234.967 L530.225 230.569 Q532.586 231.795 534.878 232.42 Q537.17 233.022 539.415 233.022 Q542.424 233.022 544.044 232.004 Q545.665 230.962 545.665 229.087 Q545.665 227.351 544.484 226.425 Q543.327 225.499 539.369 224.643 L537.887 224.295 Q533.929 223.462 532.17 221.749 Q530.41 220.013 530.41 217.004 Q530.41 213.346 533.003 211.356 Q535.595 209.365 540.364 209.365 Q542.725 209.365 544.808 209.712 Q546.892 210.059 548.651 210.754 Z" fill="#000000" fill-rule="nonzero" fill-opacity="1" /><path clip-path="url(#clip990)" d="M578.373 220.268 L578.373 235.916 L574.114 235.916 L574.114 220.407 Q574.114 216.726 572.679 214.897 Q571.243 213.069 568.373 213.069 Q564.924 213.069 562.933 215.268 Q560.943 217.467 560.943 221.263 L560.943 235.916 L556.66 235.916 L556.66 199.897 L560.943 199.897 L560.943 214.018 Q562.47 211.68 564.53 210.522 Q566.614 209.365 569.322 209.365 Q573.79 209.365 576.081 212.143 Q578.373 214.897 578.373 220.268 Z" fill="#000000" fill-rule="nonzero" fill-opacity="1" /><path clip-path="url(#clip990)" d="M587.053 201.356 L594.021 201.356 L602.84 224.874 L611.706 201.356 L618.674 201.356 L618.674 235.916 L614.114 235.916 L614.114 205.569 L605.202 229.272 L600.502 229.272 L591.591 205.569 L591.591 235.916 L587.053 235.916 L587.053 201.356 Z" fill="#000000" fill-rule="nonzero" fill-opacity="1" /><path clip-path="url(#clip990)" d="M639.553 222.883 Q634.391 222.883 632.4 224.064 Q630.41 225.244 630.41 228.092 Q630.41 230.36 631.891 231.703 Q633.396 233.022 635.965 233.022 Q639.507 233.022 641.637 230.522 Q643.789 227.999 643.789 223.832 L643.789 222.883 L639.553 222.883 M648.049 221.124 L648.049 235.916 L643.789 235.916 L643.789 231.981 Q642.331 234.342 640.155 235.476 Q637.979 236.587 634.831 236.587 Q630.85 236.587 628.488 234.365 Q626.151 232.119 626.151 228.369 Q626.151 223.994 629.067 221.772 Q632.007 219.55 637.817 219.55 L643.789 219.55 L643.789 219.133 Q643.789 216.194 641.845 214.596 Q639.924 212.976 636.428 212.976 Q634.206 212.976 632.1 213.508 Q629.993 214.041 628.049 215.106 L628.049 211.17 Q630.387 210.268 632.586 209.828 Q634.785 209.365 636.868 209.365 Q642.493 209.365 645.271 212.282 Q648.049 215.198 648.049 221.124 Z" fill="#000000" fill-rule="nonzero" fill-opacity="1" /><path clip-path="url(#clip990)" d="M660.942 232.027 L660.942 245.777 L656.66 245.777 L656.66 209.99 L660.942 209.99 L660.942 213.925 Q662.285 211.61 664.322 210.499 Q666.382 209.365 669.229 209.365 Q673.951 209.365 676.891 213.115 Q679.854 216.865 679.854 222.976 Q679.854 229.087 676.891 232.837 Q673.951 236.587 669.229 236.587 Q666.382 236.587 664.322 235.476 Q662.285 234.342 660.942 232.027 M675.433 222.976 Q675.433 218.277 673.488 215.615 Q671.567 212.93 668.187 212.93 Q664.808 212.93 662.863 215.615 Q660.942 218.277 660.942 222.976 Q660.942 227.675 662.863 230.36 Q664.808 233.022 668.187 233.022 Q671.567 233.022 673.488 230.36 Q675.433 227.675 675.433 222.976 Z" fill="#000000" fill-rule="nonzero" fill-opacity="1" /><path clip-path="url(#clip990)" d="M687.099 201.356 L691.775 201.356 L691.775 231.981 L708.604 231.981 L708.604 235.916 L687.099 235.916 L687.099 201.356 Z" fill="#000000" fill-rule="nonzero" fill-opacity="1" /><path clip-path="url(#clip990)" d="M725.108 222.883 Q719.946 222.883 717.956 224.064 Q715.965 225.244 715.965 228.092 Q715.965 230.36 717.446 231.703 Q718.951 233.022 721.52 233.022 Q725.062 233.022 727.192 230.522 Q729.344 227.999 729.344 223.832 L729.344 222.883 L725.108 222.883 M733.604 221.124 L733.604 235.916 L729.344 235.916 L729.344 231.981 Q727.886 234.342 725.71 235.476 Q723.534 236.587 720.386 236.587 Q716.405 236.587 714.044 234.365 Q711.706 232.119 711.706 228.369 Q711.706 223.994 714.622 221.772 Q717.562 219.55 723.372 219.55 L729.344 219.55 L729.344 219.133 Q729.344 216.194 727.4 214.596 Q725.479 212.976 721.983 212.976 Q719.761 212.976 717.655 213.508 Q715.548 214.041 713.604 215.106 L713.604 211.17 Q715.942 210.268 718.141 209.828 Q720.34 209.365 722.423 209.365 Q728.048 209.365 730.826 212.282 Q733.604 215.198 733.604 221.124 Z" fill="#000000" fill-rule="nonzero" fill-opacity="1" /><path clip-path="url(#clip990)" d="M740.525 209.99 L760.756 209.99 L760.756 213.879 L744.738 232.513 L760.756 232.513 L760.756 235.916 L739.946 235.916 L739.946 232.027 L755.965 213.393 L740.525 213.393 L740.525 209.99 Z" fill="#000000" fill-rule="nonzero" fill-opacity="1" /><path clip-path="url(#clip990)" d="M778.048 238.323 Q776.242 242.953 774.529 244.365 Q772.816 245.777 769.946 245.777 L766.543 245.777 L766.543 242.212 L769.043 242.212 Q770.803 242.212 771.775 241.379 Q772.747 240.545 773.927 237.443 L774.691 235.499 L764.205 209.99 L768.719 209.99 L776.821 230.268 L784.923 209.99 L789.437 209.99 L778.048 238.323 Z" fill="#000000" fill-rule="nonzero" fill-opacity="1" /><polyline clip-path="url(#clip990)" style="stroke:#aa3354; stroke-linecap:round; stroke-linejoin:round; stroke-width:4; stroke-opacity:1; fill:none" points="300.571,270.476 443.747,270.476 "/>
<path clip-path="url(#clip990)" d="M467.61 253.196 L472.286 253.196 L472.286 267.362 L489.276 267.362 L489.276 253.196 L493.952 253.196 L493.952 287.756 L489.276 287.756 L489.276 271.297 L472.286 271.297 L472.286 287.756 L467.61 287.756 L467.61 253.196 Z" fill="#000000" fill-rule="nonzero" fill-opacity="1" /><path clip-path="url(#clip990)" d="M514.855 274.723 Q509.693 274.723 507.702 275.904 Q505.711 277.084 505.711 279.932 Q505.711 282.2 507.193 283.543 Q508.697 284.862 511.267 284.862 Q514.809 284.862 516.938 282.362 Q519.091 279.839 519.091 275.672 L519.091 274.723 L514.855 274.723 M523.35 272.964 L523.35 287.756 L519.091 287.756 L519.091 283.821 Q517.633 286.182 515.457 287.316 Q513.281 288.427 510.133 288.427 Q506.151 288.427 503.79 286.205 Q501.452 283.959 501.452 280.209 Q501.452 275.834 504.369 273.612 Q507.309 271.39 513.119 271.39 L519.091 271.39 L519.091 270.973 Q519.091 268.034 517.146 266.436 Q515.225 264.816 511.73 264.816 Q509.508 264.816 507.401 265.348 Q505.295 265.881 503.35 266.946 L503.35 263.01 Q505.688 262.108 507.887 261.668 Q510.086 261.205 512.17 261.205 Q517.795 261.205 520.572 264.122 Q523.35 267.038 523.35 272.964 Z" fill="#000000" fill-rule="nonzero" fill-opacity="1" /><path clip-path="url(#clip990)" d="M548.651 262.594 L548.651 266.622 Q546.845 265.696 544.901 265.233 Q542.957 264.77 540.873 264.77 Q537.702 264.77 536.105 265.742 Q534.531 266.714 534.531 268.659 Q534.531 270.14 535.665 270.997 Q536.799 271.83 540.225 272.594 L541.683 272.918 Q546.22 273.89 548.119 275.672 Q550.04 277.432 550.04 280.603 Q550.04 284.214 547.169 286.321 Q544.322 288.427 539.322 288.427 Q537.239 288.427 534.97 288.01 Q532.725 287.617 530.225 286.807 L530.225 282.409 Q532.586 283.635 534.878 284.26 Q537.17 284.862 539.415 284.862 Q542.424 284.862 544.044 283.844 Q545.665 282.802 545.665 280.927 Q545.665 279.191 544.484 278.265 Q543.327 277.339 539.369 276.483 L537.887 276.135 Q533.929 275.302 532.17 273.589 Q530.41 271.853 530.41 268.844 Q530.41 265.186 533.003 263.196 Q535.595 261.205 540.364 261.205 Q542.725 261.205 544.808 261.552 Q546.892 261.899 548.651 262.594 Z" fill="#000000" fill-rule="nonzero" fill-opacity="1" /><path clip-path="url(#clip990)" d="M578.373 272.108 L578.373 287.756 L574.114 287.756 L574.114 272.247 Q574.114 268.566 572.679 266.737 Q571.243 264.909 568.373 264.909 Q564.924 264.909 562.933 267.108 Q560.943 269.307 560.943 273.103 L560.943 287.756 L556.66 287.756 L556.66 251.737 L560.943 251.737 L560.943 265.858 Q562.47 263.52 564.53 262.362 Q566.614 261.205 569.322 261.205 Q573.79 261.205 576.081 263.983 Q578.373 266.737 578.373 272.108 Z" fill="#000000" fill-rule="nonzero" fill-opacity="1" /><path clip-path="url(#clip990)" d="M587.053 253.196 L594.021 253.196 L602.84 276.714 L611.706 253.196 L618.674 253.196 L618.674 287.756 L614.114 287.756 L614.114 257.409 L605.202 281.112 L600.502 281.112 L591.591 257.409 L591.591 287.756 L587.053 287.756 L587.053 253.196 Z" fill="#000000" fill-rule="nonzero" fill-opacity="1" /><path clip-path="url(#clip990)" d="M639.553 274.723 Q634.391 274.723 632.4 275.904 Q630.41 277.084 630.41 279.932 Q630.41 282.2 631.891 283.543 Q633.396 284.862 635.965 284.862 Q639.507 284.862 641.637 282.362 Q643.789 279.839 643.789 275.672 L643.789 274.723 L639.553 274.723 M648.049 272.964 L648.049 287.756 L643.789 287.756 L643.789 283.821 Q642.331 286.182 640.155 287.316 Q637.979 288.427 634.831 288.427 Q630.85 288.427 628.488 286.205 Q626.151 283.959 626.151 280.209 Q626.151 275.834 629.067 273.612 Q632.007 271.39 637.817 271.39 L643.789 271.39 L643.789 270.973 Q643.789 268.034 641.845 266.436 Q639.924 264.816 636.428 264.816 Q634.206 264.816 632.1 265.348 Q629.993 265.881 628.049 266.946 L628.049 263.01 Q630.387 262.108 632.586 261.668 Q634.785 261.205 636.868 261.205 Q642.493 261.205 645.271 264.122 Q648.049 267.038 648.049 272.964 Z" fill="#000000" fill-rule="nonzero" fill-opacity="1" /><path clip-path="url(#clip990)" d="M660.942 283.867 L660.942 297.617 L656.66 297.617 L656.66 261.83 L660.942 261.83 L660.942 265.765 Q662.285 263.45 664.322 262.339 Q666.382 261.205 669.229 261.205 Q673.951 261.205 676.891 264.955 Q679.854 268.705 679.854 274.816 Q679.854 280.927 676.891 284.677 Q673.951 288.427 669.229 288.427 Q666.382 288.427 664.322 287.316 Q662.285 286.182 660.942 283.867 M675.433 274.816 Q675.433 270.117 673.488 267.455 Q671.567 264.77 668.187 264.77 Q664.808 264.77 662.863 267.455 Q660.942 270.117 660.942 274.816 Q660.942 279.515 662.863 282.2 Q664.808 284.862 668.187 284.862 Q671.567 284.862 673.488 282.2 Q675.433 279.515 675.433 274.816 Z" fill="#000000" fill-rule="nonzero" fill-opacity="1" /><path clip-path="url(#clip990)" d="M707.817 254.33 L707.817 258.89 Q705.155 257.617 702.794 256.992 Q700.433 256.367 698.233 256.367 Q694.414 256.367 692.331 257.848 Q690.271 259.33 690.271 262.061 Q690.271 264.353 691.636 265.534 Q693.025 266.691 696.868 267.409 L699.692 267.987 Q704.923 268.983 707.4 271.506 Q709.9 274.006 709.9 278.219 Q709.9 283.242 706.52 285.834 Q703.164 288.427 696.659 288.427 Q694.206 288.427 691.428 287.871 Q688.673 287.316 685.71 286.228 L685.71 281.413 Q688.558 283.01 691.289 283.821 Q694.021 284.631 696.659 284.631 Q700.664 284.631 702.84 283.057 Q705.016 281.483 705.016 278.566 Q705.016 276.02 703.442 274.584 Q701.891 273.149 698.326 272.432 L695.479 271.876 Q690.247 270.835 687.909 268.612 Q685.571 266.39 685.571 262.432 Q685.571 257.848 688.789 255.21 Q692.03 252.571 697.701 252.571 Q700.132 252.571 702.655 253.011 Q705.178 253.45 707.817 254.33 Z" fill="#000000" fill-rule="nonzero" fill-opacity="1" /><path clip-path="url(#clip990)" d="M721.219 254.469 L721.219 261.83 L729.993 261.83 L729.993 265.14 L721.219 265.14 L721.219 279.214 Q721.219 282.385 722.076 283.288 Q722.956 284.191 725.618 284.191 L729.993 284.191 L729.993 287.756 L725.618 287.756 Q720.687 287.756 718.812 285.927 Q716.937 284.075 716.937 279.214 L716.937 265.14 L713.812 265.14 L713.812 261.83 L716.937 261.83 L716.937 254.469 L721.219 254.469 Z" fill="#000000" fill-rule="nonzero" fill-opacity="1" /><path clip-path="url(#clip990)" d="M750.617 265.811 Q749.9 265.395 749.043 265.21 Q748.21 265.001 747.192 265.001 Q743.58 265.001 741.636 267.362 Q739.715 269.7 739.715 274.098 L739.715 287.756 L735.432 287.756 L735.432 261.83 L739.715 261.83 L739.715 265.858 Q741.057 263.497 743.21 262.362 Q745.363 261.205 748.442 261.205 Q748.881 261.205 749.414 261.274 Q749.946 261.321 750.594 261.436 L750.617 265.811 Z" fill="#000000" fill-rule="nonzero" fill-opacity="1" /><path clip-path="url(#clip990)" d="M755.085 261.83 L759.344 261.83 L759.344 287.756 L755.085 287.756 L755.085 261.83 M755.085 251.737 L759.344 251.737 L759.344 257.131 L755.085 257.131 L755.085 251.737 Z" fill="#000000" fill-rule="nonzero" fill-opacity="1" /><path clip-path="url(#clip990)" d="M786.914 262.825 L786.914 266.807 Q785.108 265.811 783.279 265.325 Q781.474 264.816 779.622 264.816 Q775.478 264.816 773.187 267.455 Q770.895 270.071 770.895 274.816 Q770.895 279.561 773.187 282.2 Q775.478 284.816 779.622 284.816 Q781.474 284.816 783.279 284.33 Q785.108 283.821 786.914 282.825 L786.914 286.76 Q785.131 287.594 783.21 288.01 Q781.312 288.427 779.159 288.427 Q773.302 288.427 769.853 284.746 Q766.404 281.066 766.404 274.816 Q766.404 268.473 769.877 264.839 Q773.372 261.205 779.437 261.205 Q781.404 261.205 783.279 261.622 Q785.154 262.015 786.914 262.825 Z" fill="#000000" fill-rule="nonzero" fill-opacity="1" /><path clip-path="url(#clip990)" d="M798.534 254.469 L798.534 261.83 L807.307 261.83 L807.307 265.14 L798.534 265.14 L798.534 279.214 Q798.534 282.385 799.39 283.288 Q800.27 284.191 802.932 284.191 L807.307 284.191 L807.307 287.756 L802.932 287.756 Q798.001 287.756 796.126 285.927 Q794.251 284.075 794.251 279.214 L794.251 265.14 L791.126 265.14 L791.126 261.83 L794.251 261.83 L794.251 254.469 L798.534 254.469 Z" fill="#000000" fill-rule="nonzero" fill-opacity="1" /><polyline clip-path="url(#clip990)" style="stroke:#cc6666; stroke-linecap:round; stroke-linejoin:round; stroke-width:4; stroke-opacity:1; fill:none" points="300.571,322.316 443.747,322.316 "/>
<path clip-path="url(#clip990)" d="M467.61 305.036 L474.577 305.036 L483.397 328.554 L492.262 305.036 L499.23 305.036 L499.23 339.596 L494.67 339.596 L494.67 309.249 L485.758 332.952 L481.059 332.952 L472.147 309.249 L472.147 339.596 L467.61 339.596 L467.61 305.036 Z" fill="#000000" fill-rule="nonzero" fill-opacity="1" /><path clip-path="url(#clip990)" d="M520.109 326.563 Q514.947 326.563 512.957 327.744 Q510.966 328.924 510.966 331.772 Q510.966 334.04 512.447 335.383 Q513.952 336.702 516.521 336.702 Q520.063 336.702 522.193 334.202 Q524.345 331.679 524.345 327.512 L524.345 326.563 L520.109 326.563 M528.605 324.804 L528.605 339.596 L524.345 339.596 L524.345 335.661 Q522.887 338.022 520.711 339.156 Q518.535 340.267 515.387 340.267 Q511.406 340.267 509.045 338.045 Q506.707 335.799 506.707 332.049 Q506.707 327.674 509.623 325.452 Q512.563 323.23 518.373 323.23 L524.345 323.23 L524.345 322.813 Q524.345 319.874 522.401 318.276 Q520.48 316.656 516.984 316.656 Q514.762 316.656 512.656 317.188 Q510.549 317.721 508.605 318.786 L508.605 314.85 Q510.943 313.948 513.142 313.508 Q515.341 313.045 517.424 313.045 Q523.049 313.045 525.827 315.962 Q528.605 318.878 528.605 324.804 Z" fill="#000000" fill-rule="nonzero" fill-opacity="1" /><path clip-path="url(#clip990)" d="M541.498 335.707 L541.498 349.457 L537.216 349.457 L537.216 313.67 L541.498 313.67 L541.498 317.605 Q542.841 315.29 544.878 314.179 Q546.938 313.045 549.785 313.045 Q554.507 313.045 557.447 316.795 Q560.41 320.545 560.41 326.656 Q560.41 332.767 557.447 336.517 Q554.507 340.267 549.785 340.267 Q546.938 340.267 544.878 339.156 Q542.841 338.022 541.498 335.707 M555.989 326.656 Q555.989 321.957 554.044 319.295 Q552.123 316.61 548.744 316.61 Q545.364 316.61 543.419 319.295 Q541.498 321.957 541.498 326.656 Q541.498 331.355 543.419 334.04 Q545.364 336.702 548.744 336.702 Q552.123 336.702 554.044 334.04 Q555.989 331.355 555.989 326.656 Z" fill="#000000" fill-rule="nonzero" fill-opacity="1" /><path clip-path="url(#clip990)" d="M572.331 323.091 L572.331 335.753 L579.831 335.753 Q583.604 335.753 585.41 334.202 Q587.239 332.628 587.239 329.411 Q587.239 326.17 585.41 324.642 Q583.604 323.091 579.831 323.091 L572.331 323.091 M572.331 308.878 L572.331 319.295 L579.253 319.295 Q582.679 319.295 584.345 318.022 Q586.035 316.725 586.035 314.087 Q586.035 311.471 584.345 310.175 Q582.679 308.878 579.253 308.878 L572.331 308.878 M567.655 305.036 L579.6 305.036 Q584.947 305.036 587.841 307.258 Q590.734 309.48 590.734 313.577 Q590.734 316.749 589.253 318.624 Q587.771 320.499 584.901 320.962 Q588.35 321.702 590.248 324.063 Q592.169 326.401 592.169 329.92 Q592.169 334.549 589.021 337.073 Q585.873 339.596 580.063 339.596 L567.655 339.596 L567.655 305.036 Z" fill="#000000" fill-rule="nonzero" fill-opacity="1" /><path clip-path="url(#clip990)" d="M600.178 305.036 L604.854 305.036 L604.854 335.661 L621.683 335.661 L621.683 339.596 L600.178 339.596 L600.178 305.036 Z" fill="#000000" fill-rule="nonzero" fill-opacity="1" /><polyline clip-path="url(#clip990)" style="stroke:#ed9944; stroke-linecap:round; stroke-linejoin:round; stroke-width:4; stroke-opacity:1; fill:none" points="300.571,374.156 443.747,374.156 "/>
<path clip-path="url(#clip990)" d="M467.61 356.876 L474.577 356.876 L483.397 380.394 L492.262 356.876 L499.23 356.876 L499.23 391.436 L494.67 391.436 L494.67 361.089 L485.758 384.792 L481.059 384.792 L472.147 361.089 L472.147 391.436 L467.61 391.436 L467.61 356.876 Z" fill="#000000" fill-rule="nonzero" fill-opacity="1" /><path clip-path="url(#clip990)" d="M520.109 378.403 Q514.947 378.403 512.957 379.584 Q510.966 380.764 510.966 383.612 Q510.966 385.88 512.447 387.223 Q513.952 388.542 516.521 388.542 Q520.063 388.542 522.193 386.042 Q524.345 383.519 524.345 379.352 L524.345 378.403 L520.109 378.403 M528.605 376.644 L528.605 391.436 L524.345 391.436 L524.345 387.501 Q522.887 389.862 520.711 390.996 Q518.535 392.107 515.387 392.107 Q511.406 392.107 509.045 389.885 Q506.707 387.639 506.707 383.889 Q506.707 379.514 509.623 377.292 Q512.563 375.07 518.373 375.07 L524.345 375.07 L524.345 374.653 Q524.345 371.714 522.401 370.116 Q520.48 368.496 516.984 368.496 Q514.762 368.496 512.656 369.028 Q510.549 369.561 508.605 370.626 L508.605 366.69 Q510.943 365.788 513.142 365.348 Q515.341 364.885 517.424 364.885 Q523.049 364.885 525.827 367.802 Q528.605 370.718 528.605 376.644 Z" fill="#000000" fill-rule="nonzero" fill-opacity="1" /><path clip-path="url(#clip990)" d="M541.498 387.547 L541.498 401.297 L537.216 401.297 L537.216 365.51 L541.498 365.51 L541.498 369.445 Q542.841 367.13 544.878 366.019 Q546.938 364.885 549.785 364.885 Q554.507 364.885 557.447 368.635 Q560.41 372.385 560.41 378.496 Q560.41 384.607 557.447 388.357 Q554.507 392.107 549.785 392.107 Q546.938 392.107 544.878 390.996 Q542.841 389.862 541.498 387.547 M555.989 378.496 Q555.989 373.797 554.044 371.135 Q552.123 368.45 548.744 368.45 Q545.364 368.45 543.419 371.135 Q541.498 373.797 541.498 378.496 Q541.498 383.195 543.419 385.88 Q545.364 388.542 548.744 388.542 Q552.123 388.542 554.044 385.88 Q555.989 383.195 555.989 378.496 Z" fill="#000000" fill-rule="nonzero" fill-opacity="1" /><path clip-path="url(#clip990)" d="M572.331 374.931 L572.331 387.593 L579.831 387.593 Q583.604 387.593 585.41 386.042 Q587.239 384.468 587.239 381.251 Q587.239 378.01 585.41 376.482 Q583.604 374.931 579.831 374.931 L572.331 374.931 M572.331 360.718 L572.331 371.135 L579.253 371.135 Q582.679 371.135 584.345 369.862 Q586.035 368.565 586.035 365.927 Q586.035 363.311 584.345 362.015 Q582.679 360.718 579.253 360.718 L572.331 360.718 M567.655 356.876 L579.6 356.876 Q584.947 356.876 587.841 359.098 Q590.734 361.32 590.734 365.417 Q590.734 368.589 589.253 370.464 Q587.771 372.339 584.901 372.802 Q588.35 373.542 590.248 375.903 Q592.169 378.241 592.169 381.76 Q592.169 386.389 589.021 388.913 Q585.873 391.436 580.063 391.436 L567.655 391.436 L567.655 356.876 Z" fill="#000000" fill-rule="nonzero" fill-opacity="1" /><path clip-path="url(#clip990)" d="M604.854 374.931 L604.854 387.593 L612.354 387.593 Q616.127 387.593 617.933 386.042 Q619.762 384.468 619.762 381.251 Q619.762 378.01 617.933 376.482 Q616.127 374.931 612.354 374.931 L604.854 374.931 M604.854 360.718 L604.854 371.135 L611.776 371.135 Q615.201 371.135 616.868 369.862 Q618.558 368.565 618.558 365.927 Q618.558 363.311 616.868 362.015 Q615.201 360.718 611.776 360.718 L604.854 360.718 M600.178 356.876 L612.123 356.876 Q617.47 356.876 620.363 359.098 Q623.257 361.32 623.257 365.417 Q623.257 368.589 621.776 370.464 Q620.294 372.339 617.424 372.802 Q620.873 373.542 622.771 375.903 Q624.692 378.241 624.692 381.76 Q624.692 386.389 621.544 388.913 Q618.396 391.436 612.586 391.436 L600.178 391.436 L600.178 356.876 Z" fill="#000000" fill-rule="nonzero" fill-opacity="1" /><polyline clip-path="url(#clip990)" style="stroke:#eddd00; stroke-linecap:round; stroke-linejoin:round; stroke-width:4; stroke-opacity:1; fill:none" points="300.571,425.996 443.747,425.996 "/>
<path clip-path="url(#clip990)" d="M467.61 408.716 L474.577 408.716 L483.397 432.234 L492.262 408.716 L499.23 408.716 L499.23 443.276 L494.67 443.276 L494.67 412.929 L485.758 436.632 L481.059 436.632 L472.147 412.929 L472.147 443.276 L467.61 443.276 L467.61 408.716 Z" fill="#000000" fill-rule="nonzero" fill-opacity="1" /><path clip-path="url(#clip990)" d="M520.109 430.243 Q514.947 430.243 512.957 431.424 Q510.966 432.604 510.966 435.452 Q510.966 437.72 512.447 439.063 Q513.952 440.382 516.521 440.382 Q520.063 440.382 522.193 437.882 Q524.345 435.359 524.345 431.192 L524.345 430.243 L520.109 430.243 M528.605 428.484 L528.605 443.276 L524.345 443.276 L524.345 439.341 Q522.887 441.702 520.711 442.836 Q518.535 443.947 515.387 443.947 Q511.406 443.947 509.045 441.725 Q506.707 439.479 506.707 435.729 Q506.707 431.354 509.623 429.132 Q512.563 426.91 518.373 426.91 L524.345 426.91 L524.345 426.493 Q524.345 423.554 522.401 421.956 Q520.48 420.336 516.984 420.336 Q514.762 420.336 512.656 420.868 Q510.549 421.401 508.605 422.466 L508.605 418.53 Q510.943 417.628 513.142 417.188 Q515.341 416.725 517.424 416.725 Q523.049 416.725 525.827 419.642 Q528.605 422.558 528.605 428.484 Z" fill="#000000" fill-rule="nonzero" fill-opacity="1" /><path clip-path="url(#clip990)" d="M541.498 439.387 L541.498 453.137 L537.216 453.137 L537.216 417.35 L541.498 417.35 L541.498 421.285 Q542.841 418.97 544.878 417.859 Q546.938 416.725 549.785 416.725 Q554.507 416.725 557.447 420.475 Q560.41 424.225 560.41 430.336 Q560.41 436.447 557.447 440.197 Q554.507 443.947 549.785 443.947 Q546.938 443.947 544.878 442.836 Q542.841 441.702 541.498 439.387 M555.989 430.336 Q555.989 425.637 554.044 422.975 Q552.123 420.29 548.744 420.29 Q545.364 420.29 543.419 422.975 Q541.498 425.637 541.498 430.336 Q541.498 435.035 543.419 437.72 Q545.364 440.382 548.744 440.382 Q552.123 440.382 554.044 437.72 Q555.989 435.035 555.989 430.336 Z" fill="#000000" fill-rule="nonzero" fill-opacity="1" /><path clip-path="url(#clip990)" d="M572.331 426.771 L572.331 439.433 L579.831 439.433 Q583.604 439.433 585.41 437.882 Q587.239 436.308 587.239 433.091 Q587.239 429.85 585.41 428.322 Q583.604 426.771 579.831 426.771 L572.331 426.771 M572.331 412.558 L572.331 422.975 L579.253 422.975 Q582.679 422.975 584.345 421.702 Q586.035 420.405 586.035 417.767 Q586.035 415.151 584.345 413.855 Q582.679 412.558 579.253 412.558 L572.331 412.558 M567.655 408.716 L579.6 408.716 Q584.947 408.716 587.841 410.938 Q590.734 413.16 590.734 417.257 Q590.734 420.429 589.253 422.304 Q587.771 424.179 584.901 424.642 Q588.35 425.382 590.248 427.743 Q592.169 430.081 592.169 433.6 Q592.169 438.229 589.021 440.753 Q585.873 443.276 580.063 443.276 L567.655 443.276 L567.655 408.716 Z" fill="#000000" fill-rule="nonzero" fill-opacity="1" /><path clip-path="url(#clip990)" d="M599.646 408.716 L604.345 408.716 L604.345 429.711 Q604.345 435.267 606.359 437.72 Q608.373 440.151 612.887 440.151 Q617.377 440.151 619.391 437.72 Q621.405 435.267 621.405 429.711 L621.405 408.716 L626.104 408.716 L626.104 430.29 Q626.104 437.049 622.748 440.498 Q619.414 443.947 612.887 443.947 Q606.336 443.947 602.979 440.498 Q599.646 437.049 599.646 430.29 L599.646 408.716 Z" fill="#000000" fill-rule="nonzero" fill-opacity="1" /><polyline clip-path="url(#clip990)" style="stroke:#99dd54; stroke-linecap:round; stroke-linejoin:round; stroke-width:4; stroke-opacity:1; fill:none" points="300.571,477.836 443.747,477.836 "/>
<path clip-path="url(#clip990)" d="M467.61 460.556 L474.577 460.556 L483.397 484.074 L492.262 460.556 L499.23 460.556 L499.23 495.116 L494.67 495.116 L494.67 464.769 L485.758 488.472 L481.059 488.472 L472.147 464.769 L472.147 495.116 L467.61 495.116 L467.61 460.556 Z" fill="#000000" fill-rule="nonzero" fill-opacity="1" /><path clip-path="url(#clip990)" d="M520.109 482.083 Q514.947 482.083 512.957 483.264 Q510.966 484.444 510.966 487.292 Q510.966 489.56 512.447 490.903 Q513.952 492.222 516.521 492.222 Q520.063 492.222 522.193 489.722 Q524.345 487.199 524.345 483.032 L524.345 482.083 L520.109 482.083 M528.605 480.324 L528.605 495.116 L524.345 495.116 L524.345 491.181 Q522.887 493.542 520.711 494.676 Q518.535 495.787 515.387 495.787 Q511.406 495.787 509.045 493.565 Q506.707 491.319 506.707 487.569 Q506.707 483.194 509.623 480.972 Q512.563 478.75 518.373 478.75 L524.345 478.75 L524.345 478.333 Q524.345 475.394 522.401 473.796 Q520.48 472.176 516.984 472.176 Q514.762 472.176 512.656 472.708 Q510.549 473.241 508.605 474.306 L508.605 470.37 Q510.943 469.468 513.142 469.028 Q515.341 468.565 517.424 468.565 Q523.049 468.565 525.827 471.482 Q528.605 474.398 528.605 480.324 Z" fill="#000000" fill-rule="nonzero" fill-opacity="1" /><path clip-path="url(#clip990)" d="M541.498 491.227 L541.498 504.977 L537.216 504.977 L537.216 469.19 L541.498 469.19 L541.498 473.125 Q542.841 470.81 544.878 469.699 Q546.938 468.565 549.785 468.565 Q554.507 468.565 557.447 472.315 Q560.41 476.065 560.41 482.176 Q560.41 488.287 557.447 492.037 Q554.507 495.787 549.785 495.787 Q546.938 495.787 544.878 494.676 Q542.841 493.542 541.498 491.227 M555.989 482.176 Q555.989 477.477 554.044 474.815 Q552.123 472.13 548.744 472.13 Q545.364 472.13 543.419 474.815 Q541.498 477.477 541.498 482.176 Q541.498 486.875 543.419 489.56 Q545.364 492.222 548.744 492.222 Q552.123 492.222 554.044 489.56 Q555.989 486.875 555.989 482.176 Z" fill="#000000" fill-rule="nonzero" fill-opacity="1" /><path clip-path="url(#clip990)" d="M567.123 460.556 L571.822 460.556 L571.822 481.551 Q571.822 487.107 573.836 489.56 Q575.85 491.991 580.364 491.991 Q584.854 491.991 586.868 489.56 Q588.882 487.107 588.882 481.551 L588.882 460.556 L593.581 460.556 L593.581 482.13 Q593.581 488.889 590.225 492.338 Q586.891 495.787 580.364 495.787 Q573.813 495.787 570.456 492.338 Q567.123 488.889 567.123 482.13 L567.123 460.556 Z" fill="#000000" fill-rule="nonzero" fill-opacity="1" /><path clip-path="url(#clip990)" d="M602.354 460.556 L607.03 460.556 L607.03 491.181 L623.859 491.181 L623.859 495.116 L602.354 495.116 L602.354 460.556 Z" fill="#000000" fill-rule="nonzero" fill-opacity="1" /><polyline clip-path="url(#clip990)" style="stroke:#44dd87; stroke-linecap:round; stroke-linejoin:round; stroke-width:4; stroke-opacity:1; fill:none" points="300.571,529.676 443.747,529.676 "/>
<path clip-path="url(#clip990)" d="M467.61 512.396 L474.577 512.396 L483.397 535.914 L492.262 512.396 L499.23 512.396 L499.23 546.956 L494.67 546.956 L494.67 516.609 L485.758 540.312 L481.059 540.312 L472.147 516.609 L472.147 546.956 L467.61 546.956 L467.61 512.396 Z" fill="#000000" fill-rule="nonzero" fill-opacity="1" /><path clip-path="url(#clip990)" d="M520.109 533.923 Q514.947 533.923 512.957 535.104 Q510.966 536.284 510.966 539.132 Q510.966 541.4 512.447 542.743 Q513.952 544.062 516.521 544.062 Q520.063 544.062 522.193 541.562 Q524.345 539.039 524.345 534.872 L524.345 533.923 L520.109 533.923 M528.605 532.164 L528.605 546.956 L524.345 546.956 L524.345 543.021 Q522.887 545.382 520.711 546.516 Q518.535 547.627 515.387 547.627 Q511.406 547.627 509.045 545.405 Q506.707 543.159 506.707 539.409 Q506.707 535.034 509.623 532.812 Q512.563 530.59 518.373 530.59 L524.345 530.59 L524.345 530.173 Q524.345 527.234 522.401 525.636 Q520.48 524.016 516.984 524.016 Q514.762 524.016 512.656 524.548 Q510.549 525.081 508.605 526.146 L508.605 522.21 Q510.943 521.308 513.142 520.868 Q515.341 520.405 517.424 520.405 Q523.049 520.405 525.827 523.322 Q528.605 526.238 528.605 532.164 Z" fill="#000000" fill-rule="nonzero" fill-opacity="1" /><path clip-path="url(#clip990)" d="M541.498 543.067 L541.498 556.817 L537.216 556.817 L537.216 521.03 L541.498 521.03 L541.498 524.965 Q542.841 522.65 544.878 521.539 Q546.938 520.405 549.785 520.405 Q554.507 520.405 557.447 524.155 Q560.41 527.905 560.41 534.016 Q560.41 540.127 557.447 543.877 Q554.507 547.627 549.785 547.627 Q546.938 547.627 544.878 546.516 Q542.841 545.382 541.498 543.067 M555.989 534.016 Q555.989 529.317 554.044 526.655 Q552.123 523.97 548.744 523.97 Q545.364 523.97 543.419 526.655 Q541.498 529.317 541.498 534.016 Q541.498 538.715 543.419 541.4 Q545.364 544.062 548.744 544.062 Q552.123 544.062 554.044 541.4 Q555.989 538.715 555.989 534.016 Z" fill="#000000" fill-rule="nonzero" fill-opacity="1" /><path clip-path="url(#clip990)" d="M567.123 512.396 L571.822 512.396 L571.822 533.391 Q571.822 538.947 573.836 541.4 Q575.85 543.831 580.364 543.831 Q584.854 543.831 586.868 541.4 Q588.882 538.947 588.882 533.391 L588.882 512.396 L593.581 512.396 L593.581 533.97 Q593.581 540.729 590.225 544.178 Q586.891 547.627 580.364 547.627 Q573.813 547.627 570.456 544.178 Q567.123 540.729 567.123 533.97 L567.123 512.396 Z" fill="#000000" fill-rule="nonzero" fill-opacity="1" /><path clip-path="url(#clip990)" d="M607.03 530.451 L607.03 543.113 L614.53 543.113 Q618.303 543.113 620.109 541.562 Q621.938 539.988 621.938 536.771 Q621.938 533.53 620.109 532.002 Q618.303 530.451 614.53 530.451 L607.03 530.451 M607.03 516.238 L607.03 526.655 L613.951 526.655 Q617.377 526.655 619.044 525.382 Q620.734 524.085 620.734 521.447 Q620.734 518.831 619.044 517.535 Q617.377 516.238 613.951 516.238 L607.03 516.238 M602.354 512.396 L614.299 512.396 Q619.646 512.396 622.539 514.618 Q625.433 516.84 625.433 520.937 Q625.433 524.109 623.951 525.984 Q622.47 527.859 619.6 528.322 Q623.049 529.062 624.947 531.423 Q626.868 533.761 626.868 537.28 Q626.868 541.909 623.72 544.433 Q620.572 546.956 614.762 546.956 L602.354 546.956 L602.354 512.396 Z" fill="#000000" fill-rule="nonzero" fill-opacity="1" /><polyline clip-path="url(#clip990)" style="stroke:#21ccba; stroke-linecap:round; stroke-linejoin:round; stroke-width:4; stroke-opacity:1; fill:none" points="300.571,581.516 443.747,581.516 "/>
<path clip-path="url(#clip990)" d="M467.61 564.236 L474.577 564.236 L483.397 587.754 L492.262 564.236 L499.23 564.236 L499.23 598.796 L494.67 598.796 L494.67 568.449 L485.758 592.152 L481.059 592.152 L472.147 568.449 L472.147 598.796 L467.61 598.796 L467.61 564.236 Z" fill="#000000" fill-rule="nonzero" fill-opacity="1" /><path clip-path="url(#clip990)" d="M520.109 585.763 Q514.947 585.763 512.957 586.944 Q510.966 588.124 510.966 590.972 Q510.966 593.24 512.447 594.583 Q513.952 595.902 516.521 595.902 Q520.063 595.902 522.193 593.402 Q524.345 590.879 524.345 586.712 L524.345 585.763 L520.109 585.763 M528.605 584.004 L528.605 598.796 L524.345 598.796 L524.345 594.861 Q522.887 597.222 520.711 598.356 Q518.535 599.467 515.387 599.467 Q511.406 599.467 509.045 597.245 Q506.707 594.999 506.707 591.249 Q506.707 586.874 509.623 584.652 Q512.563 582.43 518.373 582.43 L524.345 582.43 L524.345 582.013 Q524.345 579.074 522.401 577.476 Q520.48 575.856 516.984 575.856 Q514.762 575.856 512.656 576.388 Q510.549 576.921 508.605 577.986 L508.605 574.05 Q510.943 573.148 513.142 572.708 Q515.341 572.245 517.424 572.245 Q523.049 572.245 525.827 575.162 Q528.605 578.078 528.605 584.004 Z" fill="#000000" fill-rule="nonzero" fill-opacity="1" /><path clip-path="url(#clip990)" d="M541.498 594.907 L541.498 608.657 L537.216 608.657 L537.216 572.87 L541.498 572.87 L541.498 576.805 Q542.841 574.49 544.878 573.379 Q546.938 572.245 549.785 572.245 Q554.507 572.245 557.447 575.995 Q560.41 579.745 560.41 585.856 Q560.41 591.967 557.447 595.717 Q554.507 599.467 549.785 599.467 Q546.938 599.467 544.878 598.356 Q542.841 597.222 541.498 594.907 M555.989 585.856 Q555.989 581.157 554.044 578.495 Q552.123 575.81 548.744 575.81 Q545.364 575.81 543.419 578.495 Q541.498 581.157 541.498 585.856 Q541.498 590.555 543.419 593.24 Q545.364 595.902 548.744 595.902 Q552.123 595.902 554.044 593.24 Q555.989 590.555 555.989 585.856 Z" fill="#000000" fill-rule="nonzero" fill-opacity="1" /><path clip-path="url(#clip990)" d="M567.123 564.236 L571.822 564.236 L571.822 585.231 Q571.822 590.787 573.836 593.24 Q575.85 595.671 580.364 595.671 Q584.854 595.671 586.868 593.24 Q588.882 590.787 588.882 585.231 L588.882 564.236 L593.581 564.236 L593.581 585.81 Q593.581 592.569 590.225 596.018 Q586.891 599.467 580.364 599.467 Q573.813 599.467 570.456 596.018 Q567.123 592.569 567.123 585.81 L567.123 564.236 Z" fill="#000000" fill-rule="nonzero" fill-opacity="1" /><path clip-path="url(#clip990)" d="M601.822 564.236 L606.521 564.236 L606.521 585.231 Q606.521 590.787 608.535 593.24 Q610.549 595.671 615.063 595.671 Q619.553 595.671 621.567 593.24 Q623.581 590.787 623.581 585.231 L623.581 564.236 L628.28 564.236 L628.28 585.81 Q628.28 592.569 624.924 596.018 Q621.59 599.467 615.063 599.467 Q608.512 599.467 605.155 596.018 Q601.822 592.569 601.822 585.81 L601.822 564.236 Z" fill="#000000" fill-rule="nonzero" fill-opacity="1" /></svg>
