<?xml version="1.0" encoding="utf-8"?>
<svg xmlns="http://www.w3.org/2000/svg" xmlns:xlink="http://www.w3.org/1999/xlink" width="600" height="400" viewBox="0 0 2400 1600">
<defs>
  <clipPath id="clip500">
    <rect x="0" y="0" width="2400" height="1600"/>
  </clipPath>
</defs>
<path clip-path="url(#clip500)" d="M0 1600 L2400 1600 L2400 8.88178e-14 L0 8.88178e-14  Z" fill="#ffffff" fill-rule="evenodd" fill-opacity="1"/>
<defs>
  <clipPath id="clip501">
    <rect x="480" y="0" width="1681" height="1600"/>
  </clipPath>
</defs>
<path clip-path="url(#clip500)" d="M306.301 1486.45 L2352.76 1486.45 L2352.76 47.2441 L306.301 47.2441  Z" fill="#ffffff" fill-rule="evenodd" fill-opacity="1"/>
<defs>
  <clipPath id="clip502">
    <rect x="306" y="47" width="2047" height="1440"/>
  </clipPath>
</defs>
<polyline clip-path="url(#clip502)" style="stroke:#000000; stroke-linecap:round; stroke-linejoin:round; stroke-width:2; stroke-opacity:0.1; fill:none" points="364.219,1486.45 364.219,47.2441 "/>
<polyline clip-path="url(#clip502)" style="stroke:#000000; stroke-linecap:round; stroke-linejoin:round; stroke-width:2; stroke-opacity:0.1; fill:none" points="846.874,1486.45 846.874,47.2441 "/>
<polyline clip-path="url(#clip502)" style="stroke:#000000; stroke-linecap:round; stroke-linejoin:round; stroke-width:2; stroke-opacity:0.1; fill:none" points="1329.53,1486.45 1329.53,47.2441 "/>
<polyline clip-path="url(#clip502)" style="stroke:#000000; stroke-linecap:round; stroke-linejoin:round; stroke-width:2; stroke-opacity:0.1; fill:none" points="1812.18,1486.45 1812.18,47.2441 "/>
<polyline clip-path="url(#clip502)" style="stroke:#000000; stroke-linecap:round; stroke-linejoin:round; stroke-width:2; stroke-opacity:0.1; fill:none" points="2294.84,1486.45 2294.84,47.2441 "/>
<polyline clip-path="url(#clip502)" style="stroke:#000000; stroke-linecap:round; stroke-linejoin:round; stroke-width:2; stroke-opacity:0.1; fill:none" points="306.301,1403.82 2352.76,1403.82 "/>
<polyline clip-path="url(#clip502)" style="stroke:#000000; stroke-linecap:round; stroke-linejoin:round; stroke-width:2; stroke-opacity:0.1; fill:none" points="306.301,1144.41 2352.76,1144.41 "/>
<polyline clip-path="url(#clip502)" style="stroke:#000000; stroke-linecap:round; stroke-linejoin:round; stroke-width:2; stroke-opacity:0.1; fill:none" points="306.301,885.006 2352.76,885.006 "/>
<polyline clip-path="url(#clip502)" style="stroke:#000000; stroke-linecap:round; stroke-linejoin:round; stroke-width:2; stroke-opacity:0.1; fill:none" points="306.301,625.599 2352.76,625.599 "/>
<polyline clip-path="url(#clip502)" style="stroke:#000000; stroke-linecap:round; stroke-linejoin:round; stroke-width:2; stroke-opacity:0.1; fill:none" points="306.301,366.191 2352.76,366.191 "/>
<polyline clip-path="url(#clip502)" style="stroke:#000000; stroke-linecap:round; stroke-linejoin:round; stroke-width:2; stroke-opacity:0.1; fill:none" points="306.301,106.783 2352.76,106.783 "/>
<polyline clip-path="url(#clip500)" style="stroke:#000000; stroke-linecap:round; stroke-linejoin:round; stroke-width:4; stroke-opacity:1; fill:none" points="306.301,1486.45 2352.76,1486.45 "/>
<polyline clip-path="url(#clip500)" style="stroke:#000000; stroke-linecap:round; stroke-linejoin:round; stroke-width:4; stroke-opacity:1; fill:none" points="364.219,1486.45 364.219,1467.55 "/>
<polyline clip-path="url(#clip500)" style="stroke:#000000; stroke-linecap:round; stroke-linejoin:round; stroke-width:4; stroke-opacity:1; fill:none" points="846.874,1486.45 846.874,1467.55 "/>
<polyline clip-path="url(#clip500)" style="stroke:#000000; stroke-linecap:round; stroke-linejoin:round; stroke-width:4; stroke-opacity:1; fill:none" points="1329.53,1486.45 1329.53,1467.55 "/>
<polyline clip-path="url(#clip500)" style="stroke:#000000; stroke-linecap:round; stroke-linejoin:round; stroke-width:4; stroke-opacity:1; fill:none" points="1812.18,1486.45 1812.18,1467.55 "/>
<polyline clip-path="url(#clip500)" style="stroke:#000000; stroke-linecap:round; stroke-linejoin:round; stroke-width:4; stroke-opacity:1; fill:none" points="2294.84,1486.45 2294.84,1467.55 "/>
<path clip-path="url(#clip500)" d="M341.604 1517.37 Q337.993 1517.37 336.164 1520.93 Q334.358 1524.47 334.358 1531.6 Q334.358 1538.71 336.164 1542.27 Q337.993 1545.82 341.604 1545.82 Q345.238 1545.82 347.044 1542.27 Q348.872 1538.71 348.872 1531.6 Q348.872 1524.47 347.044 1520.93 Q345.238 1517.37 341.604 1517.37 M341.604 1513.66 Q347.414 1513.66 350.469 1518.27 Q353.548 1522.85 353.548 1531.6 Q353.548 1540.33 350.469 1544.94 Q347.414 1549.52 341.604 1549.52 Q335.794 1549.52 332.715 1544.94 Q329.659 1540.33 329.659 1531.6 Q329.659 1522.85 332.715 1518.27 Q335.794 1513.66 341.604 1513.66 Z" fill="#000000" fill-rule="nonzero" fill-opacity="1" /><path clip-path="url(#clip500)" d="M361.766 1542.97 L366.65 1542.97 L366.65 1548.85 L361.766 1548.85 L361.766 1542.97 Z" fill="#000000" fill-rule="nonzero" fill-opacity="1" /><path clip-path="url(#clip500)" d="M386.835 1517.37 Q383.224 1517.37 381.395 1520.93 Q379.59 1524.47 379.59 1531.6 Q379.59 1538.71 381.395 1542.27 Q383.224 1545.82 386.835 1545.82 Q390.469 1545.82 392.275 1542.27 Q394.103 1538.71 394.103 1531.6 Q394.103 1524.47 392.275 1520.93 Q390.469 1517.37 386.835 1517.37 M386.835 1513.66 Q392.645 1513.66 395.701 1518.27 Q398.779 1522.85 398.779 1531.6 Q398.779 1540.33 395.701 1544.94 Q392.645 1549.52 386.835 1549.52 Q381.025 1549.52 377.946 1544.94 Q374.891 1540.33 374.891 1531.6 Q374.891 1522.85 377.946 1518.27 Q381.025 1513.66 386.835 1513.66 Z" fill="#000000" fill-rule="nonzero" fill-opacity="1" /><path clip-path="url(#clip500)" d="M824.756 1517.37 Q821.145 1517.37 819.316 1520.93 Q817.511 1524.47 817.511 1531.6 Q817.511 1538.71 819.316 1542.27 Q821.145 1545.82 824.756 1545.82 Q828.39 1545.82 830.196 1542.27 Q832.024 1538.71 832.024 1531.6 Q832.024 1524.47 830.196 1520.93 Q828.39 1517.37 824.756 1517.37 M824.756 1513.66 Q830.566 1513.66 833.622 1518.27 Q836.7 1522.85 836.7 1531.6 Q836.7 1540.33 833.622 1544.94 Q830.566 1549.52 824.756 1549.52 Q818.946 1549.52 815.867 1544.94 Q812.812 1540.33 812.812 1531.6 Q812.812 1522.85 815.867 1518.27 Q818.946 1513.66 824.756 1513.66 Z" fill="#000000" fill-rule="nonzero" fill-opacity="1" /><path clip-path="url(#clip500)" d="M844.918 1542.97 L849.802 1542.97 L849.802 1548.85 L844.918 1548.85 L844.918 1542.97 Z" fill="#000000" fill-rule="nonzero" fill-opacity="1" /><path clip-path="url(#clip500)" d="M860.034 1514.29 L878.39 1514.29 L878.39 1518.22 L864.316 1518.22 L864.316 1526.7 Q865.334 1526.35 866.353 1526.19 Q867.371 1526 868.39 1526 Q874.177 1526 877.557 1529.17 Q880.936 1532.34 880.936 1537.76 Q880.936 1543.34 877.464 1546.44 Q873.992 1549.52 867.672 1549.52 Q865.496 1549.52 863.228 1549.15 Q860.983 1548.78 858.575 1548.04 L858.575 1543.34 Q860.659 1544.47 862.881 1545.03 Q865.103 1545.58 867.58 1545.58 Q871.584 1545.58 873.922 1543.48 Q876.26 1541.37 876.26 1537.76 Q876.26 1534.15 873.922 1532.04 Q871.584 1529.94 867.58 1529.94 Q865.705 1529.94 863.83 1530.35 Q861.978 1530.77 860.034 1531.65 L860.034 1514.29 Z" fill="#000000" fill-rule="nonzero" fill-opacity="1" /><path clip-path="url(#clip500)" d="M1296.68 1544.91 L1304.32 1544.91 L1304.32 1518.55 L1296.01 1520.21 L1296.01 1515.95 L1304.27 1514.29 L1308.95 1514.29 L1308.95 1544.91 L1316.59 1544.91 L1316.59 1548.85 L1296.68 1548.85 L1296.68 1544.91 Z" fill="#000000" fill-rule="nonzero" fill-opacity="1" /><path clip-path="url(#clip500)" d="M1326.03 1542.97 L1330.92 1542.97 L1330.92 1548.85 L1326.03 1548.85 L1326.03 1542.97 Z" fill="#000000" fill-rule="nonzero" fill-opacity="1" /><path clip-path="url(#clip500)" d="M1351.1 1517.37 Q1347.49 1517.37 1345.66 1520.93 Q1343.86 1524.47 1343.86 1531.6 Q1343.86 1538.71 1345.66 1542.27 Q1347.49 1545.82 1351.1 1545.82 Q1354.74 1545.82 1356.54 1542.27 Q1358.37 1538.71 1358.37 1531.6 Q1358.37 1524.47 1356.54 1520.93 Q1354.74 1517.37 1351.1 1517.37 M1351.1 1513.66 Q1356.91 1513.66 1359.97 1518.27 Q1363.05 1522.85 1363.05 1531.6 Q1363.05 1540.33 1359.97 1544.94 Q1356.91 1549.52 1351.1 1549.52 Q1345.29 1549.52 1342.21 1544.94 Q1339.16 1540.33 1339.16 1531.6 Q1339.16 1522.85 1342.21 1518.27 Q1345.29 1513.66 1351.1 1513.66 Z" fill="#000000" fill-rule="nonzero" fill-opacity="1" /><path clip-path="url(#clip500)" d="M1779.83 1544.91 L1787.47 1544.91 L1787.47 1518.55 L1779.16 1520.21 L1779.16 1515.95 L1787.43 1514.29 L1792.1 1514.29 L1792.1 1544.91 L1799.74 1544.91 L1799.74 1548.85 L1779.83 1548.85 L1779.83 1544.91 Z" fill="#000000" fill-rule="nonzero" fill-opacity="1" /><path clip-path="url(#clip500)" d="M1809.19 1542.97 L1814.07 1542.97 L1814.07 1548.85 L1809.19 1548.85 L1809.19 1542.97 Z" fill="#000000" fill-rule="nonzero" fill-opacity="1" /><path clip-path="url(#clip500)" d="M1824.3 1514.29 L1842.66 1514.29 L1842.66 1518.22 L1828.58 1518.22 L1828.58 1526.7 Q1829.6 1526.35 1830.62 1526.19 Q1831.64 1526 1832.66 1526 Q1838.44 1526 1841.82 1529.17 Q1845.2 1532.34 1845.2 1537.76 Q1845.2 1543.34 1841.73 1546.44 Q1838.26 1549.52 1831.94 1549.52 Q1829.76 1549.52 1827.5 1549.15 Q1825.25 1548.78 1822.84 1548.04 L1822.84 1543.34 Q1824.93 1544.47 1827.15 1545.03 Q1829.37 1545.58 1831.85 1545.58 Q1835.85 1545.58 1838.19 1543.48 Q1840.53 1541.37 1840.53 1537.76 Q1840.53 1534.15 1838.19 1532.04 Q1835.85 1529.94 1831.85 1529.94 Q1829.97 1529.94 1828.1 1530.35 Q1826.25 1530.77 1824.3 1531.65 L1824.3 1514.29 Z" fill="#000000" fill-rule="nonzero" fill-opacity="1" /><path clip-path="url(#clip500)" d="M2266.08 1544.91 L2282.4 1544.91 L2282.4 1548.85 L2260.45 1548.85 L2260.45 1544.91 Q2263.11 1542.16 2267.7 1537.53 Q2272.3 1532.88 2273.48 1531.53 Q2275.73 1529.01 2276.61 1527.27 Q2277.51 1525.51 2277.51 1523.82 Q2277.51 1521.07 2275.57 1519.33 Q2273.65 1517.6 2270.54 1517.6 Q2268.34 1517.6 2265.89 1518.36 Q2263.46 1519.13 2260.68 1520.68 L2260.68 1515.95 Q2263.51 1514.82 2265.96 1514.24 Q2268.41 1513.66 2270.45 1513.66 Q2275.82 1513.66 2279.02 1516.35 Q2282.21 1519.03 2282.21 1523.52 Q2282.21 1525.65 2281.4 1527.57 Q2280.61 1529.47 2278.51 1532.07 Q2277.93 1532.74 2274.83 1535.95 Q2271.72 1539.15 2266.08 1544.91 Z" fill="#000000" fill-rule="nonzero" fill-opacity="1" /><path clip-path="url(#clip500)" d="M2292.21 1542.97 L2297.09 1542.97 L2297.09 1548.85 L2292.21 1548.85 L2292.21 1542.97 Z" fill="#000000" fill-rule="nonzero" fill-opacity="1" /><path clip-path="url(#clip500)" d="M2317.28 1517.37 Q2313.67 1517.37 2311.84 1520.93 Q2310.03 1524.47 2310.03 1531.6 Q2310.03 1538.71 2311.84 1542.27 Q2313.67 1545.82 2317.28 1545.82 Q2320.91 1545.82 2322.72 1542.27 Q2324.55 1538.71 2324.55 1531.6 Q2324.55 1524.47 2322.72 1520.93 Q2320.91 1517.37 2317.28 1517.37 M2317.28 1513.66 Q2323.09 1513.66 2326.15 1518.27 Q2329.22 1522.85 2329.22 1531.6 Q2329.22 1540.33 2326.15 1544.94 Q2323.09 1549.52 2317.28 1549.52 Q2311.47 1549.52 2308.39 1544.94 Q2305.33 1540.33 2305.33 1531.6 Q2305.33 1522.85 2308.39 1518.27 Q2311.47 1513.66 2317.28 1513.66 Z" fill="#000000" fill-rule="nonzero" fill-opacity="1" /><polyline clip-path="url(#clip500)" style="stroke:#000000; stroke-linecap:round; stroke-linejoin:round; stroke-width:4; stroke-opacity:1; fill:none" points="306.301,1486.45 306.301,47.2441 "/>
<polyline clip-path="url(#clip500)" style="stroke:#000000; stroke-linecap:round; stroke-linejoin:round; stroke-width:4; stroke-opacity:1; fill:none" points="306.301,1403.82 325.198,1403.82 "/>
<polyline clip-path="url(#clip500)" style="stroke:#000000; stroke-linecap:round; stroke-linejoin:round; stroke-width:4; stroke-opacity:1; fill:none" points="306.301,1144.41 325.198,1144.41 "/>
<polyline clip-path="url(#clip500)" style="stroke:#000000; stroke-linecap:round; stroke-linejoin:round; stroke-width:4; stroke-opacity:1; fill:none" points="306.301,885.006 325.198,885.006 "/>
<polyline clip-path="url(#clip500)" style="stroke:#000000; stroke-linecap:round; stroke-linejoin:round; stroke-width:4; stroke-opacity:1; fill:none" points="306.301,625.599 325.198,625.599 "/>
<polyline clip-path="url(#clip500)" style="stroke:#000000; stroke-linecap:round; stroke-linejoin:round; stroke-width:4; stroke-opacity:1; fill:none" points="306.301,366.191 325.198,366.191 "/>
<polyline clip-path="url(#clip500)" style="stroke:#000000; stroke-linecap:round; stroke-linejoin:round; stroke-width:4; stroke-opacity:1; fill:none" points="306.301,106.783 325.198,106.783 "/>
<path clip-path="url(#clip500)" d="M54.5569 1423.61 L62.1958 1423.61 L62.1958 1397.25 L53.8856 1398.91 L53.8856 1394.66 L62.1495 1392.99 L66.8254 1392.99 L66.8254 1423.61 L74.4642 1423.61 L74.4642 1427.55 L54.5569 1427.55 L54.5569 1423.61 Z" fill="#000000" fill-rule="nonzero" fill-opacity="1" /><path clip-path="url(#clip500)" d="M83.9086 1421.67 L88.7928 1421.67 L88.7928 1427.55 L83.9086 1427.55 L83.9086 1421.67 Z" fill="#000000" fill-rule="nonzero" fill-opacity="1" /><path clip-path="url(#clip500)" d="M108.978 1396.07 Q105.367 1396.07 103.538 1399.63 Q101.733 1403.17 101.733 1410.3 Q101.733 1417.41 103.538 1420.97 Q105.367 1424.52 108.978 1424.52 Q112.612 1424.52 114.418 1420.97 Q116.246 1417.41 116.246 1410.3 Q116.246 1403.17 114.418 1399.63 Q112.612 1396.07 108.978 1396.07 M108.978 1392.36 Q114.788 1392.36 117.844 1396.97 Q120.922 1401.55 120.922 1410.3 Q120.922 1419.03 117.844 1423.64 Q114.788 1428.22 108.978 1428.22 Q103.168 1428.22 100.089 1423.64 Q97.0335 1419.03 97.0335 1410.3 Q97.0335 1401.55 100.089 1396.97 Q103.168 1392.36 108.978 1392.36 Z" fill="#000000" fill-rule="nonzero" fill-opacity="1" /><path clip-path="url(#clip500)" d="M157.311 1402.09 L146.732 1412.71 L157.311 1423.29 L154.556 1426.09 L143.931 1415.47 L133.306 1426.09 L130.575 1423.29 L141.131 1412.71 L130.575 1402.09 L133.306 1399.29 L143.931 1409.91 L154.556 1399.29 L157.311 1402.09 Z" fill="#000000" fill-rule="nonzero" fill-opacity="1" /><path clip-path="url(#clip500)" d="M169.672 1423.61 L177.311 1423.61 L177.311 1397.25 L169.001 1398.91 L169.001 1394.66 L177.265 1392.99 L181.94 1392.99 L181.94 1423.61 L189.579 1423.61 L189.579 1427.55 L169.672 1427.55 L169.672 1423.61 Z" fill="#000000" fill-rule="nonzero" fill-opacity="1" /><path clip-path="url(#clip500)" d="M209.024 1396.07 Q205.413 1396.07 203.584 1399.63 Q201.778 1403.17 201.778 1410.3 Q201.778 1417.41 203.584 1420.97 Q205.413 1424.52 209.024 1424.52 Q212.658 1424.52 214.463 1420.97 Q216.292 1417.41 216.292 1410.3 Q216.292 1403.17 214.463 1399.63 Q212.658 1396.07 209.024 1396.07 M209.024 1392.36 Q214.834 1392.36 217.889 1396.97 Q220.968 1401.55 220.968 1410.3 Q220.968 1419.03 217.889 1423.64 Q214.834 1428.22 209.024 1428.22 Q203.214 1428.22 200.135 1423.64 Q197.079 1419.03 197.079 1410.3 Q197.079 1401.55 200.135 1396.97 Q203.214 1392.36 209.024 1392.36 Z" fill="#000000" fill-rule="nonzero" fill-opacity="1" /><path clip-path="url(#clip500)" d="M220.968 1386.47 L245.08 1386.47 L245.08 1389.66 L220.968 1389.66 L220.968 1386.47 Z" fill="#000000" fill-rule="nonzero" fill-opacity="1" /><path clip-path="url(#clip500)" d="M253.317 1372.06 L268.232 1372.06 L268.232 1375.26 L256.797 1375.26 L256.797 1382.14 Q257.624 1381.86 258.452 1381.73 Q259.279 1381.58 260.107 1381.58 Q264.809 1381.58 267.555 1384.15 Q270.301 1386.73 270.301 1391.13 Q270.301 1395.66 267.48 1398.18 Q264.659 1400.68 259.524 1400.68 Q257.756 1400.68 255.913 1400.38 Q254.089 1400.08 252.133 1399.48 L252.133 1395.66 Q253.825 1396.58 255.631 1397.04 Q257.436 1397.49 259.449 1397.49 Q262.703 1397.49 264.602 1395.78 Q266.502 1394.06 266.502 1391.13 Q266.502 1388.2 264.602 1386.48 Q262.703 1384.77 259.449 1384.77 Q257.925 1384.77 256.402 1385.11 Q254.897 1385.45 253.317 1386.16 L253.317 1372.06 Z" fill="#000000" fill-rule="nonzero" fill-opacity="1" /><path clip-path="url(#clip500)" d="M57.7745 1164.21 L74.0939 1164.21 L74.0939 1168.14 L52.1495 1168.14 L52.1495 1164.21 Q54.8115 1161.45 59.3949 1156.82 Q64.0013 1152.17 65.1819 1150.83 Q67.4272 1148.3 68.3068 1146.57 Q69.2096 1144.81 69.2096 1143.12 Q69.2096 1140.36 67.2652 1138.63 Q65.3439 1136.89 62.2421 1136.89 Q60.043 1136.89 57.5893 1137.66 Q55.1588 1138.42 52.381 1139.97 L52.381 1135.25 Q55.2051 1134.11 57.6588 1133.54 Q60.1124 1132.96 62.1495 1132.96 Q67.5198 1132.96 70.7142 1135.64 Q73.9087 1138.33 73.9087 1142.82 Q73.9087 1144.95 73.0985 1146.87 Q72.3115 1148.77 70.205 1151.36 Q69.6263 1152.03 66.5245 1155.25 Q63.4226 1158.44 57.7745 1164.21 Z" fill="#000000" fill-rule="nonzero" fill-opacity="1" /><path clip-path="url(#clip500)" d="M83.9086 1162.26 L88.7928 1162.26 L88.7928 1168.14 L83.9086 1168.14 L83.9086 1162.26 Z" fill="#000000" fill-rule="nonzero" fill-opacity="1" /><path clip-path="url(#clip500)" d="M108.978 1136.66 Q105.367 1136.66 103.538 1140.22 Q101.733 1143.77 101.733 1150.9 Q101.733 1158 103.538 1161.57 Q105.367 1165.11 108.978 1165.11 Q112.612 1165.11 114.418 1161.57 Q116.246 1158 116.246 1150.9 Q116.246 1143.77 114.418 1140.22 Q112.612 1136.66 108.978 1136.66 M108.978 1132.96 Q114.788 1132.96 117.844 1137.56 Q120.922 1142.15 120.922 1150.9 Q120.922 1159.62 117.844 1164.23 Q114.788 1168.81 108.978 1168.81 Q103.168 1168.81 100.089 1164.23 Q97.0335 1159.62 97.0335 1150.9 Q97.0335 1142.15 100.089 1137.56 Q103.168 1132.96 108.978 1132.96 Z" fill="#000000" fill-rule="nonzero" fill-opacity="1" /><path clip-path="url(#clip500)" d="M157.311 1142.68 L146.732 1153.3 L157.311 1163.88 L154.556 1166.68 L143.931 1156.06 L133.306 1166.68 L130.575 1163.88 L141.131 1153.3 L130.575 1142.68 L133.306 1139.88 L143.931 1150.5 L154.556 1139.88 L157.311 1142.68 Z" fill="#000000" fill-rule="nonzero" fill-opacity="1" /><path clip-path="url(#clip500)" d="M169.672 1164.21 L177.311 1164.21 L177.311 1137.84 L169.001 1139.51 L169.001 1135.25 L177.265 1133.58 L181.94 1133.58 L181.94 1164.21 L189.579 1164.21 L189.579 1168.14 L169.672 1168.14 L169.672 1164.21 Z" fill="#000000" fill-rule="nonzero" fill-opacity="1" /><path clip-path="url(#clip500)" d="M209.024 1136.66 Q205.413 1136.66 203.584 1140.22 Q201.778 1143.77 201.778 1150.9 Q201.778 1158 203.584 1161.57 Q205.413 1165.11 209.024 1165.11 Q212.658 1165.11 214.463 1161.57 Q216.292 1158 216.292 1150.9 Q216.292 1143.77 214.463 1140.22 Q212.658 1136.66 209.024 1136.66 M209.024 1132.96 Q214.834 1132.96 217.889 1137.56 Q220.968 1142.15 220.968 1150.9 Q220.968 1159.62 217.889 1164.23 Q214.834 1168.81 209.024 1168.81 Q203.214 1168.81 200.135 1164.23 Q197.079 1159.62 197.079 1150.9 Q197.079 1142.15 200.135 1137.56 Q203.214 1132.96 209.024 1132.96 Z" fill="#000000" fill-rule="nonzero" fill-opacity="1" /><path clip-path="url(#clip500)" d="M220.968 1127.06 L245.08 1127.06 L245.08 1130.26 L220.968 1130.26 L220.968 1127.06 Z" fill="#000000" fill-rule="nonzero" fill-opacity="1" /><path clip-path="url(#clip500)" d="M253.317 1112.65 L268.232 1112.65 L268.232 1115.85 L256.797 1115.85 L256.797 1122.73 Q257.624 1122.45 258.452 1122.32 Q259.279 1122.17 260.107 1122.17 Q264.809 1122.17 267.555 1124.74 Q270.301 1127.32 270.301 1131.72 Q270.301 1136.25 267.48 1138.77 Q264.659 1141.28 259.524 1141.28 Q257.756 1141.28 255.913 1140.98 Q254.089 1140.67 252.133 1140.07 L252.133 1136.25 Q253.825 1137.18 255.631 1137.63 Q257.436 1138.08 259.449 1138.08 Q262.703 1138.08 264.602 1136.37 Q266.502 1134.66 266.502 1131.72 Q266.502 1128.79 264.602 1127.08 Q262.703 1125.37 259.449 1125.37 Q257.925 1125.37 256.402 1125.7 Q254.897 1126.04 253.317 1126.76 L253.317 1112.65 Z" fill="#000000" fill-rule="nonzero" fill-opacity="1" /><path clip-path="url(#clip500)" d="M67.9133 890.1 Q71.2698 890.817 73.1448 893.086 Q75.0429 895.354 75.0429 898.688 Q75.0429 903.803 71.5244 906.604 Q68.0059 909.405 61.5245 909.405 Q59.3486 909.405 57.0338 908.965 Q54.7421 908.549 52.2884 907.692 L52.2884 903.178 Q54.2328 904.312 56.5477 904.891 Q58.8625 905.47 61.3856 905.47 Q65.7837 905.47 68.0754 903.734 Q70.3902 901.998 70.3902 898.688 Q70.3902 895.632 68.2374 893.919 Q66.1078 892.183 62.2884 892.183 L58.2606 892.183 L58.2606 888.34 L62.4735 888.34 Q65.9226 888.34 67.7513 886.975 Q69.58 885.586 69.58 882.993 Q69.58 880.331 67.6819 878.919 Q65.8069 877.484 62.2884 877.484 Q60.3671 877.484 58.168 877.901 Q55.969 878.317 53.3301 879.197 L53.3301 875.03 Q55.9921 874.289 58.3069 873.919 Q60.6449 873.549 62.705 873.549 Q68.0291 873.549 71.1309 875.979 Q74.2327 878.387 74.2327 882.507 Q74.2327 885.377 72.5892 887.368 Q70.9457 889.336 67.9133 890.1 Z" fill="#000000" fill-rule="nonzero" fill-opacity="1" /><path clip-path="url(#clip500)" d="M83.9086 902.854 L88.7928 902.854 L88.7928 908.734 L83.9086 908.734 L83.9086 902.854 Z" fill="#000000" fill-rule="nonzero" fill-opacity="1" /><path clip-path="url(#clip500)" d="M108.978 877.252 Q105.367 877.252 103.538 880.817 Q101.733 884.359 101.733 891.488 Q101.733 898.595 103.538 902.16 Q105.367 905.701 108.978 905.701 Q112.612 905.701 114.418 902.16 Q116.246 898.595 116.246 891.488 Q116.246 884.359 114.418 880.817 Q112.612 877.252 108.978 877.252 M108.978 873.549 Q114.788 873.549 117.844 878.155 Q120.922 882.739 120.922 891.488 Q120.922 900.215 117.844 904.822 Q114.788 909.405 108.978 909.405 Q103.168 909.405 100.089 904.822 Q97.0335 900.215 97.0335 891.488 Q97.0335 882.739 100.089 878.155 Q103.168 873.549 108.978 873.549 Z" fill="#000000" fill-rule="nonzero" fill-opacity="1" /><path clip-path="url(#clip500)" d="M157.311 883.271 L146.732 893.896 L157.311 904.475 L154.556 907.275 L143.931 896.65 L133.306 907.275 L130.575 904.475 L141.131 893.896 L130.575 883.271 L133.306 880.47 L143.931 891.095 L154.556 880.47 L157.311 883.271 Z" fill="#000000" fill-rule="nonzero" fill-opacity="1" /><path clip-path="url(#clip500)" d="M169.672 904.799 L177.311 904.799 L177.311 878.433 L169.001 880.1 L169.001 875.84 L177.265 874.174 L181.94 874.174 L181.94 904.799 L189.579 904.799 L189.579 908.734 L169.672 908.734 L169.672 904.799 Z" fill="#000000" fill-rule="nonzero" fill-opacity="1" /><path clip-path="url(#clip500)" d="M209.024 877.252 Q205.413 877.252 203.584 880.817 Q201.778 884.359 201.778 891.488 Q201.778 898.595 203.584 902.16 Q205.413 905.701 209.024 905.701 Q212.658 905.701 214.463 902.16 Q216.292 898.595 216.292 891.488 Q216.292 884.359 214.463 880.817 Q212.658 877.252 209.024 877.252 M209.024 873.549 Q214.834 873.549 217.889 878.155 Q220.968 882.739 220.968 891.488 Q220.968 900.215 217.889 904.822 Q214.834 909.405 209.024 909.405 Q203.214 909.405 200.135 904.822 Q197.079 900.215 197.079 891.488 Q197.079 882.739 200.135 878.155 Q203.214 873.549 209.024 873.549 Z" fill="#000000" fill-rule="nonzero" fill-opacity="1" /><path clip-path="url(#clip500)" d="M220.968 867.65 L245.08 867.65 L245.08 870.847 L220.968 870.847 L220.968 867.65 Z" fill="#000000" fill-rule="nonzero" fill-opacity="1" /><path clip-path="url(#clip500)" d="M253.317 853.243 L268.232 853.243 L268.232 856.441 L256.797 856.441 L256.797 863.324 Q257.624 863.042 258.452 862.911 Q259.279 862.76 260.107 862.76 Q264.809 862.76 267.555 865.337 Q270.301 867.913 270.301 872.314 Q270.301 876.847 267.48 879.367 Q264.659 881.869 259.524 881.869 Q257.756 881.869 255.913 881.568 Q254.089 881.267 252.133 880.665 L252.133 876.847 Q253.825 877.769 255.631 878.22 Q257.436 878.671 259.449 878.671 Q262.703 878.671 264.602 876.96 Q266.502 875.248 266.502 872.314 Q266.502 869.38 264.602 867.669 Q262.703 865.957 259.449 865.957 Q257.925 865.957 256.402 866.296 Q254.897 866.634 253.317 867.349 L253.317 853.243 Z" fill="#000000" fill-rule="nonzero" fill-opacity="1" /><path clip-path="url(#clip500)" d="M66.5939 618.84 L54.7884 637.289 L66.5939 637.289 L66.5939 618.84 M65.367 614.766 L71.2466 614.766 L71.2466 637.289 L76.1772 637.289 L76.1772 641.178 L71.2466 641.178 L71.2466 649.326 L66.5939 649.326 L66.5939 641.178 L50.9921 641.178 L50.9921 636.664 L65.367 614.766 Z" fill="#000000" fill-rule="nonzero" fill-opacity="1" /><path clip-path="url(#clip500)" d="M83.9086 643.447 L88.7928 643.447 L88.7928 649.326 L83.9086 649.326 L83.9086 643.447 Z" fill="#000000" fill-rule="nonzero" fill-opacity="1" /><path clip-path="url(#clip500)" d="M108.978 617.845 Q105.367 617.845 103.538 621.41 Q101.733 624.951 101.733 632.081 Q101.733 639.187 103.538 642.752 Q105.367 646.294 108.978 646.294 Q112.612 646.294 114.418 642.752 Q116.246 639.187 116.246 632.081 Q116.246 624.951 114.418 621.41 Q112.612 617.845 108.978 617.845 M108.978 614.141 Q114.788 614.141 117.844 618.748 Q120.922 623.331 120.922 632.081 Q120.922 640.808 117.844 645.414 Q114.788 649.997 108.978 649.997 Q103.168 649.997 100.089 645.414 Q97.0335 640.808 97.0335 632.081 Q97.0335 623.331 100.089 618.748 Q103.168 614.141 108.978 614.141 Z" fill="#000000" fill-rule="nonzero" fill-opacity="1" /><path clip-path="url(#clip500)" d="M157.311 623.863 L146.732 634.488 L157.311 645.067 L154.556 647.868 L143.931 637.243 L133.306 647.868 L130.575 645.067 L141.131 634.488 L130.575 623.863 L133.306 621.062 L143.931 631.687 L154.556 621.062 L157.311 623.863 Z" fill="#000000" fill-rule="nonzero" fill-opacity="1" /><path clip-path="url(#clip500)" d="M169.672 645.391 L177.311 645.391 L177.311 619.025 L169.001 620.692 L169.001 616.433 L177.265 614.766 L181.94 614.766 L181.94 645.391 L189.579 645.391 L189.579 649.326 L169.672 649.326 L169.672 645.391 Z" fill="#000000" fill-rule="nonzero" fill-opacity="1" /><path clip-path="url(#clip500)" d="M209.024 617.845 Q205.413 617.845 203.584 621.41 Q201.778 624.951 201.778 632.081 Q201.778 639.187 203.584 642.752 Q205.413 646.294 209.024 646.294 Q212.658 646.294 214.463 642.752 Q216.292 639.187 216.292 632.081 Q216.292 624.951 214.463 621.41 Q212.658 617.845 209.024 617.845 M209.024 614.141 Q214.834 614.141 217.889 618.748 Q220.968 623.331 220.968 632.081 Q220.968 640.808 217.889 645.414 Q214.834 649.997 209.024 649.997 Q203.214 649.997 200.135 645.414 Q197.079 640.808 197.079 632.081 Q197.079 623.331 200.135 618.748 Q203.214 614.141 209.024 614.141 Z" fill="#000000" fill-rule="nonzero" fill-opacity="1" /><path clip-path="url(#clip500)" d="M220.968 608.242 L245.08 608.242 L245.08 611.44 L220.968 611.44 L220.968 608.242 Z" fill="#000000" fill-rule="nonzero" fill-opacity="1" /><path clip-path="url(#clip500)" d="M253.317 593.836 L268.232 593.836 L268.232 597.033 L256.797 597.033 L256.797 603.917 Q257.624 603.635 258.452 603.503 Q259.279 603.352 260.107 603.352 Q264.809 603.352 267.555 605.929 Q270.301 608.506 270.301 612.907 Q270.301 617.439 267.48 619.96 Q264.659 622.461 259.524 622.461 Q257.756 622.461 255.913 622.16 Q254.089 621.859 252.133 621.257 L252.133 617.439 Q253.825 618.361 255.631 618.812 Q257.436 619.264 259.449 619.264 Q262.703 619.264 264.602 617.552 Q266.502 615.841 266.502 612.907 Q266.502 609.973 264.602 608.261 Q262.703 606.55 259.449 606.55 Q257.925 606.55 256.402 606.888 Q254.897 607.227 253.317 607.942 L253.317 593.836 Z" fill="#000000" fill-rule="nonzero" fill-opacity="1" /><path clip-path="url(#clip500)" d="M53.793 355.359 L72.1494 355.359 L72.1494 359.294 L58.0754 359.294 L58.0754 367.766 Q59.0939 367.419 60.1124 367.257 Q61.131 367.071 62.1495 367.071 Q67.9365 367.071 71.3161 370.243 Q74.6957 373.414 74.6957 378.831 Q74.6957 384.409 71.2235 387.511 Q67.7513 390.59 61.4319 390.59 Q59.256 390.59 56.9875 390.219 Q54.7421 389.849 52.3347 389.108 L52.3347 384.409 Q54.418 385.544 56.6402 386.099 Q58.8625 386.655 61.3393 386.655 Q65.3439 386.655 67.6819 384.548 Q70.0198 382.442 70.0198 378.831 Q70.0198 375.22 67.6819 373.113 Q65.3439 371.007 61.3393 371.007 Q59.4643 371.007 57.5893 371.423 Q55.7375 371.84 53.793 372.72 L53.793 355.359 Z" fill="#000000" fill-rule="nonzero" fill-opacity="1" /><path clip-path="url(#clip500)" d="M83.9086 384.039 L88.7928 384.039 L88.7928 389.919 L83.9086 389.919 L83.9086 384.039 Z" fill="#000000" fill-rule="nonzero" fill-opacity="1" /><path clip-path="url(#clip500)" d="M108.978 358.437 Q105.367 358.437 103.538 362.002 Q101.733 365.544 101.733 372.673 Q101.733 379.78 103.538 383.344 Q105.367 386.886 108.978 386.886 Q112.612 386.886 114.418 383.344 Q116.246 379.78 116.246 372.673 Q116.246 365.544 114.418 362.002 Q112.612 358.437 108.978 358.437 M108.978 354.734 Q114.788 354.734 117.844 359.34 Q120.922 363.923 120.922 372.673 Q120.922 381.4 117.844 386.007 Q114.788 390.59 108.978 390.59 Q103.168 390.59 100.089 386.007 Q97.0335 381.4 97.0335 372.673 Q97.0335 363.923 100.089 359.34 Q103.168 354.734 108.978 354.734 Z" fill="#000000" fill-rule="nonzero" fill-opacity="1" /><path clip-path="url(#clip500)" d="M157.311 364.456 L146.732 375.081 L157.311 385.659 L154.556 388.46 L143.931 377.835 L133.306 388.46 L130.575 385.659 L141.131 375.081 L130.575 364.456 L133.306 361.655 L143.931 372.28 L154.556 361.655 L157.311 364.456 Z" fill="#000000" fill-rule="nonzero" fill-opacity="1" /><path clip-path="url(#clip500)" d="M169.672 385.983 L177.311 385.983 L177.311 359.618 L169.001 361.284 L169.001 357.025 L177.265 355.359 L181.94 355.359 L181.94 385.983 L189.579 385.983 L189.579 389.919 L169.672 389.919 L169.672 385.983 Z" fill="#000000" fill-rule="nonzero" fill-opacity="1" /><path clip-path="url(#clip500)" d="M209.024 358.437 Q205.413 358.437 203.584 362.002 Q201.778 365.544 201.778 372.673 Q201.778 379.78 203.584 383.344 Q205.413 386.886 209.024 386.886 Q212.658 386.886 214.463 383.344 Q216.292 379.78 216.292 372.673 Q216.292 365.544 214.463 362.002 Q212.658 358.437 209.024 358.437 M209.024 354.734 Q214.834 354.734 217.889 359.34 Q220.968 363.923 220.968 372.673 Q220.968 381.4 217.889 386.007 Q214.834 390.59 209.024 390.59 Q203.214 390.59 200.135 386.007 Q197.079 381.4 197.079 372.673 Q197.079 363.923 200.135 359.34 Q203.214 354.734 209.024 354.734 Z" fill="#000000" fill-rule="nonzero" fill-opacity="1" /><path clip-path="url(#clip500)" d="M220.968 348.835 L245.08 348.835 L245.08 352.032 L220.968 352.032 L220.968 348.835 Z" fill="#000000" fill-rule="nonzero" fill-opacity="1" /><path clip-path="url(#clip500)" d="M253.317 334.428 L268.232 334.428 L268.232 337.625 L256.797 337.625 L256.797 344.509 Q257.624 344.227 258.452 344.095 Q259.279 343.945 260.107 343.945 Q264.809 343.945 267.555 346.522 Q270.301 349.098 270.301 353.499 Q270.301 358.032 267.48 360.552 Q264.659 363.054 259.524 363.054 Q257.756 363.054 255.913 362.753 Q254.089 362.452 252.133 361.85 L252.133 358.032 Q253.825 358.953 255.631 359.405 Q257.436 359.856 259.449 359.856 Q262.703 359.856 264.602 358.145 Q266.502 356.433 266.502 353.499 Q266.502 350.565 264.602 348.854 Q262.703 347.142 259.449 347.142 Q257.925 347.142 256.402 347.481 Q254.897 347.819 253.317 348.534 L253.317 334.428 Z" fill="#000000" fill-rule="nonzero" fill-opacity="1" /><path clip-path="url(#clip500)" d="M64.3254 111.368 Q61.1773 111.368 59.3254 113.52 Q57.4967 115.673 57.4967 119.423 Q57.4967 123.15 59.3254 125.326 Q61.1773 127.479 64.3254 127.479 Q67.4735 127.479 69.3022 125.326 Q71.1541 123.15 71.1541 119.423 Q71.1541 115.673 69.3022 113.52 Q67.4735 111.368 64.3254 111.368 M73.6077 96.7148 L73.6077 100.974 Q71.8485 100.141 70.0429 99.7009 Q68.2606 99.2611 66.5013 99.2611 Q61.8717 99.2611 59.418 102.386 Q56.9875 105.511 56.6402 111.83 Q58.006 109.817 60.0662 108.752 Q62.1263 107.664 64.6032 107.664 Q69.8115 107.664 72.8207 110.835 Q75.8531 113.983 75.8531 119.423 Q75.8531 124.747 72.705 127.965 Q69.5568 131.182 64.3254 131.182 Q58.33 131.182 55.1588 126.599 Q51.9875 121.992 51.9875 113.266 Q51.9875 105.071 55.8764 100.21 Q59.7652 95.3259 66.3161 95.3259 Q68.0754 95.3259 69.8578 95.6732 Q71.6633 96.0204 73.6077 96.7148 Z" fill="#000000" fill-rule="nonzero" fill-opacity="1" /><path clip-path="url(#clip500)" d="M83.9086 124.631 L88.7928 124.631 L88.7928 130.511 L83.9086 130.511 L83.9086 124.631 Z" fill="#000000" fill-rule="nonzero" fill-opacity="1" /><path clip-path="url(#clip500)" d="M108.978 99.0296 Q105.367 99.0296 103.538 102.594 Q101.733 106.136 101.733 113.266 Q101.733 120.372 103.538 123.937 Q105.367 127.479 108.978 127.479 Q112.612 127.479 114.418 123.937 Q116.246 120.372 116.246 113.266 Q116.246 106.136 114.418 102.594 Q112.612 99.0296 108.978 99.0296 M108.978 95.3259 Q114.788 95.3259 117.844 99.9324 Q120.922 104.516 120.922 113.266 Q120.922 121.992 117.844 126.599 Q114.788 131.182 108.978 131.182 Q103.168 131.182 100.089 126.599 Q97.0335 121.992 97.0335 113.266 Q97.0335 104.516 100.089 99.9324 Q103.168 95.3259 108.978 95.3259 Z" fill="#000000" fill-rule="nonzero" fill-opacity="1" /><path clip-path="url(#clip500)" d="M157.311 105.048 L146.732 115.673 L157.311 126.252 L154.556 129.053 L143.931 118.428 L133.306 129.053 L130.575 126.252 L141.131 115.673 L130.575 105.048 L133.306 102.247 L143.931 112.872 L154.556 102.247 L157.311 105.048 Z" fill="#000000" fill-rule="nonzero" fill-opacity="1" /><path clip-path="url(#clip500)" d="M169.672 126.576 L177.311 126.576 L177.311 100.21 L169.001 101.877 L169.001 97.6176 L177.265 95.9509 L181.94 95.9509 L181.94 126.576 L189.579 126.576 L189.579 130.511 L169.672 130.511 L169.672 126.576 Z" fill="#000000" fill-rule="nonzero" fill-opacity="1" /><path clip-path="url(#clip500)" d="M209.024 99.0296 Q205.413 99.0296 203.584 102.594 Q201.778 106.136 201.778 113.266 Q201.778 120.372 203.584 123.937 Q205.413 127.479 209.024 127.479 Q212.658 127.479 214.463 123.937 Q216.292 120.372 216.292 113.266 Q216.292 106.136 214.463 102.594 Q212.658 99.0296 209.024 99.0296 M209.024 95.3259 Q214.834 95.3259 217.889 99.9324 Q220.968 104.516 220.968 113.266 Q220.968 121.992 217.889 126.599 Q214.834 131.182 209.024 131.182 Q203.214 131.182 200.135 126.599 Q197.079 121.992 197.079 113.266 Q197.079 104.516 200.135 99.9324 Q203.214 95.3259 209.024 95.3259 Z" fill="#000000" fill-rule="nonzero" fill-opacity="1" /><path clip-path="url(#clip500)" d="M220.968 89.4273 L245.08 89.4273 L245.08 92.6246 L220.968 92.6246 L220.968 89.4273 Z" fill="#000000" fill-rule="nonzero" fill-opacity="1" /><path clip-path="url(#clip500)" d="M253.317 75.0205 L268.232 75.0205 L268.232 78.2178 L256.797 78.2178 L256.797 85.1015 Q257.624 84.8194 258.452 84.6877 Q259.279 84.5373 260.107 84.5373 Q264.809 84.5373 267.555 87.1139 Q270.301 89.6906 270.301 94.0916 Q270.301 98.6243 267.48 101.145 Q264.659 103.646 259.524 103.646 Q257.756 103.646 255.913 103.345 Q254.089 103.044 252.133 102.442 L252.133 98.6243 Q253.825 99.5459 255.631 99.9972 Q257.436 100.449 259.449 100.449 Q262.703 100.449 264.602 98.7371 Q266.502 97.0256 266.502 94.0916 Q266.502 91.1576 264.602 89.4461 Q262.703 87.7346 259.449 87.7346 Q257.925 87.7346 256.402 88.0731 Q254.897 88.4117 253.317 89.1264 L253.317 75.0205 Z" fill="#000000" fill-rule="nonzero" fill-opacity="1" /><polyline clip-path="url(#clip502)" style="stroke:#009af9; stroke-linecap:round; stroke-linejoin:round; stroke-width:4; stroke-opacity:1; fill:none" points="364.219,1445.72 1329.53,87.9763 2294.84,169.093 "/>
<path clip-path="url(#clip500)" d="M374.516 198.898 L631.592 198.898 L631.592 95.2176 L374.516 95.2176  Z" fill="#ffffff" fill-rule="evenodd" fill-opacity="1"/>
<polyline clip-path="url(#clip500)" style="stroke:#000000; stroke-linecap:round; stroke-linejoin:round; stroke-width:4; stroke-opacity:1; fill:none" points="374.516,198.898 631.592,198.898 631.592,95.2176 374.516,95.2176 374.516,198.898 "/>
<polyline clip-path="url(#clip500)" style="stroke:#009af9; stroke-linecap:round; stroke-linejoin:round; stroke-width:4; stroke-opacity:1; fill:none" points="397.254,147.058 533.685,147.058 "/>
<path clip-path="url(#clip500)" d="M570.266 166.745 Q568.46 171.375 566.747 172.787 Q565.034 174.199 562.164 174.199 L558.761 174.199 L558.761 170.634 L561.261 170.634 Q563.02 170.634 563.993 169.8 Q564.965 168.967 566.145 165.865 L566.909 163.921 L556.423 138.412 L560.937 138.412 L569.039 158.689 L577.141 138.412 L581.654 138.412 L570.266 166.745 Z" fill="#000000" fill-rule="nonzero" fill-opacity="1" /><path clip-path="url(#clip500)" d="M588.946 160.402 L596.585 160.402 L596.585 134.037 L588.275 135.703 L588.275 131.444 L596.539 129.778 L601.215 129.778 L601.215 160.402 L608.853 160.402 L608.853 164.338 L588.946 164.338 L588.946 160.402 Z" fill="#000000" fill-rule="nonzero" fill-opacity="1" /></svg>
